M48
; DRILL file {KiCad 5.1.5-5.1.5} date Fri 10 Jul 2020 19:34:41 AEST
; FORMAT={3:3/ absolute / metric / suppress trailing zeros}
; #@! TF.CreationDate,2020-07-10T19:34:41+10:00
; #@! TF.GenerationSoftware,Kicad,Pcbnew,5.1.5-5.1.5
; #@! TF.FileFunction,Plated,1,2,PTH
FMAT,2
METRIC,LZ
T1C0.750
T2C0.800
T3C0.900
T4C1.000
T5C1.016
%
G90
G05
T1
X09652Y-08636
X09779Y-08763
X09906Y-08636
X13716Y-08636
X13843Y-08763
X1397Y-08636
X14478Y-1143
X14605Y-11557
X14732Y-1143
X15113Y-09779
X1524Y-09652
X1524Y-09906
X09271Y-06223
X09398Y-06096
X09398Y-0635
X1524Y-06223
X15367Y-06096
X15367Y-0635
X10414Y-1143
X10541Y-11557
X10668Y-1143
X12954Y-10668
X13081Y-10795
X13208Y-10668
X08382Y-1016
X08382Y-10414
X08509Y-10287
T2
X13208Y-0635
X14478Y-0635
X14224Y-14224
X15494Y-14224
X15748Y-09144
X15748Y-10414
X13335Y-08128
X14605Y-08128
X13208Y-05842
X14478Y-05842
X14224Y-14732
X15494Y-14732
X09144Y-14732
X10414Y-14732
X09144Y-14224
X10414Y-14224
X1397Y-11938
X1524Y-11938
X12446Y-14224
X13716Y-14224
X1143Y-13716
X1168Y-13716
X12446Y-12708
X12446Y-13208
X12446Y-09906
X12446Y-11176
X09144Y-13716
X10414Y-13716
X1016Y-05842
X1143Y-05842
X14224Y-13716
X15494Y-13716
X1016Y-0635
X1143Y-0635
X07874Y-09144
X07874Y-10414
X09144Y-08128
X10414Y-08128
X09906Y-11938
X11176Y-11938
T3
X08763Y-11938
X08763Y-12192
X16256Y-09271
X16256Y-09525
X09144Y-10033
X09398Y-10033
X10795Y-10414
X11049Y-10414
X1524Y-127
X15494Y-127
X16002Y-11938
X16002Y-12192
X13208Y-11303
X13208Y-11557
X11684Y-10668
X11684Y-10922
X12827Y-11938
X12827Y-12192
X08382Y-08636
X08382Y-0889
X12446Y-08636
X12446Y-0889
X08636Y-09398
X08636Y-09652
X11938Y-11176
X11938Y-1143
X11938Y-11938
X11938Y-12192
X1651Y-10795
X1651Y-11049
X14351Y-12954
X14605Y-12954
X11176Y-127
X1143Y-127
X15748Y-10668
X15748Y-10922
X14859Y-10414
X15113Y-10414
X15748Y-07747
X15748Y-08001
X15494Y-08255
X15494Y-08509
X1524Y-0889
X1524Y-09144
X14732Y-09398
X14732Y-09652
X15113Y-07366
X15367Y-07366
X13208Y-10033
X13462Y-10033
X16002Y-11176
X16002Y-1143
X14224Y-06985
X14478Y-06985
X10287Y-12954
X10541Y-12954
X16637Y-10287
X16637Y-10541
X09525Y-12954
X09779Y-12954
X08763Y-07366
X09017Y-07366
X1651Y-08763
X1651Y-09017
X09525Y-06985
X09779Y-06985
X13462Y-06985
X13716Y-06985
X12827Y-07366
X13081Y-07366
X0889Y-127
X09144Y-127
X08382Y-07874
X08382Y-08128
X10287Y-06985
X10541Y-06985
X12954Y-127
X13208Y-127
X13589Y-12954
X13843Y-12954
X11049Y-07366
X11303Y-07366
X12446Y-07874
X12446Y-08128
X10033Y-1016
X10287Y-1016
X11176Y-089154
X11176Y-091694
X14097Y-1016
X14351Y-1016
X09144Y-11303
X09144Y-11557
X10668Y-09398
X10668Y-09652
X13716Y-10668
X13716Y-10922
X09652Y-10668
X09652Y-10922
X1143Y-08255
X1143Y-08509
X11684Y-07747
X11684Y-08001
X127Y-09398
X127Y-09652
T4
X16256Y-06604
X16256Y-06858
X16256Y-07112
X16256Y-07366
X16256Y-0762
X16256Y-07874
X10922Y-14732
X11176Y-14732
X1143Y-14732
X11684Y-14732
X11938Y-14732
X12192Y-14732
X12446Y-14732
X127Y-14732
X12954Y-14732
X13208Y-14732
X13462Y-14732
X13716Y-14732
X17018Y-1143
X17018Y-11684
X17018Y-11938
X17018Y-12192
X17018Y-12446
X17018Y-127
X17018Y-12954
X17018Y-13208
X17018Y-13462
X17018Y-13716
X17018Y-1397
X17018Y-14224
X08382Y-1143
X08382Y-11684
X08382Y-11938
X08382Y-12192
X08382Y-12446
X08382Y-127
X08382Y-12954
X08382Y-13208
X08382Y-13462
X08382Y-13716
X08382Y-1397
X08382Y-14224
X0762Y-06604
X0762Y-06858
X0762Y-07112
X0762Y-07366
X0762Y-0762
X0762Y-07874
T5
X12192Y-06096
X12192Y-0635
X12192Y-06604
X12446Y-06096
X12446Y-0635
X12446Y-06604
T0
M30
