G04 #@! TF.GenerationSoftware,KiCad,Pcbnew,5.1.5-5.1.5*
G04 #@! TF.CreationDate,2020-07-10T19:34:37+10:00*
G04 #@! TF.ProjectId,6segment,36736567-6d65-46e7-942e-6b696361645f,rev?*
G04 #@! TF.SameCoordinates,Original*
G04 #@! TF.FileFunction,Soldermask,Top*
G04 #@! TF.FilePolarity,Negative*
%FSLAX46Y46*%
G04 Gerber Fmt 4.6, Leading zero omitted, Abs format (unit mm)*
G04 Created by KiCad (PCBNEW 5.1.5-5.1.5) date 2020-07-10 19:34:37*
%MOMM*%
%LPD*%
G04 APERTURE LIST*
%ADD10C,0.100000*%
G04 APERTURE END LIST*
D10*
G36*
X168165331Y-145588211D02*
G01*
X168493092Y-145723974D01*
X168788070Y-145921072D01*
X169038928Y-146171930D01*
X169236026Y-146466908D01*
X169371789Y-146794669D01*
X169441000Y-147142616D01*
X169441000Y-147497384D01*
X169371789Y-147845331D01*
X169236026Y-148173092D01*
X169038928Y-148468070D01*
X168788070Y-148718928D01*
X168493092Y-148916026D01*
X168165331Y-149051789D01*
X167817384Y-149121000D01*
X167462616Y-149121000D01*
X167114669Y-149051789D01*
X166786908Y-148916026D01*
X166491930Y-148718928D01*
X166241072Y-148468070D01*
X166043974Y-148173092D01*
X165908211Y-147845331D01*
X165839000Y-147497384D01*
X165839000Y-147142616D01*
X165908211Y-146794669D01*
X166043974Y-146466908D01*
X166241072Y-146171930D01*
X166491930Y-145921072D01*
X166786908Y-145723974D01*
X167114669Y-145588211D01*
X167462616Y-145519000D01*
X167817384Y-145519000D01*
X168165331Y-145588211D01*
G37*
G36*
X79265331Y-145588211D02*
G01*
X79593092Y-145723974D01*
X79888070Y-145921072D01*
X80138928Y-146171930D01*
X80336026Y-146466908D01*
X80471789Y-146794669D01*
X80541000Y-147142616D01*
X80541000Y-147497384D01*
X80471789Y-147845331D01*
X80336026Y-148173092D01*
X80138928Y-148468070D01*
X79888070Y-148718928D01*
X79593092Y-148916026D01*
X79265331Y-149051789D01*
X78917384Y-149121000D01*
X78562616Y-149121000D01*
X78214669Y-149051789D01*
X77886908Y-148916026D01*
X77591930Y-148718928D01*
X77341072Y-148468070D01*
X77143974Y-148173092D01*
X77008211Y-147845331D01*
X76939000Y-147497384D01*
X76939000Y-147142616D01*
X77008211Y-146794669D01*
X77143974Y-146466908D01*
X77341072Y-146171930D01*
X77591930Y-145921072D01*
X77886908Y-145723974D01*
X78214669Y-145588211D01*
X78562616Y-145519000D01*
X78917384Y-145519000D01*
X79265331Y-145588211D01*
G37*
G36*
X124573512Y-146423927D02*
G01*
X124722812Y-146453624D01*
X124886784Y-146521544D01*
X125034354Y-146620147D01*
X125159853Y-146745646D01*
X125258456Y-146893216D01*
X125326376Y-147057188D01*
X125361000Y-147231259D01*
X125361000Y-147408741D01*
X125326376Y-147582812D01*
X125258456Y-147746784D01*
X125159853Y-147894354D01*
X125034354Y-148019853D01*
X124886784Y-148118456D01*
X124722812Y-148186376D01*
X124573512Y-148216073D01*
X124548742Y-148221000D01*
X124371258Y-148221000D01*
X124346488Y-148216073D01*
X124197188Y-148186376D01*
X124033216Y-148118456D01*
X123885646Y-148019853D01*
X123760147Y-147894354D01*
X123661544Y-147746784D01*
X123593624Y-147582812D01*
X123559000Y-147408741D01*
X123559000Y-147231259D01*
X123593624Y-147057188D01*
X123661544Y-146893216D01*
X123760147Y-146745646D01*
X123885646Y-146620147D01*
X124033216Y-146521544D01*
X124197188Y-146453624D01*
X124346488Y-146423927D01*
X124371258Y-146419000D01*
X124548742Y-146419000D01*
X124573512Y-146423927D01*
G37*
G36*
X122033512Y-146423927D02*
G01*
X122182812Y-146453624D01*
X122346784Y-146521544D01*
X122494354Y-146620147D01*
X122619853Y-146745646D01*
X122718456Y-146893216D01*
X122786376Y-147057188D01*
X122821000Y-147231259D01*
X122821000Y-147408741D01*
X122786376Y-147582812D01*
X122718456Y-147746784D01*
X122619853Y-147894354D01*
X122494354Y-148019853D01*
X122346784Y-148118456D01*
X122182812Y-148186376D01*
X122033512Y-148216073D01*
X122008742Y-148221000D01*
X121831258Y-148221000D01*
X121806488Y-148216073D01*
X121657188Y-148186376D01*
X121493216Y-148118456D01*
X121345646Y-148019853D01*
X121220147Y-147894354D01*
X121121544Y-147746784D01*
X121053624Y-147582812D01*
X121019000Y-147408741D01*
X121019000Y-147231259D01*
X121053624Y-147057188D01*
X121121544Y-146893216D01*
X121220147Y-146745646D01*
X121345646Y-146620147D01*
X121493216Y-146521544D01*
X121657188Y-146453624D01*
X121806488Y-146423927D01*
X121831258Y-146419000D01*
X122008742Y-146419000D01*
X122033512Y-146423927D01*
G37*
G36*
X119493512Y-146423927D02*
G01*
X119642812Y-146453624D01*
X119806784Y-146521544D01*
X119954354Y-146620147D01*
X120079853Y-146745646D01*
X120178456Y-146893216D01*
X120246376Y-147057188D01*
X120281000Y-147231259D01*
X120281000Y-147408741D01*
X120246376Y-147582812D01*
X120178456Y-147746784D01*
X120079853Y-147894354D01*
X119954354Y-148019853D01*
X119806784Y-148118456D01*
X119642812Y-148186376D01*
X119493512Y-148216073D01*
X119468742Y-148221000D01*
X119291258Y-148221000D01*
X119266488Y-148216073D01*
X119117188Y-148186376D01*
X118953216Y-148118456D01*
X118805646Y-148019853D01*
X118680147Y-147894354D01*
X118581544Y-147746784D01*
X118513624Y-147582812D01*
X118479000Y-147408741D01*
X118479000Y-147231259D01*
X118513624Y-147057188D01*
X118581544Y-146893216D01*
X118680147Y-146745646D01*
X118805646Y-146620147D01*
X118953216Y-146521544D01*
X119117188Y-146453624D01*
X119266488Y-146423927D01*
X119291258Y-146419000D01*
X119468742Y-146419000D01*
X119493512Y-146423927D01*
G37*
G36*
X116953512Y-146423927D02*
G01*
X117102812Y-146453624D01*
X117266784Y-146521544D01*
X117414354Y-146620147D01*
X117539853Y-146745646D01*
X117638456Y-146893216D01*
X117706376Y-147057188D01*
X117741000Y-147231259D01*
X117741000Y-147408741D01*
X117706376Y-147582812D01*
X117638456Y-147746784D01*
X117539853Y-147894354D01*
X117414354Y-148019853D01*
X117266784Y-148118456D01*
X117102812Y-148186376D01*
X116953512Y-148216073D01*
X116928742Y-148221000D01*
X116751258Y-148221000D01*
X116726488Y-148216073D01*
X116577188Y-148186376D01*
X116413216Y-148118456D01*
X116265646Y-148019853D01*
X116140147Y-147894354D01*
X116041544Y-147746784D01*
X115973624Y-147582812D01*
X115939000Y-147408741D01*
X115939000Y-147231259D01*
X115973624Y-147057188D01*
X116041544Y-146893216D01*
X116140147Y-146745646D01*
X116265646Y-146620147D01*
X116413216Y-146521544D01*
X116577188Y-146453624D01*
X116726488Y-146423927D01*
X116751258Y-146419000D01*
X116928742Y-146419000D01*
X116953512Y-146423927D01*
G37*
G36*
X114413512Y-146423927D02*
G01*
X114562812Y-146453624D01*
X114726784Y-146521544D01*
X114874354Y-146620147D01*
X114999853Y-146745646D01*
X115098456Y-146893216D01*
X115166376Y-147057188D01*
X115201000Y-147231259D01*
X115201000Y-147408741D01*
X115166376Y-147582812D01*
X115098456Y-147746784D01*
X114999853Y-147894354D01*
X114874354Y-148019853D01*
X114726784Y-148118456D01*
X114562812Y-148186376D01*
X114413512Y-148216073D01*
X114388742Y-148221000D01*
X114211258Y-148221000D01*
X114186488Y-148216073D01*
X114037188Y-148186376D01*
X113873216Y-148118456D01*
X113725646Y-148019853D01*
X113600147Y-147894354D01*
X113501544Y-147746784D01*
X113433624Y-147582812D01*
X113399000Y-147408741D01*
X113399000Y-147231259D01*
X113433624Y-147057188D01*
X113501544Y-146893216D01*
X113600147Y-146745646D01*
X113725646Y-146620147D01*
X113873216Y-146521544D01*
X114037188Y-146453624D01*
X114186488Y-146423927D01*
X114211258Y-146419000D01*
X114388742Y-146419000D01*
X114413512Y-146423927D01*
G37*
G36*
X111873512Y-146423927D02*
G01*
X112022812Y-146453624D01*
X112186784Y-146521544D01*
X112334354Y-146620147D01*
X112459853Y-146745646D01*
X112558456Y-146893216D01*
X112626376Y-147057188D01*
X112661000Y-147231259D01*
X112661000Y-147408741D01*
X112626376Y-147582812D01*
X112558456Y-147746784D01*
X112459853Y-147894354D01*
X112334354Y-148019853D01*
X112186784Y-148118456D01*
X112022812Y-148186376D01*
X111873512Y-148216073D01*
X111848742Y-148221000D01*
X111671258Y-148221000D01*
X111646488Y-148216073D01*
X111497188Y-148186376D01*
X111333216Y-148118456D01*
X111185646Y-148019853D01*
X111060147Y-147894354D01*
X110961544Y-147746784D01*
X110893624Y-147582812D01*
X110859000Y-147408741D01*
X110859000Y-147231259D01*
X110893624Y-147057188D01*
X110961544Y-146893216D01*
X111060147Y-146745646D01*
X111185646Y-146620147D01*
X111333216Y-146521544D01*
X111497188Y-146453624D01*
X111646488Y-146423927D01*
X111671258Y-146419000D01*
X111848742Y-146419000D01*
X111873512Y-146423927D01*
G37*
G36*
X109333512Y-146423927D02*
G01*
X109482812Y-146453624D01*
X109646784Y-146521544D01*
X109794354Y-146620147D01*
X109919853Y-146745646D01*
X110018456Y-146893216D01*
X110086376Y-147057188D01*
X110121000Y-147231259D01*
X110121000Y-147408741D01*
X110086376Y-147582812D01*
X110018456Y-147746784D01*
X109919853Y-147894354D01*
X109794354Y-148019853D01*
X109646784Y-148118456D01*
X109482812Y-148186376D01*
X109333512Y-148216073D01*
X109308742Y-148221000D01*
X109131258Y-148221000D01*
X109106488Y-148216073D01*
X108957188Y-148186376D01*
X108793216Y-148118456D01*
X108645646Y-148019853D01*
X108520147Y-147894354D01*
X108421544Y-147746784D01*
X108353624Y-147582812D01*
X108319000Y-147408741D01*
X108319000Y-147231259D01*
X108353624Y-147057188D01*
X108421544Y-146893216D01*
X108520147Y-146745646D01*
X108645646Y-146620147D01*
X108793216Y-146521544D01*
X108957188Y-146453624D01*
X109106488Y-146423927D01*
X109131258Y-146419000D01*
X109308742Y-146419000D01*
X109333512Y-146423927D01*
G37*
G36*
X138061000Y-148221000D02*
G01*
X136259000Y-148221000D01*
X136259000Y-146419000D01*
X138061000Y-146419000D01*
X138061000Y-148221000D01*
G37*
G36*
X127113512Y-146423927D02*
G01*
X127262812Y-146453624D01*
X127426784Y-146521544D01*
X127574354Y-146620147D01*
X127699853Y-146745646D01*
X127798456Y-146893216D01*
X127866376Y-147057188D01*
X127901000Y-147231259D01*
X127901000Y-147408741D01*
X127866376Y-147582812D01*
X127798456Y-147746784D01*
X127699853Y-147894354D01*
X127574354Y-148019853D01*
X127426784Y-148118456D01*
X127262812Y-148186376D01*
X127113512Y-148216073D01*
X127088742Y-148221000D01*
X126911258Y-148221000D01*
X126886488Y-148216073D01*
X126737188Y-148186376D01*
X126573216Y-148118456D01*
X126425646Y-148019853D01*
X126300147Y-147894354D01*
X126201544Y-147746784D01*
X126133624Y-147582812D01*
X126099000Y-147408741D01*
X126099000Y-147231259D01*
X126133624Y-147057188D01*
X126201544Y-146893216D01*
X126300147Y-146745646D01*
X126425646Y-146620147D01*
X126573216Y-146521544D01*
X126737188Y-146453624D01*
X126886488Y-146423927D01*
X126911258Y-146419000D01*
X127088742Y-146419000D01*
X127113512Y-146423927D01*
G37*
G36*
X129653512Y-146423927D02*
G01*
X129802812Y-146453624D01*
X129966784Y-146521544D01*
X130114354Y-146620147D01*
X130239853Y-146745646D01*
X130338456Y-146893216D01*
X130406376Y-147057188D01*
X130441000Y-147231259D01*
X130441000Y-147408741D01*
X130406376Y-147582812D01*
X130338456Y-147746784D01*
X130239853Y-147894354D01*
X130114354Y-148019853D01*
X129966784Y-148118456D01*
X129802812Y-148186376D01*
X129653512Y-148216073D01*
X129628742Y-148221000D01*
X129451258Y-148221000D01*
X129426488Y-148216073D01*
X129277188Y-148186376D01*
X129113216Y-148118456D01*
X128965646Y-148019853D01*
X128840147Y-147894354D01*
X128741544Y-147746784D01*
X128673624Y-147582812D01*
X128639000Y-147408741D01*
X128639000Y-147231259D01*
X128673624Y-147057188D01*
X128741544Y-146893216D01*
X128840147Y-146745646D01*
X128965646Y-146620147D01*
X129113216Y-146521544D01*
X129277188Y-146453624D01*
X129426488Y-146423927D01*
X129451258Y-146419000D01*
X129628742Y-146419000D01*
X129653512Y-146423927D01*
G37*
G36*
X132193512Y-146423927D02*
G01*
X132342812Y-146453624D01*
X132506784Y-146521544D01*
X132654354Y-146620147D01*
X132779853Y-146745646D01*
X132878456Y-146893216D01*
X132946376Y-147057188D01*
X132981000Y-147231259D01*
X132981000Y-147408741D01*
X132946376Y-147582812D01*
X132878456Y-147746784D01*
X132779853Y-147894354D01*
X132654354Y-148019853D01*
X132506784Y-148118456D01*
X132342812Y-148186376D01*
X132193512Y-148216073D01*
X132168742Y-148221000D01*
X131991258Y-148221000D01*
X131966488Y-148216073D01*
X131817188Y-148186376D01*
X131653216Y-148118456D01*
X131505646Y-148019853D01*
X131380147Y-147894354D01*
X131281544Y-147746784D01*
X131213624Y-147582812D01*
X131179000Y-147408741D01*
X131179000Y-147231259D01*
X131213624Y-147057188D01*
X131281544Y-146893216D01*
X131380147Y-146745646D01*
X131505646Y-146620147D01*
X131653216Y-146521544D01*
X131817188Y-146453624D01*
X131966488Y-146423927D01*
X131991258Y-146419000D01*
X132168742Y-146419000D01*
X132193512Y-146423927D01*
G37*
G36*
X134733512Y-146423927D02*
G01*
X134882812Y-146453624D01*
X135046784Y-146521544D01*
X135194354Y-146620147D01*
X135319853Y-146745646D01*
X135418456Y-146893216D01*
X135486376Y-147057188D01*
X135521000Y-147231259D01*
X135521000Y-147408741D01*
X135486376Y-147582812D01*
X135418456Y-147746784D01*
X135319853Y-147894354D01*
X135194354Y-148019853D01*
X135046784Y-148118456D01*
X134882812Y-148186376D01*
X134733512Y-148216073D01*
X134708742Y-148221000D01*
X134531258Y-148221000D01*
X134506488Y-148216073D01*
X134357188Y-148186376D01*
X134193216Y-148118456D01*
X134045646Y-148019853D01*
X133920147Y-147894354D01*
X133821544Y-147746784D01*
X133753624Y-147582812D01*
X133719000Y-147408741D01*
X133719000Y-147231259D01*
X133753624Y-147057188D01*
X133821544Y-146893216D01*
X133920147Y-146745646D01*
X134045646Y-146620147D01*
X134193216Y-146521544D01*
X134357188Y-146453624D01*
X134506488Y-146423927D01*
X134531258Y-146419000D01*
X134708742Y-146419000D01*
X134733512Y-146423927D01*
G37*
G36*
X91688228Y-146501703D02*
G01*
X91843100Y-146565853D01*
X91982481Y-146658985D01*
X92101015Y-146777519D01*
X92194147Y-146916900D01*
X92258297Y-147071772D01*
X92291000Y-147236184D01*
X92291000Y-147403816D01*
X92258297Y-147568228D01*
X92194147Y-147723100D01*
X92101015Y-147862481D01*
X91982481Y-147981015D01*
X91843100Y-148074147D01*
X91688228Y-148138297D01*
X91523816Y-148171000D01*
X91356184Y-148171000D01*
X91191772Y-148138297D01*
X91036900Y-148074147D01*
X90897519Y-147981015D01*
X90778985Y-147862481D01*
X90685853Y-147723100D01*
X90621703Y-147568228D01*
X90589000Y-147403816D01*
X90589000Y-147236184D01*
X90621703Y-147071772D01*
X90685853Y-146916900D01*
X90778985Y-146777519D01*
X90897519Y-146658985D01*
X91036900Y-146565853D01*
X91191772Y-146501703D01*
X91356184Y-146469000D01*
X91523816Y-146469000D01*
X91688228Y-146501703D01*
G37*
G36*
X104388228Y-146501703D02*
G01*
X104543100Y-146565853D01*
X104682481Y-146658985D01*
X104801015Y-146777519D01*
X104894147Y-146916900D01*
X104958297Y-147071772D01*
X104991000Y-147236184D01*
X104991000Y-147403816D01*
X104958297Y-147568228D01*
X104894147Y-147723100D01*
X104801015Y-147862481D01*
X104682481Y-147981015D01*
X104543100Y-148074147D01*
X104388228Y-148138297D01*
X104223816Y-148171000D01*
X104056184Y-148171000D01*
X103891772Y-148138297D01*
X103736900Y-148074147D01*
X103597519Y-147981015D01*
X103478985Y-147862481D01*
X103385853Y-147723100D01*
X103321703Y-147568228D01*
X103289000Y-147403816D01*
X103289000Y-147236184D01*
X103321703Y-147071772D01*
X103385853Y-146916900D01*
X103478985Y-146777519D01*
X103597519Y-146658985D01*
X103736900Y-146565853D01*
X103891772Y-146501703D01*
X104056184Y-146469000D01*
X104223816Y-146469000D01*
X104388228Y-146501703D01*
G37*
G36*
X155188228Y-146501703D02*
G01*
X155343100Y-146565853D01*
X155482481Y-146658985D01*
X155601015Y-146777519D01*
X155694147Y-146916900D01*
X155758297Y-147071772D01*
X155791000Y-147236184D01*
X155791000Y-147403816D01*
X155758297Y-147568228D01*
X155694147Y-147723100D01*
X155601015Y-147862481D01*
X155482481Y-147981015D01*
X155343100Y-148074147D01*
X155188228Y-148138297D01*
X155023816Y-148171000D01*
X154856184Y-148171000D01*
X154691772Y-148138297D01*
X154536900Y-148074147D01*
X154397519Y-147981015D01*
X154278985Y-147862481D01*
X154185853Y-147723100D01*
X154121703Y-147568228D01*
X154089000Y-147403816D01*
X154089000Y-147236184D01*
X154121703Y-147071772D01*
X154185853Y-146916900D01*
X154278985Y-146777519D01*
X154397519Y-146658985D01*
X154536900Y-146565853D01*
X154691772Y-146501703D01*
X154856184Y-146469000D01*
X155023816Y-146469000D01*
X155188228Y-146501703D01*
G37*
G36*
X142488228Y-146501703D02*
G01*
X142643100Y-146565853D01*
X142782481Y-146658985D01*
X142901015Y-146777519D01*
X142994147Y-146916900D01*
X143058297Y-147071772D01*
X143091000Y-147236184D01*
X143091000Y-147403816D01*
X143058297Y-147568228D01*
X142994147Y-147723100D01*
X142901015Y-147862481D01*
X142782481Y-147981015D01*
X142643100Y-148074147D01*
X142488228Y-148138297D01*
X142323816Y-148171000D01*
X142156184Y-148171000D01*
X141991772Y-148138297D01*
X141836900Y-148074147D01*
X141697519Y-147981015D01*
X141578985Y-147862481D01*
X141485853Y-147723100D01*
X141421703Y-147568228D01*
X141389000Y-147403816D01*
X141389000Y-147236184D01*
X141421703Y-147071772D01*
X141485853Y-146916900D01*
X141578985Y-146777519D01*
X141697519Y-146658985D01*
X141836900Y-146565853D01*
X141991772Y-146501703D01*
X142156184Y-146469000D01*
X142323816Y-146469000D01*
X142488228Y-146501703D01*
G37*
G36*
X84721000Y-143141000D02*
G01*
X82919000Y-143141000D01*
X82919000Y-141339000D01*
X84721000Y-141339000D01*
X84721000Y-143141000D01*
G37*
G36*
X171081000Y-143141000D02*
G01*
X169279000Y-143141000D01*
X169279000Y-141339000D01*
X171081000Y-141339000D01*
X171081000Y-143141000D01*
G37*
G36*
X155188228Y-141421703D02*
G01*
X155343100Y-141485853D01*
X155482481Y-141578985D01*
X155601015Y-141697519D01*
X155694147Y-141836900D01*
X155758297Y-141991772D01*
X155791000Y-142156184D01*
X155791000Y-142323816D01*
X155758297Y-142488228D01*
X155694147Y-142643100D01*
X155601015Y-142782481D01*
X155482481Y-142901015D01*
X155343100Y-142994147D01*
X155188228Y-143058297D01*
X155023816Y-143091000D01*
X154856184Y-143091000D01*
X154691772Y-143058297D01*
X154536900Y-142994147D01*
X154397519Y-142901015D01*
X154278985Y-142782481D01*
X154185853Y-142643100D01*
X154121703Y-142488228D01*
X154089000Y-142323816D01*
X154089000Y-142156184D01*
X154121703Y-141991772D01*
X154185853Y-141836900D01*
X154278985Y-141697519D01*
X154397519Y-141578985D01*
X154536900Y-141485853D01*
X154691772Y-141421703D01*
X154856184Y-141389000D01*
X155023816Y-141389000D01*
X155188228Y-141421703D01*
G37*
G36*
X142488228Y-141421703D02*
G01*
X142643100Y-141485853D01*
X142782481Y-141578985D01*
X142901015Y-141697519D01*
X142994147Y-141836900D01*
X143058297Y-141991772D01*
X143091000Y-142156184D01*
X143091000Y-142323816D01*
X143058297Y-142488228D01*
X142994147Y-142643100D01*
X142901015Y-142782481D01*
X142782481Y-142901015D01*
X142643100Y-142994147D01*
X142488228Y-143058297D01*
X142323816Y-143091000D01*
X142156184Y-143091000D01*
X141991772Y-143058297D01*
X141836900Y-142994147D01*
X141697519Y-142901015D01*
X141578985Y-142782481D01*
X141485853Y-142643100D01*
X141421703Y-142488228D01*
X141389000Y-142323816D01*
X141389000Y-142156184D01*
X141421703Y-141991772D01*
X141485853Y-141836900D01*
X141578985Y-141697519D01*
X141697519Y-141578985D01*
X141836900Y-141485853D01*
X141991772Y-141421703D01*
X142156184Y-141389000D01*
X142323816Y-141389000D01*
X142488228Y-141421703D01*
G37*
G36*
X91688228Y-141421703D02*
G01*
X91843100Y-141485853D01*
X91982481Y-141578985D01*
X92101015Y-141697519D01*
X92194147Y-141836900D01*
X92258297Y-141991772D01*
X92291000Y-142156184D01*
X92291000Y-142323816D01*
X92258297Y-142488228D01*
X92194147Y-142643100D01*
X92101015Y-142782481D01*
X91982481Y-142901015D01*
X91843100Y-142994147D01*
X91688228Y-143058297D01*
X91523816Y-143091000D01*
X91356184Y-143091000D01*
X91191772Y-143058297D01*
X91036900Y-142994147D01*
X90897519Y-142901015D01*
X90778985Y-142782481D01*
X90685853Y-142643100D01*
X90621703Y-142488228D01*
X90589000Y-142323816D01*
X90589000Y-142156184D01*
X90621703Y-141991772D01*
X90685853Y-141836900D01*
X90778985Y-141697519D01*
X90897519Y-141578985D01*
X91036900Y-141485853D01*
X91191772Y-141421703D01*
X91356184Y-141389000D01*
X91523816Y-141389000D01*
X91688228Y-141421703D01*
G37*
G36*
X104388228Y-141421703D02*
G01*
X104543100Y-141485853D01*
X104682481Y-141578985D01*
X104801015Y-141697519D01*
X104894147Y-141836900D01*
X104958297Y-141991772D01*
X104991000Y-142156184D01*
X104991000Y-142323816D01*
X104958297Y-142488228D01*
X104894147Y-142643100D01*
X104801015Y-142782481D01*
X104682481Y-142901015D01*
X104543100Y-142994147D01*
X104388228Y-143058297D01*
X104223816Y-143091000D01*
X104056184Y-143091000D01*
X103891772Y-143058297D01*
X103736900Y-142994147D01*
X103597519Y-142901015D01*
X103478985Y-142782481D01*
X103385853Y-142643100D01*
X103321703Y-142488228D01*
X103289000Y-142323816D01*
X103289000Y-142156184D01*
X103321703Y-141991772D01*
X103385853Y-141836900D01*
X103478985Y-141697519D01*
X103597519Y-141578985D01*
X103736900Y-141485853D01*
X103891772Y-141421703D01*
X104056184Y-141389000D01*
X104223816Y-141389000D01*
X104388228Y-141421703D01*
G37*
G36*
X137408228Y-141421703D02*
G01*
X137563100Y-141485853D01*
X137702481Y-141578985D01*
X137821015Y-141697519D01*
X137914147Y-141836900D01*
X137978297Y-141991772D01*
X138011000Y-142156184D01*
X138011000Y-142323816D01*
X137978297Y-142488228D01*
X137914147Y-142643100D01*
X137821015Y-142782481D01*
X137702481Y-142901015D01*
X137563100Y-142994147D01*
X137408228Y-143058297D01*
X137243816Y-143091000D01*
X137076184Y-143091000D01*
X136911772Y-143058297D01*
X136756900Y-142994147D01*
X136617519Y-142901015D01*
X136498985Y-142782481D01*
X136405853Y-142643100D01*
X136341703Y-142488228D01*
X136309000Y-142323816D01*
X136309000Y-142156184D01*
X136341703Y-141991772D01*
X136405853Y-141836900D01*
X136498985Y-141697519D01*
X136617519Y-141578985D01*
X136756900Y-141485853D01*
X136911772Y-141421703D01*
X137076184Y-141389000D01*
X137243816Y-141389000D01*
X137408228Y-141421703D01*
G37*
G36*
X124708228Y-141421703D02*
G01*
X124863100Y-141485853D01*
X125002481Y-141578985D01*
X125121015Y-141697519D01*
X125214147Y-141836900D01*
X125278297Y-141991772D01*
X125311000Y-142156184D01*
X125311000Y-142323816D01*
X125278297Y-142488228D01*
X125214147Y-142643100D01*
X125121015Y-142782481D01*
X125002481Y-142901015D01*
X124863100Y-142994147D01*
X124708228Y-143058297D01*
X124543816Y-143091000D01*
X124376184Y-143091000D01*
X124211772Y-143058297D01*
X124056900Y-142994147D01*
X123917519Y-142901015D01*
X123798985Y-142782481D01*
X123705853Y-142643100D01*
X123641703Y-142488228D01*
X123609000Y-142323816D01*
X123609000Y-142156184D01*
X123641703Y-141991772D01*
X123705853Y-141836900D01*
X123798985Y-141697519D01*
X123917519Y-141578985D01*
X124056900Y-141485853D01*
X124211772Y-141421703D01*
X124376184Y-141389000D01*
X124543816Y-141389000D01*
X124708228Y-141421703D01*
G37*
G36*
X170293512Y-138803927D02*
G01*
X170442812Y-138833624D01*
X170606784Y-138901544D01*
X170754354Y-139000147D01*
X170879853Y-139125646D01*
X170978456Y-139273216D01*
X171046376Y-139437188D01*
X171081000Y-139611259D01*
X171081000Y-139788741D01*
X171046376Y-139962812D01*
X170978456Y-140126784D01*
X170879853Y-140274354D01*
X170754354Y-140399853D01*
X170606784Y-140498456D01*
X170442812Y-140566376D01*
X170293512Y-140596073D01*
X170268742Y-140601000D01*
X170091258Y-140601000D01*
X170066488Y-140596073D01*
X169917188Y-140566376D01*
X169753216Y-140498456D01*
X169605646Y-140399853D01*
X169480147Y-140274354D01*
X169381544Y-140126784D01*
X169313624Y-139962812D01*
X169279000Y-139788741D01*
X169279000Y-139611259D01*
X169313624Y-139437188D01*
X169381544Y-139273216D01*
X169480147Y-139125646D01*
X169605646Y-139000147D01*
X169753216Y-138901544D01*
X169917188Y-138833624D01*
X170066488Y-138803927D01*
X170091258Y-138799000D01*
X170268742Y-138799000D01*
X170293512Y-138803927D01*
G37*
G36*
X83933512Y-138803927D02*
G01*
X84082812Y-138833624D01*
X84246784Y-138901544D01*
X84394354Y-139000147D01*
X84519853Y-139125646D01*
X84618456Y-139273216D01*
X84686376Y-139437188D01*
X84721000Y-139611259D01*
X84721000Y-139788741D01*
X84686376Y-139962812D01*
X84618456Y-140126784D01*
X84519853Y-140274354D01*
X84394354Y-140399853D01*
X84246784Y-140498456D01*
X84082812Y-140566376D01*
X83933512Y-140596073D01*
X83908742Y-140601000D01*
X83731258Y-140601000D01*
X83706488Y-140596073D01*
X83557188Y-140566376D01*
X83393216Y-140498456D01*
X83245646Y-140399853D01*
X83120147Y-140274354D01*
X83021544Y-140126784D01*
X82953624Y-139962812D01*
X82919000Y-139788741D01*
X82919000Y-139611259D01*
X82953624Y-139437188D01*
X83021544Y-139273216D01*
X83120147Y-139125646D01*
X83245646Y-139000147D01*
X83393216Y-138901544D01*
X83557188Y-138833624D01*
X83706488Y-138803927D01*
X83731258Y-138799000D01*
X83908742Y-138799000D01*
X83933512Y-138803927D01*
G37*
G36*
X83933512Y-136263927D02*
G01*
X84082812Y-136293624D01*
X84246784Y-136361544D01*
X84394354Y-136460147D01*
X84519853Y-136585646D01*
X84618456Y-136733216D01*
X84686376Y-136897188D01*
X84721000Y-137071259D01*
X84721000Y-137248741D01*
X84686376Y-137422812D01*
X84618456Y-137586784D01*
X84519853Y-137734354D01*
X84394354Y-137859853D01*
X84246784Y-137958456D01*
X84082812Y-138026376D01*
X83933512Y-138056073D01*
X83908742Y-138061000D01*
X83731258Y-138061000D01*
X83706488Y-138056073D01*
X83557188Y-138026376D01*
X83393216Y-137958456D01*
X83245646Y-137859853D01*
X83120147Y-137734354D01*
X83021544Y-137586784D01*
X82953624Y-137422812D01*
X82919000Y-137248741D01*
X82919000Y-137071259D01*
X82953624Y-136897188D01*
X83021544Y-136733216D01*
X83120147Y-136585646D01*
X83245646Y-136460147D01*
X83393216Y-136361544D01*
X83557188Y-136293624D01*
X83706488Y-136263927D01*
X83731258Y-136259000D01*
X83908742Y-136259000D01*
X83933512Y-136263927D01*
G37*
G36*
X170293512Y-136263927D02*
G01*
X170442812Y-136293624D01*
X170606784Y-136361544D01*
X170754354Y-136460147D01*
X170879853Y-136585646D01*
X170978456Y-136733216D01*
X171046376Y-136897188D01*
X171081000Y-137071259D01*
X171081000Y-137248741D01*
X171046376Y-137422812D01*
X170978456Y-137586784D01*
X170879853Y-137734354D01*
X170754354Y-137859853D01*
X170606784Y-137958456D01*
X170442812Y-138026376D01*
X170293512Y-138056073D01*
X170268742Y-138061000D01*
X170091258Y-138061000D01*
X170066488Y-138056073D01*
X169917188Y-138026376D01*
X169753216Y-137958456D01*
X169605646Y-137859853D01*
X169480147Y-137734354D01*
X169381544Y-137586784D01*
X169313624Y-137422812D01*
X169279000Y-137248741D01*
X169279000Y-137071259D01*
X169313624Y-136897188D01*
X169381544Y-136733216D01*
X169480147Y-136585646D01*
X169605646Y-136460147D01*
X169753216Y-136361544D01*
X169917188Y-136293624D01*
X170066488Y-136263927D01*
X170091258Y-136259000D01*
X170268742Y-136259000D01*
X170293512Y-136263927D01*
G37*
G36*
X142488228Y-136341703D02*
G01*
X142643100Y-136405853D01*
X142782481Y-136498985D01*
X142901015Y-136617519D01*
X142994147Y-136756900D01*
X143058297Y-136911772D01*
X143091000Y-137076184D01*
X143091000Y-137243816D01*
X143058297Y-137408228D01*
X142994147Y-137563100D01*
X142901015Y-137702481D01*
X142782481Y-137821015D01*
X142643100Y-137914147D01*
X142488228Y-137978297D01*
X142323816Y-138011000D01*
X142156184Y-138011000D01*
X141991772Y-137978297D01*
X141836900Y-137914147D01*
X141697519Y-137821015D01*
X141578985Y-137702481D01*
X141485853Y-137563100D01*
X141421703Y-137408228D01*
X141389000Y-137243816D01*
X141389000Y-137076184D01*
X141421703Y-136911772D01*
X141485853Y-136756900D01*
X141578985Y-136617519D01*
X141697519Y-136498985D01*
X141836900Y-136405853D01*
X141991772Y-136341703D01*
X142156184Y-136309000D01*
X142323816Y-136309000D01*
X142488228Y-136341703D01*
G37*
G36*
X115151000Y-138011000D02*
G01*
X113449000Y-138011000D01*
X113449000Y-136309000D01*
X115151000Y-136309000D01*
X115151000Y-138011000D01*
G37*
G36*
X155188228Y-136341703D02*
G01*
X155343100Y-136405853D01*
X155482481Y-136498985D01*
X155601015Y-136617519D01*
X155694147Y-136756900D01*
X155758297Y-136911772D01*
X155791000Y-137076184D01*
X155791000Y-137243816D01*
X155758297Y-137408228D01*
X155694147Y-137563100D01*
X155601015Y-137702481D01*
X155482481Y-137821015D01*
X155343100Y-137914147D01*
X155188228Y-137978297D01*
X155023816Y-138011000D01*
X154856184Y-138011000D01*
X154691772Y-137978297D01*
X154536900Y-137914147D01*
X154397519Y-137821015D01*
X154278985Y-137702481D01*
X154185853Y-137563100D01*
X154121703Y-137408228D01*
X154089000Y-137243816D01*
X154089000Y-137076184D01*
X154121703Y-136911772D01*
X154185853Y-136756900D01*
X154278985Y-136617519D01*
X154397519Y-136498985D01*
X154536900Y-136405853D01*
X154691772Y-136341703D01*
X154856184Y-136309000D01*
X155023816Y-136309000D01*
X155188228Y-136341703D01*
G37*
G36*
X91688228Y-136341703D02*
G01*
X91843100Y-136405853D01*
X91982481Y-136498985D01*
X92101015Y-136617519D01*
X92194147Y-136756900D01*
X92258297Y-136911772D01*
X92291000Y-137076184D01*
X92291000Y-137243816D01*
X92258297Y-137408228D01*
X92194147Y-137563100D01*
X92101015Y-137702481D01*
X91982481Y-137821015D01*
X91843100Y-137914147D01*
X91688228Y-137978297D01*
X91523816Y-138011000D01*
X91356184Y-138011000D01*
X91191772Y-137978297D01*
X91036900Y-137914147D01*
X90897519Y-137821015D01*
X90778985Y-137702481D01*
X90685853Y-137563100D01*
X90621703Y-137408228D01*
X90589000Y-137243816D01*
X90589000Y-137076184D01*
X90621703Y-136911772D01*
X90685853Y-136756900D01*
X90778985Y-136617519D01*
X90897519Y-136498985D01*
X91036900Y-136405853D01*
X91191772Y-136341703D01*
X91356184Y-136309000D01*
X91523816Y-136309000D01*
X91688228Y-136341703D01*
G37*
G36*
X117048228Y-136341703D02*
G01*
X117203100Y-136405853D01*
X117342481Y-136498985D01*
X117461015Y-136617519D01*
X117554147Y-136756900D01*
X117618297Y-136911772D01*
X117651000Y-137076184D01*
X117651000Y-137243816D01*
X117618297Y-137408228D01*
X117554147Y-137563100D01*
X117461015Y-137702481D01*
X117342481Y-137821015D01*
X117203100Y-137914147D01*
X117048228Y-137978297D01*
X116883816Y-138011000D01*
X116716184Y-138011000D01*
X116551772Y-137978297D01*
X116396900Y-137914147D01*
X116257519Y-137821015D01*
X116138985Y-137702481D01*
X116045853Y-137563100D01*
X115981703Y-137408228D01*
X115949000Y-137243816D01*
X115949000Y-137076184D01*
X115981703Y-136911772D01*
X116045853Y-136756900D01*
X116138985Y-136617519D01*
X116257519Y-136498985D01*
X116396900Y-136405853D01*
X116551772Y-136341703D01*
X116716184Y-136309000D01*
X116883816Y-136309000D01*
X117048228Y-136341703D01*
G37*
G36*
X104388228Y-136341703D02*
G01*
X104543100Y-136405853D01*
X104682481Y-136498985D01*
X104801015Y-136617519D01*
X104894147Y-136756900D01*
X104958297Y-136911772D01*
X104991000Y-137076184D01*
X104991000Y-137243816D01*
X104958297Y-137408228D01*
X104894147Y-137563100D01*
X104801015Y-137702481D01*
X104682481Y-137821015D01*
X104543100Y-137914147D01*
X104388228Y-137978297D01*
X104223816Y-138011000D01*
X104056184Y-138011000D01*
X103891772Y-137978297D01*
X103736900Y-137914147D01*
X103597519Y-137821015D01*
X103478985Y-137702481D01*
X103385853Y-137563100D01*
X103321703Y-137408228D01*
X103289000Y-137243816D01*
X103289000Y-137076184D01*
X103321703Y-136911772D01*
X103385853Y-136756900D01*
X103478985Y-136617519D01*
X103597519Y-136498985D01*
X103736900Y-136405853D01*
X103891772Y-136341703D01*
X104056184Y-136309000D01*
X104223816Y-136309000D01*
X104388228Y-136341703D01*
G37*
G36*
X170293512Y-133723927D02*
G01*
X170442812Y-133753624D01*
X170606784Y-133821544D01*
X170754354Y-133920147D01*
X170879853Y-134045646D01*
X170978456Y-134193216D01*
X171046376Y-134357188D01*
X171081000Y-134531259D01*
X171081000Y-134708741D01*
X171046376Y-134882812D01*
X170978456Y-135046784D01*
X170879853Y-135194354D01*
X170754354Y-135319853D01*
X170606784Y-135418456D01*
X170442812Y-135486376D01*
X170293512Y-135516073D01*
X170268742Y-135521000D01*
X170091258Y-135521000D01*
X170066488Y-135516073D01*
X169917188Y-135486376D01*
X169753216Y-135418456D01*
X169605646Y-135319853D01*
X169480147Y-135194354D01*
X169381544Y-135046784D01*
X169313624Y-134882812D01*
X169279000Y-134708741D01*
X169279000Y-134531259D01*
X169313624Y-134357188D01*
X169381544Y-134193216D01*
X169480147Y-134045646D01*
X169605646Y-133920147D01*
X169753216Y-133821544D01*
X169917188Y-133753624D01*
X170066488Y-133723927D01*
X170091258Y-133719000D01*
X170268742Y-133719000D01*
X170293512Y-133723927D01*
G37*
G36*
X83933512Y-133723927D02*
G01*
X84082812Y-133753624D01*
X84246784Y-133821544D01*
X84394354Y-133920147D01*
X84519853Y-134045646D01*
X84618456Y-134193216D01*
X84686376Y-134357188D01*
X84721000Y-134531259D01*
X84721000Y-134708741D01*
X84686376Y-134882812D01*
X84618456Y-135046784D01*
X84519853Y-135194354D01*
X84394354Y-135319853D01*
X84246784Y-135418456D01*
X84082812Y-135486376D01*
X83933512Y-135516073D01*
X83908742Y-135521000D01*
X83731258Y-135521000D01*
X83706488Y-135516073D01*
X83557188Y-135486376D01*
X83393216Y-135418456D01*
X83245646Y-135319853D01*
X83120147Y-135194354D01*
X83021544Y-135046784D01*
X82953624Y-134882812D01*
X82919000Y-134708741D01*
X82919000Y-134531259D01*
X82953624Y-134357188D01*
X83021544Y-134193216D01*
X83120147Y-134045646D01*
X83245646Y-133920147D01*
X83393216Y-133821544D01*
X83557188Y-133753624D01*
X83706488Y-133723927D01*
X83731258Y-133719000D01*
X83908742Y-133719000D01*
X83933512Y-133723927D01*
G37*
G36*
X170293512Y-131183927D02*
G01*
X170442812Y-131213624D01*
X170606784Y-131281544D01*
X170754354Y-131380147D01*
X170879853Y-131505646D01*
X170978456Y-131653216D01*
X171046376Y-131817188D01*
X171081000Y-131991259D01*
X171081000Y-132168741D01*
X171046376Y-132342812D01*
X170978456Y-132506784D01*
X170879853Y-132654354D01*
X170754354Y-132779853D01*
X170606784Y-132878456D01*
X170442812Y-132946376D01*
X170293512Y-132976073D01*
X170268742Y-132981000D01*
X170091258Y-132981000D01*
X170066488Y-132976073D01*
X169917188Y-132946376D01*
X169753216Y-132878456D01*
X169605646Y-132779853D01*
X169480147Y-132654354D01*
X169381544Y-132506784D01*
X169313624Y-132342812D01*
X169279000Y-132168741D01*
X169279000Y-131991259D01*
X169313624Y-131817188D01*
X169381544Y-131653216D01*
X169480147Y-131505646D01*
X169605646Y-131380147D01*
X169753216Y-131281544D01*
X169917188Y-131213624D01*
X170066488Y-131183927D01*
X170091258Y-131179000D01*
X170268742Y-131179000D01*
X170293512Y-131183927D01*
G37*
G36*
X83933512Y-131183927D02*
G01*
X84082812Y-131213624D01*
X84246784Y-131281544D01*
X84394354Y-131380147D01*
X84519853Y-131505646D01*
X84618456Y-131653216D01*
X84686376Y-131817188D01*
X84721000Y-131991259D01*
X84721000Y-132168741D01*
X84686376Y-132342812D01*
X84618456Y-132506784D01*
X84519853Y-132654354D01*
X84394354Y-132779853D01*
X84246784Y-132878456D01*
X84082812Y-132946376D01*
X83933512Y-132976073D01*
X83908742Y-132981000D01*
X83731258Y-132981000D01*
X83706488Y-132976073D01*
X83557188Y-132946376D01*
X83393216Y-132878456D01*
X83245646Y-132779853D01*
X83120147Y-132654354D01*
X83021544Y-132506784D01*
X82953624Y-132342812D01*
X82919000Y-132168741D01*
X82919000Y-131991259D01*
X82953624Y-131817188D01*
X83021544Y-131653216D01*
X83120147Y-131505646D01*
X83245646Y-131380147D01*
X83393216Y-131281544D01*
X83557188Y-131213624D01*
X83706488Y-131183927D01*
X83731258Y-131179000D01*
X83908742Y-131179000D01*
X83933512Y-131183927D01*
G37*
G36*
X124708228Y-131261703D02*
G01*
X124863100Y-131325853D01*
X125002481Y-131418985D01*
X125121015Y-131537519D01*
X125214147Y-131676900D01*
X125278297Y-131831772D01*
X125311000Y-131996184D01*
X125311000Y-132163816D01*
X125278297Y-132328228D01*
X125214147Y-132483100D01*
X125121015Y-132622481D01*
X125002481Y-132741015D01*
X124863100Y-132834147D01*
X124708228Y-132898297D01*
X124543816Y-132931000D01*
X124376184Y-132931000D01*
X124211772Y-132898297D01*
X124056900Y-132834147D01*
X123917519Y-132741015D01*
X123798985Y-132622481D01*
X123705853Y-132483100D01*
X123641703Y-132328228D01*
X123609000Y-132163816D01*
X123609000Y-131996184D01*
X123641703Y-131831772D01*
X123705853Y-131676900D01*
X123798985Y-131537519D01*
X123917519Y-131418985D01*
X124056900Y-131325853D01*
X124211772Y-131261703D01*
X124376184Y-131229000D01*
X124543816Y-131229000D01*
X124708228Y-131261703D01*
G37*
G36*
X96201000Y-130491000D02*
G01*
X94299000Y-130491000D01*
X94299000Y-128589000D01*
X96201000Y-128589000D01*
X96201000Y-130491000D01*
G37*
G36*
X136841000Y-130491000D02*
G01*
X134939000Y-130491000D01*
X134939000Y-128589000D01*
X136841000Y-128589000D01*
X136841000Y-130491000D01*
G37*
G36*
X138707395Y-128625546D02*
G01*
X138880466Y-128697234D01*
X138880467Y-128697235D01*
X139036227Y-128801310D01*
X139168690Y-128933773D01*
X139168691Y-128933775D01*
X139272766Y-129089534D01*
X139344454Y-129262605D01*
X139381000Y-129446333D01*
X139381000Y-129633667D01*
X139344454Y-129817395D01*
X139272766Y-129990466D01*
X139272765Y-129990467D01*
X139168690Y-130146227D01*
X139036227Y-130278690D01*
X138957818Y-130331081D01*
X138880466Y-130382766D01*
X138707395Y-130454454D01*
X138523667Y-130491000D01*
X138336333Y-130491000D01*
X138152605Y-130454454D01*
X137979534Y-130382766D01*
X137902182Y-130331081D01*
X137823773Y-130278690D01*
X137691310Y-130146227D01*
X137587235Y-129990467D01*
X137587234Y-129990466D01*
X137515546Y-129817395D01*
X137479000Y-129633667D01*
X137479000Y-129446333D01*
X137515546Y-129262605D01*
X137587234Y-129089534D01*
X137691309Y-128933775D01*
X137691310Y-128933773D01*
X137823773Y-128801310D01*
X137979533Y-128697235D01*
X137979534Y-128697234D01*
X138152605Y-128625546D01*
X138336333Y-128589000D01*
X138523667Y-128589000D01*
X138707395Y-128625546D01*
G37*
G36*
X144461000Y-130491000D02*
G01*
X142559000Y-130491000D01*
X142559000Y-128589000D01*
X144461000Y-128589000D01*
X144461000Y-130491000D01*
G37*
G36*
X146327395Y-128625546D02*
G01*
X146500466Y-128697234D01*
X146500467Y-128697235D01*
X146656227Y-128801310D01*
X146788690Y-128933773D01*
X146788691Y-128933775D01*
X146892766Y-129089534D01*
X146964454Y-129262605D01*
X147001000Y-129446333D01*
X147001000Y-129633667D01*
X146964454Y-129817395D01*
X146892766Y-129990466D01*
X146892765Y-129990467D01*
X146788690Y-130146227D01*
X146656227Y-130278690D01*
X146577818Y-130331081D01*
X146500466Y-130382766D01*
X146327395Y-130454454D01*
X146143667Y-130491000D01*
X145956333Y-130491000D01*
X145772605Y-130454454D01*
X145599534Y-130382766D01*
X145522182Y-130331081D01*
X145443773Y-130278690D01*
X145311310Y-130146227D01*
X145207235Y-129990467D01*
X145207234Y-129990466D01*
X145135546Y-129817395D01*
X145099000Y-129633667D01*
X145099000Y-129446333D01*
X145135546Y-129262605D01*
X145207234Y-129089534D01*
X145311309Y-128933775D01*
X145311310Y-128933773D01*
X145443773Y-128801310D01*
X145599533Y-128697235D01*
X145599534Y-128697234D01*
X145772605Y-128625546D01*
X145956333Y-128589000D01*
X146143667Y-128589000D01*
X146327395Y-128625546D01*
G37*
G36*
X105687395Y-128625546D02*
G01*
X105860466Y-128697234D01*
X105860467Y-128697235D01*
X106016227Y-128801310D01*
X106148690Y-128933773D01*
X106148691Y-128933775D01*
X106252766Y-129089534D01*
X106324454Y-129262605D01*
X106361000Y-129446333D01*
X106361000Y-129633667D01*
X106324454Y-129817395D01*
X106252766Y-129990466D01*
X106252765Y-129990467D01*
X106148690Y-130146227D01*
X106016227Y-130278690D01*
X105937818Y-130331081D01*
X105860466Y-130382766D01*
X105687395Y-130454454D01*
X105503667Y-130491000D01*
X105316333Y-130491000D01*
X105132605Y-130454454D01*
X104959534Y-130382766D01*
X104882182Y-130331081D01*
X104803773Y-130278690D01*
X104671310Y-130146227D01*
X104567235Y-129990467D01*
X104567234Y-129990466D01*
X104495546Y-129817395D01*
X104459000Y-129633667D01*
X104459000Y-129446333D01*
X104495546Y-129262605D01*
X104567234Y-129089534D01*
X104671309Y-128933775D01*
X104671310Y-128933773D01*
X104803773Y-128801310D01*
X104959533Y-128697235D01*
X104959534Y-128697234D01*
X105132605Y-128625546D01*
X105316333Y-128589000D01*
X105503667Y-128589000D01*
X105687395Y-128625546D01*
G37*
G36*
X98067395Y-128625546D02*
G01*
X98240466Y-128697234D01*
X98240467Y-128697235D01*
X98396227Y-128801310D01*
X98528690Y-128933773D01*
X98528691Y-128933775D01*
X98632766Y-129089534D01*
X98704454Y-129262605D01*
X98741000Y-129446333D01*
X98741000Y-129633667D01*
X98704454Y-129817395D01*
X98632766Y-129990466D01*
X98632765Y-129990467D01*
X98528690Y-130146227D01*
X98396227Y-130278690D01*
X98317818Y-130331081D01*
X98240466Y-130382766D01*
X98067395Y-130454454D01*
X97883667Y-130491000D01*
X97696333Y-130491000D01*
X97512605Y-130454454D01*
X97339534Y-130382766D01*
X97262182Y-130331081D01*
X97183773Y-130278690D01*
X97051310Y-130146227D01*
X96947235Y-129990467D01*
X96947234Y-129990466D01*
X96875546Y-129817395D01*
X96839000Y-129633667D01*
X96839000Y-129446333D01*
X96875546Y-129262605D01*
X96947234Y-129089534D01*
X97051309Y-128933775D01*
X97051310Y-128933773D01*
X97183773Y-128801310D01*
X97339533Y-128697235D01*
X97339534Y-128697234D01*
X97512605Y-128625546D01*
X97696333Y-128589000D01*
X97883667Y-128589000D01*
X98067395Y-128625546D01*
G37*
G36*
X103821000Y-130491000D02*
G01*
X101919000Y-130491000D01*
X101919000Y-128589000D01*
X103821000Y-128589000D01*
X103821000Y-130491000D01*
G37*
G36*
X170293512Y-128643927D02*
G01*
X170442812Y-128673624D01*
X170606784Y-128741544D01*
X170754354Y-128840147D01*
X170879853Y-128965646D01*
X170978456Y-129113216D01*
X171046376Y-129277188D01*
X171081000Y-129451259D01*
X171081000Y-129628741D01*
X171046376Y-129802812D01*
X170978456Y-129966784D01*
X170879853Y-130114354D01*
X170754354Y-130239853D01*
X170606784Y-130338456D01*
X170442812Y-130406376D01*
X170293512Y-130436073D01*
X170268742Y-130441000D01*
X170091258Y-130441000D01*
X170066488Y-130436073D01*
X169917188Y-130406376D01*
X169753216Y-130338456D01*
X169605646Y-130239853D01*
X169480147Y-130114354D01*
X169381544Y-129966784D01*
X169313624Y-129802812D01*
X169279000Y-129628741D01*
X169279000Y-129451259D01*
X169313624Y-129277188D01*
X169381544Y-129113216D01*
X169480147Y-128965646D01*
X169605646Y-128840147D01*
X169753216Y-128741544D01*
X169917188Y-128673624D01*
X170066488Y-128643927D01*
X170091258Y-128639000D01*
X170268742Y-128639000D01*
X170293512Y-128643927D01*
G37*
G36*
X83933512Y-128643927D02*
G01*
X84082812Y-128673624D01*
X84246784Y-128741544D01*
X84394354Y-128840147D01*
X84519853Y-128965646D01*
X84618456Y-129113216D01*
X84686376Y-129277188D01*
X84721000Y-129451259D01*
X84721000Y-129628741D01*
X84686376Y-129802812D01*
X84618456Y-129966784D01*
X84519853Y-130114354D01*
X84394354Y-130239853D01*
X84246784Y-130338456D01*
X84082812Y-130406376D01*
X83933512Y-130436073D01*
X83908742Y-130441000D01*
X83731258Y-130441000D01*
X83706488Y-130436073D01*
X83557188Y-130406376D01*
X83393216Y-130338456D01*
X83245646Y-130239853D01*
X83120147Y-130114354D01*
X83021544Y-129966784D01*
X82953624Y-129802812D01*
X82919000Y-129628741D01*
X82919000Y-129451259D01*
X82953624Y-129277188D01*
X83021544Y-129113216D01*
X83120147Y-128965646D01*
X83245646Y-128840147D01*
X83393216Y-128741544D01*
X83557188Y-128673624D01*
X83706488Y-128643927D01*
X83731258Y-128639000D01*
X83908742Y-128639000D01*
X83933512Y-128643927D01*
G37*
G36*
X153351000Y-127951000D02*
G01*
X151449000Y-127951000D01*
X151449000Y-126049000D01*
X153351000Y-126049000D01*
X153351000Y-127951000D01*
G37*
G36*
X89851000Y-127951000D02*
G01*
X87949000Y-127951000D01*
X87949000Y-126049000D01*
X89851000Y-126049000D01*
X89851000Y-127951000D01*
G37*
G36*
X130491000Y-127951000D02*
G01*
X128589000Y-127951000D01*
X128589000Y-126049000D01*
X130491000Y-126049000D01*
X130491000Y-127951000D01*
G37*
G36*
X155217395Y-126085546D02*
G01*
X155390466Y-126157234D01*
X155390467Y-126157235D01*
X155546227Y-126261310D01*
X155678690Y-126393773D01*
X155678691Y-126393775D01*
X155782766Y-126549534D01*
X155854454Y-126722605D01*
X155891000Y-126906333D01*
X155891000Y-127093667D01*
X155854454Y-127277395D01*
X155782766Y-127450466D01*
X155731081Y-127527818D01*
X155678690Y-127606227D01*
X155546227Y-127738690D01*
X155542747Y-127741015D01*
X155390466Y-127842766D01*
X155217395Y-127914454D01*
X155033667Y-127951000D01*
X154846333Y-127951000D01*
X154662605Y-127914454D01*
X154489534Y-127842766D01*
X154337253Y-127741015D01*
X154333773Y-127738690D01*
X154201310Y-127606227D01*
X154148919Y-127527818D01*
X154097234Y-127450466D01*
X154025546Y-127277395D01*
X153989000Y-127093667D01*
X153989000Y-126906333D01*
X154025546Y-126722605D01*
X154097234Y-126549534D01*
X154201309Y-126393775D01*
X154201310Y-126393773D01*
X154333773Y-126261310D01*
X154489533Y-126157235D01*
X154489534Y-126157234D01*
X154662605Y-126085546D01*
X154846333Y-126049000D01*
X155033667Y-126049000D01*
X155217395Y-126085546D01*
G37*
G36*
X91717395Y-126085546D02*
G01*
X91890466Y-126157234D01*
X91890467Y-126157235D01*
X92046227Y-126261310D01*
X92178690Y-126393773D01*
X92178691Y-126393775D01*
X92282766Y-126549534D01*
X92354454Y-126722605D01*
X92391000Y-126906333D01*
X92391000Y-127093667D01*
X92354454Y-127277395D01*
X92282766Y-127450466D01*
X92231081Y-127527818D01*
X92178690Y-127606227D01*
X92046227Y-127738690D01*
X92042747Y-127741015D01*
X91890466Y-127842766D01*
X91717395Y-127914454D01*
X91533667Y-127951000D01*
X91346333Y-127951000D01*
X91162605Y-127914454D01*
X90989534Y-127842766D01*
X90837253Y-127741015D01*
X90833773Y-127738690D01*
X90701310Y-127606227D01*
X90648919Y-127527818D01*
X90597234Y-127450466D01*
X90525546Y-127277395D01*
X90489000Y-127093667D01*
X90489000Y-126906333D01*
X90525546Y-126722605D01*
X90597234Y-126549534D01*
X90701309Y-126393775D01*
X90701310Y-126393773D01*
X90833773Y-126261310D01*
X90989533Y-126157235D01*
X90989534Y-126157234D01*
X91162605Y-126085546D01*
X91346333Y-126049000D01*
X91533667Y-126049000D01*
X91717395Y-126085546D01*
G37*
G36*
X112711000Y-127951000D02*
G01*
X110809000Y-127951000D01*
X110809000Y-126049000D01*
X112711000Y-126049000D01*
X112711000Y-127951000D01*
G37*
G36*
X114577395Y-126085546D02*
G01*
X114750466Y-126157234D01*
X114750467Y-126157235D01*
X114906227Y-126261310D01*
X115038690Y-126393773D01*
X115038691Y-126393775D01*
X115142766Y-126549534D01*
X115214454Y-126722605D01*
X115251000Y-126906333D01*
X115251000Y-127093667D01*
X115214454Y-127277395D01*
X115142766Y-127450466D01*
X115091081Y-127527818D01*
X115038690Y-127606227D01*
X114906227Y-127738690D01*
X114902747Y-127741015D01*
X114750466Y-127842766D01*
X114577395Y-127914454D01*
X114393667Y-127951000D01*
X114206333Y-127951000D01*
X114022605Y-127914454D01*
X113849534Y-127842766D01*
X113697253Y-127741015D01*
X113693773Y-127738690D01*
X113561310Y-127606227D01*
X113508919Y-127527818D01*
X113457234Y-127450466D01*
X113385546Y-127277395D01*
X113349000Y-127093667D01*
X113349000Y-126906333D01*
X113385546Y-126722605D01*
X113457234Y-126549534D01*
X113561309Y-126393775D01*
X113561310Y-126393773D01*
X113693773Y-126261310D01*
X113849533Y-126157235D01*
X113849534Y-126157234D01*
X114022605Y-126085546D01*
X114206333Y-126049000D01*
X114393667Y-126049000D01*
X114577395Y-126085546D01*
G37*
G36*
X132357395Y-126085546D02*
G01*
X132530466Y-126157234D01*
X132530467Y-126157235D01*
X132686227Y-126261310D01*
X132818690Y-126393773D01*
X132818691Y-126393775D01*
X132922766Y-126549534D01*
X132994454Y-126722605D01*
X133031000Y-126906333D01*
X133031000Y-127093667D01*
X132994454Y-127277395D01*
X132922766Y-127450466D01*
X132871081Y-127527818D01*
X132818690Y-127606227D01*
X132686227Y-127738690D01*
X132682747Y-127741015D01*
X132530466Y-127842766D01*
X132357395Y-127914454D01*
X132173667Y-127951000D01*
X131986333Y-127951000D01*
X131802605Y-127914454D01*
X131629534Y-127842766D01*
X131477253Y-127741015D01*
X131473773Y-127738690D01*
X131341310Y-127606227D01*
X131288919Y-127527818D01*
X131237234Y-127450466D01*
X131165546Y-127277395D01*
X131129000Y-127093667D01*
X131129000Y-126906333D01*
X131165546Y-126722605D01*
X131237234Y-126549534D01*
X131341309Y-126393775D01*
X131341310Y-126393773D01*
X131473773Y-126261310D01*
X131629533Y-126157235D01*
X131629534Y-126157234D01*
X131802605Y-126085546D01*
X131986333Y-126049000D01*
X132173667Y-126049000D01*
X132357395Y-126085546D01*
G37*
G36*
X124708228Y-126261703D02*
G01*
X124863100Y-126325853D01*
X125002481Y-126418985D01*
X125121015Y-126537519D01*
X125214147Y-126676900D01*
X125278297Y-126831772D01*
X125311000Y-126996184D01*
X125311000Y-127163816D01*
X125278297Y-127328228D01*
X125214147Y-127483100D01*
X125121015Y-127622481D01*
X125002481Y-127741015D01*
X124863100Y-127834147D01*
X124708228Y-127898297D01*
X124543816Y-127931000D01*
X124376184Y-127931000D01*
X124211772Y-127898297D01*
X124056900Y-127834147D01*
X123917519Y-127741015D01*
X123798985Y-127622481D01*
X123705853Y-127483100D01*
X123641703Y-127328228D01*
X123609000Y-127163816D01*
X123609000Y-126996184D01*
X123641703Y-126831772D01*
X123705853Y-126676900D01*
X123798985Y-126537519D01*
X123917519Y-126418985D01*
X124056900Y-126325853D01*
X124211772Y-126261703D01*
X124376184Y-126229000D01*
X124543816Y-126229000D01*
X124708228Y-126261703D01*
G37*
G36*
X170293512Y-126103927D02*
G01*
X170442812Y-126133624D01*
X170606784Y-126201544D01*
X170754354Y-126300147D01*
X170879853Y-126425646D01*
X170978456Y-126573216D01*
X171046376Y-126737188D01*
X171081000Y-126911259D01*
X171081000Y-127088741D01*
X171046376Y-127262812D01*
X170978456Y-127426784D01*
X170879853Y-127574354D01*
X170754354Y-127699853D01*
X170606784Y-127798456D01*
X170442812Y-127866376D01*
X170293512Y-127896073D01*
X170268742Y-127901000D01*
X170091258Y-127901000D01*
X170066488Y-127896073D01*
X169917188Y-127866376D01*
X169753216Y-127798456D01*
X169605646Y-127699853D01*
X169480147Y-127574354D01*
X169381544Y-127426784D01*
X169313624Y-127262812D01*
X169279000Y-127088741D01*
X169279000Y-126911259D01*
X169313624Y-126737188D01*
X169381544Y-126573216D01*
X169480147Y-126425646D01*
X169605646Y-126300147D01*
X169753216Y-126201544D01*
X169917188Y-126133624D01*
X170066488Y-126103927D01*
X170091258Y-126099000D01*
X170268742Y-126099000D01*
X170293512Y-126103927D01*
G37*
G36*
X83933512Y-126103927D02*
G01*
X84082812Y-126133624D01*
X84246784Y-126201544D01*
X84394354Y-126300147D01*
X84519853Y-126425646D01*
X84618456Y-126573216D01*
X84686376Y-126737188D01*
X84721000Y-126911259D01*
X84721000Y-127088741D01*
X84686376Y-127262812D01*
X84618456Y-127426784D01*
X84519853Y-127574354D01*
X84394354Y-127699853D01*
X84246784Y-127798456D01*
X84082812Y-127866376D01*
X83933512Y-127896073D01*
X83908742Y-127901000D01*
X83731258Y-127901000D01*
X83706488Y-127896073D01*
X83557188Y-127866376D01*
X83393216Y-127798456D01*
X83245646Y-127699853D01*
X83120147Y-127574354D01*
X83021544Y-127426784D01*
X82953624Y-127262812D01*
X82919000Y-127088741D01*
X82919000Y-126911259D01*
X82953624Y-126737188D01*
X83021544Y-126573216D01*
X83120147Y-126425646D01*
X83245646Y-126300147D01*
X83393216Y-126201544D01*
X83557188Y-126133624D01*
X83706488Y-126103927D01*
X83731258Y-126099000D01*
X83908742Y-126099000D01*
X83933512Y-126103927D01*
G37*
G36*
X170293512Y-123563927D02*
G01*
X170442812Y-123593624D01*
X170606784Y-123661544D01*
X170754354Y-123760147D01*
X170879853Y-123885646D01*
X170978456Y-124033216D01*
X171046376Y-124197188D01*
X171081000Y-124371259D01*
X171081000Y-124548741D01*
X171046376Y-124722812D01*
X170978456Y-124886784D01*
X170879853Y-125034354D01*
X170754354Y-125159853D01*
X170606784Y-125258456D01*
X170442812Y-125326376D01*
X170293512Y-125356073D01*
X170268742Y-125361000D01*
X170091258Y-125361000D01*
X170066488Y-125356073D01*
X169917188Y-125326376D01*
X169753216Y-125258456D01*
X169605646Y-125159853D01*
X169480147Y-125034354D01*
X169381544Y-124886784D01*
X169313624Y-124722812D01*
X169279000Y-124548741D01*
X169279000Y-124371259D01*
X169313624Y-124197188D01*
X169381544Y-124033216D01*
X169480147Y-123885646D01*
X169605646Y-123760147D01*
X169753216Y-123661544D01*
X169917188Y-123593624D01*
X170066488Y-123563927D01*
X170091258Y-123559000D01*
X170268742Y-123559000D01*
X170293512Y-123563927D01*
G37*
G36*
X83933512Y-123563927D02*
G01*
X84082812Y-123593624D01*
X84246784Y-123661544D01*
X84394354Y-123760147D01*
X84519853Y-123885646D01*
X84618456Y-124033216D01*
X84686376Y-124197188D01*
X84721000Y-124371259D01*
X84721000Y-124548741D01*
X84686376Y-124722812D01*
X84618456Y-124886784D01*
X84519853Y-125034354D01*
X84394354Y-125159853D01*
X84246784Y-125258456D01*
X84082812Y-125326376D01*
X83933512Y-125356073D01*
X83908742Y-125361000D01*
X83731258Y-125361000D01*
X83706488Y-125356073D01*
X83557188Y-125326376D01*
X83393216Y-125258456D01*
X83245646Y-125159853D01*
X83120147Y-125034354D01*
X83021544Y-124886784D01*
X82953624Y-124722812D01*
X82919000Y-124548741D01*
X82919000Y-124371259D01*
X82953624Y-124197188D01*
X83021544Y-124033216D01*
X83120147Y-123885646D01*
X83245646Y-123760147D01*
X83393216Y-123661544D01*
X83557188Y-123593624D01*
X83706488Y-123563927D01*
X83731258Y-123559000D01*
X83908742Y-123559000D01*
X83933512Y-123563927D01*
G37*
G36*
X88581000Y-122871000D02*
G01*
X86679000Y-122871000D01*
X86679000Y-120969000D01*
X88581000Y-120969000D01*
X88581000Y-122871000D01*
G37*
G36*
X160971000Y-122871000D02*
G01*
X159069000Y-122871000D01*
X159069000Y-120969000D01*
X160971000Y-120969000D01*
X160971000Y-122871000D01*
G37*
G36*
X129221000Y-122871000D02*
G01*
X127319000Y-122871000D01*
X127319000Y-120969000D01*
X129221000Y-120969000D01*
X129221000Y-122871000D01*
G37*
G36*
X120331000Y-122871000D02*
G01*
X118429000Y-122871000D01*
X118429000Y-120969000D01*
X120331000Y-120969000D01*
X120331000Y-122871000D01*
G37*
G36*
X83933512Y-121023927D02*
G01*
X84082812Y-121053624D01*
X84246784Y-121121544D01*
X84394354Y-121220147D01*
X84519853Y-121345646D01*
X84618456Y-121493216D01*
X84686376Y-121657188D01*
X84721000Y-121831259D01*
X84721000Y-122008741D01*
X84686376Y-122182812D01*
X84618456Y-122346784D01*
X84519853Y-122494354D01*
X84394354Y-122619853D01*
X84246784Y-122718456D01*
X84082812Y-122786376D01*
X83933512Y-122816073D01*
X83908742Y-122821000D01*
X83731258Y-122821000D01*
X83706488Y-122816073D01*
X83557188Y-122786376D01*
X83393216Y-122718456D01*
X83245646Y-122619853D01*
X83120147Y-122494354D01*
X83021544Y-122346784D01*
X82953624Y-122182812D01*
X82919000Y-122008741D01*
X82919000Y-121831259D01*
X82953624Y-121657188D01*
X83021544Y-121493216D01*
X83120147Y-121345646D01*
X83245646Y-121220147D01*
X83393216Y-121121544D01*
X83557188Y-121053624D01*
X83706488Y-121023927D01*
X83731258Y-121019000D01*
X83908742Y-121019000D01*
X83933512Y-121023927D01*
G37*
G36*
X170293512Y-121023927D02*
G01*
X170442812Y-121053624D01*
X170606784Y-121121544D01*
X170754354Y-121220147D01*
X170879853Y-121345646D01*
X170978456Y-121493216D01*
X171046376Y-121657188D01*
X171081000Y-121831259D01*
X171081000Y-122008741D01*
X171046376Y-122182812D01*
X170978456Y-122346784D01*
X170879853Y-122494354D01*
X170754354Y-122619853D01*
X170606784Y-122718456D01*
X170442812Y-122786376D01*
X170293512Y-122816073D01*
X170268742Y-122821000D01*
X170091258Y-122821000D01*
X170066488Y-122816073D01*
X169917188Y-122786376D01*
X169753216Y-122718456D01*
X169605646Y-122619853D01*
X169480147Y-122494354D01*
X169381544Y-122346784D01*
X169313624Y-122182812D01*
X169279000Y-122008741D01*
X169279000Y-121831259D01*
X169313624Y-121657188D01*
X169381544Y-121493216D01*
X169480147Y-121345646D01*
X169605646Y-121220147D01*
X169753216Y-121121544D01*
X169917188Y-121053624D01*
X170066488Y-121023927D01*
X170091258Y-121019000D01*
X170268742Y-121019000D01*
X170293512Y-121023927D01*
G37*
G36*
X104911000Y-120781000D02*
G01*
X103909000Y-120781000D01*
X103909000Y-119879000D01*
X104911000Y-119879000D01*
X104911000Y-120781000D01*
G37*
G36*
X147551000Y-120781000D02*
G01*
X146549000Y-120781000D01*
X146549000Y-119879000D01*
X147551000Y-119879000D01*
X147551000Y-120781000D01*
G37*
G36*
X119657395Y-118465546D02*
G01*
X119830466Y-118537234D01*
X119830467Y-118537235D01*
X119986227Y-118641310D01*
X120118690Y-118773773D01*
X120161284Y-118837520D01*
X120222766Y-118929534D01*
X120294454Y-119102605D01*
X120331000Y-119286333D01*
X120331000Y-119473667D01*
X120294454Y-119657395D01*
X120222766Y-119830466D01*
X120171081Y-119907818D01*
X120118690Y-119986227D01*
X119986227Y-120118690D01*
X119963092Y-120134148D01*
X119830466Y-120222766D01*
X119657395Y-120294454D01*
X119473667Y-120331000D01*
X119286333Y-120331000D01*
X119102605Y-120294454D01*
X118929534Y-120222766D01*
X118796908Y-120134148D01*
X118773773Y-120118690D01*
X118641310Y-119986227D01*
X118588919Y-119907818D01*
X118537234Y-119830466D01*
X118465546Y-119657395D01*
X118429000Y-119473667D01*
X118429000Y-119286333D01*
X118465546Y-119102605D01*
X118537234Y-118929534D01*
X118598716Y-118837520D01*
X118641310Y-118773773D01*
X118773773Y-118641310D01*
X118929533Y-118537235D01*
X118929534Y-118537234D01*
X119102605Y-118465546D01*
X119286333Y-118429000D01*
X119473667Y-118429000D01*
X119657395Y-118465546D01*
G37*
G36*
X128547395Y-118465546D02*
G01*
X128720466Y-118537234D01*
X128720467Y-118537235D01*
X128876227Y-118641310D01*
X129008690Y-118773773D01*
X129051284Y-118837520D01*
X129112766Y-118929534D01*
X129184454Y-119102605D01*
X129221000Y-119286333D01*
X129221000Y-119473667D01*
X129184454Y-119657395D01*
X129112766Y-119830466D01*
X129061081Y-119907818D01*
X129008690Y-119986227D01*
X128876227Y-120118690D01*
X128853092Y-120134148D01*
X128720466Y-120222766D01*
X128547395Y-120294454D01*
X128363667Y-120331000D01*
X128176333Y-120331000D01*
X127992605Y-120294454D01*
X127819534Y-120222766D01*
X127686908Y-120134148D01*
X127663773Y-120118690D01*
X127531310Y-119986227D01*
X127478919Y-119907818D01*
X127427234Y-119830466D01*
X127355546Y-119657395D01*
X127319000Y-119473667D01*
X127319000Y-119286333D01*
X127355546Y-119102605D01*
X127427234Y-118929534D01*
X127488716Y-118837520D01*
X127531310Y-118773773D01*
X127663773Y-118641310D01*
X127819533Y-118537235D01*
X127819534Y-118537234D01*
X127992605Y-118465546D01*
X128176333Y-118429000D01*
X128363667Y-118429000D01*
X128547395Y-118465546D01*
G37*
G36*
X87907395Y-118465546D02*
G01*
X88080466Y-118537234D01*
X88080467Y-118537235D01*
X88236227Y-118641310D01*
X88368690Y-118773773D01*
X88411284Y-118837520D01*
X88472766Y-118929534D01*
X88544454Y-119102605D01*
X88581000Y-119286333D01*
X88581000Y-119473667D01*
X88544454Y-119657395D01*
X88472766Y-119830466D01*
X88421081Y-119907818D01*
X88368690Y-119986227D01*
X88236227Y-120118690D01*
X88213092Y-120134148D01*
X88080466Y-120222766D01*
X87907395Y-120294454D01*
X87723667Y-120331000D01*
X87536333Y-120331000D01*
X87352605Y-120294454D01*
X87179534Y-120222766D01*
X87046908Y-120134148D01*
X87023773Y-120118690D01*
X86891310Y-119986227D01*
X86838919Y-119907818D01*
X86787234Y-119830466D01*
X86715546Y-119657395D01*
X86679000Y-119473667D01*
X86679000Y-119286333D01*
X86715546Y-119102605D01*
X86787234Y-118929534D01*
X86848716Y-118837520D01*
X86891310Y-118773773D01*
X87023773Y-118641310D01*
X87179533Y-118537235D01*
X87179534Y-118537234D01*
X87352605Y-118465546D01*
X87536333Y-118429000D01*
X87723667Y-118429000D01*
X87907395Y-118465546D01*
G37*
G36*
X160297395Y-118465546D02*
G01*
X160470466Y-118537234D01*
X160470467Y-118537235D01*
X160626227Y-118641310D01*
X160758690Y-118773773D01*
X160801284Y-118837520D01*
X160862766Y-118929534D01*
X160934454Y-119102605D01*
X160971000Y-119286333D01*
X160971000Y-119473667D01*
X160934454Y-119657395D01*
X160862766Y-119830466D01*
X160811081Y-119907818D01*
X160758690Y-119986227D01*
X160626227Y-120118690D01*
X160603092Y-120134148D01*
X160470466Y-120222766D01*
X160297395Y-120294454D01*
X160113667Y-120331000D01*
X159926333Y-120331000D01*
X159742605Y-120294454D01*
X159569534Y-120222766D01*
X159436908Y-120134148D01*
X159413773Y-120118690D01*
X159281310Y-119986227D01*
X159228919Y-119907818D01*
X159177234Y-119830466D01*
X159105546Y-119657395D01*
X159069000Y-119473667D01*
X159069000Y-119286333D01*
X159105546Y-119102605D01*
X159177234Y-118929534D01*
X159238716Y-118837520D01*
X159281310Y-118773773D01*
X159413773Y-118641310D01*
X159569533Y-118537235D01*
X159569534Y-118537234D01*
X159742605Y-118465546D01*
X159926333Y-118429000D01*
X160113667Y-118429000D01*
X160297395Y-118465546D01*
G37*
G36*
X170293512Y-118483927D02*
G01*
X170442812Y-118513624D01*
X170606784Y-118581544D01*
X170754354Y-118680147D01*
X170879853Y-118805646D01*
X170978456Y-118953216D01*
X171046376Y-119117188D01*
X171081000Y-119291259D01*
X171081000Y-119468741D01*
X171046376Y-119642812D01*
X170978456Y-119806784D01*
X170879853Y-119954354D01*
X170754354Y-120079853D01*
X170606784Y-120178456D01*
X170442812Y-120246376D01*
X170293512Y-120276073D01*
X170268742Y-120281000D01*
X170091258Y-120281000D01*
X170066488Y-120276073D01*
X169917188Y-120246376D01*
X169753216Y-120178456D01*
X169605646Y-120079853D01*
X169480147Y-119954354D01*
X169381544Y-119806784D01*
X169313624Y-119642812D01*
X169279000Y-119468741D01*
X169279000Y-119291259D01*
X169313624Y-119117188D01*
X169381544Y-118953216D01*
X169480147Y-118805646D01*
X169605646Y-118680147D01*
X169753216Y-118581544D01*
X169917188Y-118513624D01*
X170066488Y-118483927D01*
X170091258Y-118479000D01*
X170268742Y-118479000D01*
X170293512Y-118483927D01*
G37*
G36*
X83933512Y-118483927D02*
G01*
X84082812Y-118513624D01*
X84246784Y-118581544D01*
X84394354Y-118680147D01*
X84519853Y-118805646D01*
X84618456Y-118953216D01*
X84686376Y-119117188D01*
X84721000Y-119291259D01*
X84721000Y-119468741D01*
X84686376Y-119642812D01*
X84618456Y-119806784D01*
X84519853Y-119954354D01*
X84394354Y-120079853D01*
X84246784Y-120178456D01*
X84082812Y-120246376D01*
X83933512Y-120276073D01*
X83908742Y-120281000D01*
X83731258Y-120281000D01*
X83706488Y-120276073D01*
X83557188Y-120246376D01*
X83393216Y-120178456D01*
X83245646Y-120079853D01*
X83120147Y-119954354D01*
X83021544Y-119806784D01*
X82953624Y-119642812D01*
X82919000Y-119468741D01*
X82919000Y-119291259D01*
X82953624Y-119117188D01*
X83021544Y-118953216D01*
X83120147Y-118805646D01*
X83245646Y-118680147D01*
X83393216Y-118581544D01*
X83557188Y-118513624D01*
X83706488Y-118483927D01*
X83731258Y-118479000D01*
X83908742Y-118479000D01*
X83933512Y-118483927D01*
G37*
G36*
X99308228Y-118561703D02*
G01*
X99463100Y-118625853D01*
X99602481Y-118718985D01*
X99721015Y-118837519D01*
X99814147Y-118976900D01*
X99878297Y-119131772D01*
X99911000Y-119296184D01*
X99911000Y-119463816D01*
X99878297Y-119628228D01*
X99814147Y-119783100D01*
X99721015Y-119922481D01*
X99602481Y-120041015D01*
X99463100Y-120134147D01*
X99308228Y-120198297D01*
X99143816Y-120231000D01*
X98976184Y-120231000D01*
X98811772Y-120198297D01*
X98656900Y-120134147D01*
X98517519Y-120041015D01*
X98398985Y-119922481D01*
X98305853Y-119783100D01*
X98241703Y-119628228D01*
X98209000Y-119463816D01*
X98209000Y-119296184D01*
X98241703Y-119131772D01*
X98305853Y-118976900D01*
X98398985Y-118837519D01*
X98517519Y-118718985D01*
X98656900Y-118625853D01*
X98811772Y-118561703D01*
X98976184Y-118529000D01*
X99143816Y-118529000D01*
X99308228Y-118561703D01*
G37*
G36*
X112008228Y-118561703D02*
G01*
X112163100Y-118625853D01*
X112302481Y-118718985D01*
X112421015Y-118837519D01*
X112514147Y-118976900D01*
X112578297Y-119131772D01*
X112611000Y-119296184D01*
X112611000Y-119463816D01*
X112578297Y-119628228D01*
X112514147Y-119783100D01*
X112421015Y-119922481D01*
X112302481Y-120041015D01*
X112163100Y-120134147D01*
X112008228Y-120198297D01*
X111843816Y-120231000D01*
X111676184Y-120231000D01*
X111511772Y-120198297D01*
X111356900Y-120134147D01*
X111217519Y-120041015D01*
X111098985Y-119922481D01*
X111005853Y-119783100D01*
X110941703Y-119628228D01*
X110909000Y-119463816D01*
X110909000Y-119296184D01*
X110941703Y-119131772D01*
X111005853Y-118976900D01*
X111098985Y-118837519D01*
X111217519Y-118718985D01*
X111356900Y-118625853D01*
X111511772Y-118561703D01*
X111676184Y-118529000D01*
X111843816Y-118529000D01*
X112008228Y-118561703D01*
G37*
G36*
X139948228Y-118561703D02*
G01*
X140103100Y-118625853D01*
X140242481Y-118718985D01*
X140361015Y-118837519D01*
X140454147Y-118976900D01*
X140518297Y-119131772D01*
X140551000Y-119296184D01*
X140551000Y-119463816D01*
X140518297Y-119628228D01*
X140454147Y-119783100D01*
X140361015Y-119922481D01*
X140242481Y-120041015D01*
X140103100Y-120134147D01*
X139948228Y-120198297D01*
X139783816Y-120231000D01*
X139616184Y-120231000D01*
X139451772Y-120198297D01*
X139296900Y-120134147D01*
X139157519Y-120041015D01*
X139038985Y-119922481D01*
X138945853Y-119783100D01*
X138881703Y-119628228D01*
X138849000Y-119463816D01*
X138849000Y-119296184D01*
X138881703Y-119131772D01*
X138945853Y-118976900D01*
X139038985Y-118837519D01*
X139157519Y-118718985D01*
X139296900Y-118625853D01*
X139451772Y-118561703D01*
X139616184Y-118529000D01*
X139783816Y-118529000D01*
X139948228Y-118561703D01*
G37*
G36*
X152648228Y-118561703D02*
G01*
X152803100Y-118625853D01*
X152942481Y-118718985D01*
X153061015Y-118837519D01*
X153154147Y-118976900D01*
X153218297Y-119131772D01*
X153251000Y-119296184D01*
X153251000Y-119463816D01*
X153218297Y-119628228D01*
X153154147Y-119783100D01*
X153061015Y-119922481D01*
X152942481Y-120041015D01*
X152803100Y-120134147D01*
X152648228Y-120198297D01*
X152483816Y-120231000D01*
X152316184Y-120231000D01*
X152151772Y-120198297D01*
X151996900Y-120134147D01*
X151857519Y-120041015D01*
X151738985Y-119922481D01*
X151645853Y-119783100D01*
X151581703Y-119628228D01*
X151549000Y-119463816D01*
X151549000Y-119296184D01*
X151581703Y-119131772D01*
X151645853Y-118976900D01*
X151738985Y-118837519D01*
X151857519Y-118718985D01*
X151996900Y-118625853D01*
X152151772Y-118561703D01*
X152316184Y-118529000D01*
X152483816Y-118529000D01*
X152648228Y-118561703D01*
G37*
G36*
X106911000Y-119831000D02*
G01*
X105909000Y-119831000D01*
X105909000Y-118929000D01*
X106911000Y-118929000D01*
X106911000Y-119831000D01*
G37*
G36*
X145551000Y-119831000D02*
G01*
X144549000Y-119831000D01*
X144549000Y-118929000D01*
X145551000Y-118929000D01*
X145551000Y-119831000D01*
G37*
G36*
X147551000Y-118881000D02*
G01*
X146549000Y-118881000D01*
X146549000Y-117979000D01*
X147551000Y-117979000D01*
X147551000Y-118881000D01*
G37*
G36*
X104911000Y-118881000D02*
G01*
X103909000Y-118881000D01*
X103909000Y-117979000D01*
X104911000Y-117979000D01*
X104911000Y-118881000D01*
G37*
G36*
X170293512Y-115943927D02*
G01*
X170442812Y-115973624D01*
X170606784Y-116041544D01*
X170754354Y-116140147D01*
X170879853Y-116265646D01*
X170978456Y-116413216D01*
X171046376Y-116577188D01*
X171081000Y-116751259D01*
X171081000Y-116928741D01*
X171046376Y-117102812D01*
X170978456Y-117266784D01*
X170879853Y-117414354D01*
X170754354Y-117539853D01*
X170606784Y-117638456D01*
X170442812Y-117706376D01*
X170293512Y-117736073D01*
X170268742Y-117741000D01*
X170091258Y-117741000D01*
X170066488Y-117736073D01*
X169917188Y-117706376D01*
X169753216Y-117638456D01*
X169605646Y-117539853D01*
X169480147Y-117414354D01*
X169381544Y-117266784D01*
X169313624Y-117102812D01*
X169279000Y-116928741D01*
X169279000Y-116751259D01*
X169313624Y-116577188D01*
X169381544Y-116413216D01*
X169480147Y-116265646D01*
X169605646Y-116140147D01*
X169753216Y-116041544D01*
X169917188Y-115973624D01*
X170066488Y-115943927D01*
X170091258Y-115939000D01*
X170268742Y-115939000D01*
X170293512Y-115943927D01*
G37*
G36*
X83933512Y-115943927D02*
G01*
X84082812Y-115973624D01*
X84246784Y-116041544D01*
X84394354Y-116140147D01*
X84519853Y-116265646D01*
X84618456Y-116413216D01*
X84686376Y-116577188D01*
X84721000Y-116751259D01*
X84721000Y-116928741D01*
X84686376Y-117102812D01*
X84618456Y-117266784D01*
X84519853Y-117414354D01*
X84394354Y-117539853D01*
X84246784Y-117638456D01*
X84082812Y-117706376D01*
X83933512Y-117736073D01*
X83908742Y-117741000D01*
X83731258Y-117741000D01*
X83706488Y-117736073D01*
X83557188Y-117706376D01*
X83393216Y-117638456D01*
X83245646Y-117539853D01*
X83120147Y-117414354D01*
X83021544Y-117266784D01*
X82953624Y-117102812D01*
X82919000Y-116928741D01*
X82919000Y-116751259D01*
X82953624Y-116577188D01*
X83021544Y-116413216D01*
X83120147Y-116265646D01*
X83245646Y-116140147D01*
X83393216Y-116041544D01*
X83557188Y-115973624D01*
X83706488Y-115943927D01*
X83731258Y-115939000D01*
X83908742Y-115939000D01*
X83933512Y-115943927D01*
G37*
G36*
X133031000Y-116521000D02*
G01*
X131129000Y-116521000D01*
X131129000Y-114619000D01*
X133031000Y-114619000D01*
X133031000Y-116521000D01*
G37*
G36*
X92391000Y-116521000D02*
G01*
X90489000Y-116521000D01*
X90489000Y-114619000D01*
X92391000Y-114619000D01*
X92391000Y-116521000D01*
G37*
G36*
X145481000Y-114873251D02*
G01*
X145483402Y-114897637D01*
X145490515Y-114921086D01*
X145502066Y-114942697D01*
X145517611Y-114961639D01*
X145536553Y-114977184D01*
X145558164Y-114988735D01*
X145581613Y-114995848D01*
X145605999Y-114998250D01*
X145630385Y-114995848D01*
X145653834Y-114988735D01*
X145675444Y-114977184D01*
X145717951Y-114948782D01*
X145845527Y-114895938D01*
X145980956Y-114869000D01*
X146119044Y-114869000D01*
X146254473Y-114895938D01*
X146382049Y-114948782D01*
X146496859Y-115025495D01*
X146594505Y-115123141D01*
X146671218Y-115237951D01*
X146724062Y-115365527D01*
X146751000Y-115500956D01*
X146751000Y-115639044D01*
X146724062Y-115774473D01*
X146671218Y-115902049D01*
X146594505Y-116016859D01*
X146496859Y-116114505D01*
X146382049Y-116191218D01*
X146254473Y-116244062D01*
X146119044Y-116271000D01*
X145980956Y-116271000D01*
X145845527Y-116244062D01*
X145717951Y-116191218D01*
X145603141Y-116114505D01*
X145505495Y-116016859D01*
X145428782Y-115902049D01*
X145375938Y-115774473D01*
X145349000Y-115639044D01*
X145349000Y-115500956D01*
X145375938Y-115365527D01*
X145428782Y-115237951D01*
X145457184Y-115195444D01*
X145468735Y-115173833D01*
X145475848Y-115150384D01*
X145478250Y-115125998D01*
X145475848Y-115101612D01*
X145468735Y-115078163D01*
X145457183Y-115056553D01*
X145441638Y-115037611D01*
X145422696Y-115022066D01*
X145401085Y-115010515D01*
X145377636Y-115003402D01*
X145353251Y-115001000D01*
X144079000Y-115001000D01*
X144079000Y-113599000D01*
X145481000Y-113599000D01*
X145481000Y-114873251D01*
G37*
G36*
X104841000Y-114873251D02*
G01*
X104843402Y-114897637D01*
X104850515Y-114921086D01*
X104862066Y-114942697D01*
X104877611Y-114961639D01*
X104896553Y-114977184D01*
X104918164Y-114988735D01*
X104941613Y-114995848D01*
X104965999Y-114998250D01*
X104990385Y-114995848D01*
X105013834Y-114988735D01*
X105035444Y-114977184D01*
X105077951Y-114948782D01*
X105205527Y-114895938D01*
X105340956Y-114869000D01*
X105479044Y-114869000D01*
X105614473Y-114895938D01*
X105742049Y-114948782D01*
X105856859Y-115025495D01*
X105954505Y-115123141D01*
X106031218Y-115237951D01*
X106084062Y-115365527D01*
X106111000Y-115500956D01*
X106111000Y-115639044D01*
X106084062Y-115774473D01*
X106031218Y-115902049D01*
X105954505Y-116016859D01*
X105856859Y-116114505D01*
X105742049Y-116191218D01*
X105614473Y-116244062D01*
X105479044Y-116271000D01*
X105340956Y-116271000D01*
X105205527Y-116244062D01*
X105077951Y-116191218D01*
X104963141Y-116114505D01*
X104865495Y-116016859D01*
X104788782Y-115902049D01*
X104735938Y-115774473D01*
X104709000Y-115639044D01*
X104709000Y-115500956D01*
X104735938Y-115365527D01*
X104788782Y-115237951D01*
X104817184Y-115195444D01*
X104828735Y-115173833D01*
X104835848Y-115150384D01*
X104838250Y-115125998D01*
X104835848Y-115101612D01*
X104828735Y-115078163D01*
X104817183Y-115056553D01*
X104801638Y-115037611D01*
X104782696Y-115022066D01*
X104761085Y-115010515D01*
X104737636Y-115003402D01*
X104713251Y-115001000D01*
X103439000Y-115001000D01*
X103439000Y-113599000D01*
X104841000Y-113599000D01*
X104841000Y-114873251D01*
G37*
G36*
X120331000Y-115251000D02*
G01*
X118429000Y-115251000D01*
X118429000Y-113349000D01*
X120331000Y-113349000D01*
X120331000Y-115251000D01*
G37*
G36*
X160971000Y-115251000D02*
G01*
X159069000Y-115251000D01*
X159069000Y-113349000D01*
X160971000Y-113349000D01*
X160971000Y-115251000D01*
G37*
G36*
X170293512Y-113403927D02*
G01*
X170442812Y-113433624D01*
X170606784Y-113501544D01*
X170754354Y-113600147D01*
X170879853Y-113725646D01*
X170978456Y-113873216D01*
X171046376Y-114037188D01*
X171081000Y-114211259D01*
X171081000Y-114388741D01*
X171046376Y-114562812D01*
X170978456Y-114726784D01*
X170879853Y-114874354D01*
X170754354Y-114999853D01*
X170606784Y-115098456D01*
X170442812Y-115166376D01*
X170293512Y-115196073D01*
X170268742Y-115201000D01*
X170091258Y-115201000D01*
X170066488Y-115196073D01*
X169917188Y-115166376D01*
X169753216Y-115098456D01*
X169605646Y-114999853D01*
X169480147Y-114874354D01*
X169381544Y-114726784D01*
X169313624Y-114562812D01*
X169279000Y-114388741D01*
X169279000Y-114211259D01*
X169313624Y-114037188D01*
X169381544Y-113873216D01*
X169480147Y-113725646D01*
X169605646Y-113600147D01*
X169753216Y-113501544D01*
X169917188Y-113433624D01*
X170066488Y-113403927D01*
X170091258Y-113399000D01*
X170268742Y-113399000D01*
X170293512Y-113403927D01*
G37*
G36*
X83933512Y-113403927D02*
G01*
X84082812Y-113433624D01*
X84246784Y-113501544D01*
X84394354Y-113600147D01*
X84519853Y-113725646D01*
X84618456Y-113873216D01*
X84686376Y-114037188D01*
X84721000Y-114211259D01*
X84721000Y-114388741D01*
X84686376Y-114562812D01*
X84618456Y-114726784D01*
X84519853Y-114874354D01*
X84394354Y-114999853D01*
X84246784Y-115098456D01*
X84082812Y-115166376D01*
X83933512Y-115196073D01*
X83908742Y-115201000D01*
X83731258Y-115201000D01*
X83706488Y-115196073D01*
X83557188Y-115166376D01*
X83393216Y-115098456D01*
X83245646Y-114999853D01*
X83120147Y-114874354D01*
X83021544Y-114726784D01*
X82953624Y-114562812D01*
X82919000Y-114388741D01*
X82919000Y-114211259D01*
X82953624Y-114037188D01*
X83021544Y-113873216D01*
X83120147Y-113725646D01*
X83245646Y-113600147D01*
X83393216Y-113501544D01*
X83557188Y-113433624D01*
X83706488Y-113403927D01*
X83731258Y-113399000D01*
X83908742Y-113399000D01*
X83933512Y-113403927D01*
G37*
G36*
X106884473Y-113625938D02*
G01*
X107012049Y-113678782D01*
X107126859Y-113755495D01*
X107224505Y-113853141D01*
X107301218Y-113967951D01*
X107354062Y-114095527D01*
X107381000Y-114230956D01*
X107381000Y-114369044D01*
X107354062Y-114504473D01*
X107301218Y-114632049D01*
X107224505Y-114746859D01*
X107126859Y-114844505D01*
X107012049Y-114921218D01*
X106884473Y-114974062D01*
X106749044Y-115001000D01*
X106610956Y-115001000D01*
X106475527Y-114974062D01*
X106347951Y-114921218D01*
X106233141Y-114844505D01*
X106135495Y-114746859D01*
X106058782Y-114632049D01*
X106005938Y-114504473D01*
X105979000Y-114369044D01*
X105979000Y-114230956D01*
X106005938Y-114095527D01*
X106058782Y-113967951D01*
X106135495Y-113853141D01*
X106233141Y-113755495D01*
X106347951Y-113678782D01*
X106475527Y-113625938D01*
X106610956Y-113599000D01*
X106749044Y-113599000D01*
X106884473Y-113625938D01*
G37*
G36*
X147524473Y-113625938D02*
G01*
X147652049Y-113678782D01*
X147766859Y-113755495D01*
X147864505Y-113853141D01*
X147941218Y-113967951D01*
X147994062Y-114095527D01*
X148021000Y-114230956D01*
X148021000Y-114369044D01*
X147994062Y-114504473D01*
X147941218Y-114632049D01*
X147864505Y-114746859D01*
X147766859Y-114844505D01*
X147652049Y-114921218D01*
X147524473Y-114974062D01*
X147389044Y-115001000D01*
X147250956Y-115001000D01*
X147115527Y-114974062D01*
X146987951Y-114921218D01*
X146873141Y-114844505D01*
X146775495Y-114746859D01*
X146698782Y-114632049D01*
X146645938Y-114504473D01*
X146619000Y-114369044D01*
X146619000Y-114230956D01*
X146645938Y-114095527D01*
X146698782Y-113967951D01*
X146775495Y-113853141D01*
X146873141Y-113755495D01*
X146987951Y-113678782D01*
X147115527Y-113625938D01*
X147250956Y-113599000D01*
X147389044Y-113599000D01*
X147524473Y-113625938D01*
G37*
G36*
X132357395Y-112115546D02*
G01*
X132530466Y-112187234D01*
X132607818Y-112238919D01*
X132686227Y-112291310D01*
X132818690Y-112423773D01*
X132818691Y-112423775D01*
X132922766Y-112579534D01*
X132994454Y-112752605D01*
X133031000Y-112936333D01*
X133031000Y-113123667D01*
X132994454Y-113307395D01*
X132922766Y-113480466D01*
X132922765Y-113480467D01*
X132818690Y-113636227D01*
X132686227Y-113768690D01*
X132607818Y-113821081D01*
X132530466Y-113872766D01*
X132357395Y-113944454D01*
X132173667Y-113981000D01*
X131986333Y-113981000D01*
X131802605Y-113944454D01*
X131629534Y-113872766D01*
X131552182Y-113821081D01*
X131473773Y-113768690D01*
X131341310Y-113636227D01*
X131237235Y-113480467D01*
X131237234Y-113480466D01*
X131165546Y-113307395D01*
X131129000Y-113123667D01*
X131129000Y-112936333D01*
X131165546Y-112752605D01*
X131237234Y-112579534D01*
X131341309Y-112423775D01*
X131341310Y-112423773D01*
X131473773Y-112291310D01*
X131552182Y-112238919D01*
X131629534Y-112187234D01*
X131802605Y-112115546D01*
X131986333Y-112079000D01*
X132173667Y-112079000D01*
X132357395Y-112115546D01*
G37*
G36*
X91717395Y-112115546D02*
G01*
X91890466Y-112187234D01*
X91967818Y-112238919D01*
X92046227Y-112291310D01*
X92178690Y-112423773D01*
X92178691Y-112423775D01*
X92282766Y-112579534D01*
X92354454Y-112752605D01*
X92391000Y-112936333D01*
X92391000Y-113123667D01*
X92354454Y-113307395D01*
X92282766Y-113480466D01*
X92282765Y-113480467D01*
X92178690Y-113636227D01*
X92046227Y-113768690D01*
X91967818Y-113821081D01*
X91890466Y-113872766D01*
X91717395Y-113944454D01*
X91533667Y-113981000D01*
X91346333Y-113981000D01*
X91162605Y-113944454D01*
X90989534Y-113872766D01*
X90912182Y-113821081D01*
X90833773Y-113768690D01*
X90701310Y-113636227D01*
X90597235Y-113480467D01*
X90597234Y-113480466D01*
X90525546Y-113307395D01*
X90489000Y-113123667D01*
X90489000Y-112936333D01*
X90525546Y-112752605D01*
X90597234Y-112579534D01*
X90701309Y-112423775D01*
X90701310Y-112423773D01*
X90833773Y-112291310D01*
X90912182Y-112238919D01*
X90989534Y-112187234D01*
X91162605Y-112115546D01*
X91346333Y-112079000D01*
X91533667Y-112079000D01*
X91717395Y-112115546D01*
G37*
G36*
X160297395Y-110845546D02*
G01*
X160470466Y-110917234D01*
X160507086Y-110941703D01*
X160626227Y-111021310D01*
X160758690Y-111153773D01*
X160801284Y-111217520D01*
X160862766Y-111309534D01*
X160934454Y-111482605D01*
X160971000Y-111666333D01*
X160971000Y-111853667D01*
X160934454Y-112037395D01*
X160862766Y-112210466D01*
X160862765Y-112210467D01*
X160758690Y-112366227D01*
X160626227Y-112498690D01*
X160603092Y-112514148D01*
X160470466Y-112602766D01*
X160297395Y-112674454D01*
X160113667Y-112711000D01*
X159926333Y-112711000D01*
X159742605Y-112674454D01*
X159569534Y-112602766D01*
X159436908Y-112514148D01*
X159413773Y-112498690D01*
X159281310Y-112366227D01*
X159177235Y-112210467D01*
X159177234Y-112210466D01*
X159105546Y-112037395D01*
X159069000Y-111853667D01*
X159069000Y-111666333D01*
X159105546Y-111482605D01*
X159177234Y-111309534D01*
X159238716Y-111217520D01*
X159281310Y-111153773D01*
X159413773Y-111021310D01*
X159532914Y-110941703D01*
X159569534Y-110917234D01*
X159742605Y-110845546D01*
X159926333Y-110809000D01*
X160113667Y-110809000D01*
X160297395Y-110845546D01*
G37*
G36*
X119657395Y-110845546D02*
G01*
X119830466Y-110917234D01*
X119867086Y-110941703D01*
X119986227Y-111021310D01*
X120118690Y-111153773D01*
X120161284Y-111217520D01*
X120222766Y-111309534D01*
X120294454Y-111482605D01*
X120331000Y-111666333D01*
X120331000Y-111853667D01*
X120294454Y-112037395D01*
X120222766Y-112210466D01*
X120222765Y-112210467D01*
X120118690Y-112366227D01*
X119986227Y-112498690D01*
X119963092Y-112514148D01*
X119830466Y-112602766D01*
X119657395Y-112674454D01*
X119473667Y-112711000D01*
X119286333Y-112711000D01*
X119102605Y-112674454D01*
X118929534Y-112602766D01*
X118796908Y-112514148D01*
X118773773Y-112498690D01*
X118641310Y-112366227D01*
X118537235Y-112210467D01*
X118537234Y-112210466D01*
X118465546Y-112037395D01*
X118429000Y-111853667D01*
X118429000Y-111666333D01*
X118465546Y-111482605D01*
X118537234Y-111309534D01*
X118598716Y-111217520D01*
X118641310Y-111153773D01*
X118773773Y-111021310D01*
X118892914Y-110941703D01*
X118929534Y-110917234D01*
X119102605Y-110845546D01*
X119286333Y-110809000D01*
X119473667Y-110809000D01*
X119657395Y-110845546D01*
G37*
G36*
X124708228Y-110941703D02*
G01*
X124863100Y-111005853D01*
X125002481Y-111098985D01*
X125121015Y-111217519D01*
X125214147Y-111356900D01*
X125278297Y-111511772D01*
X125311000Y-111676184D01*
X125311000Y-111843816D01*
X125278297Y-112008228D01*
X125214147Y-112163100D01*
X125121015Y-112302481D01*
X125002481Y-112421015D01*
X124863100Y-112514147D01*
X124708228Y-112578297D01*
X124543816Y-112611000D01*
X124376184Y-112611000D01*
X124211772Y-112578297D01*
X124056900Y-112514147D01*
X123917519Y-112421015D01*
X123798985Y-112302481D01*
X123705853Y-112163100D01*
X123641703Y-112008228D01*
X123609000Y-111843816D01*
X123609000Y-111676184D01*
X123641703Y-111511772D01*
X123705853Y-111356900D01*
X123798985Y-111217519D01*
X123917519Y-111098985D01*
X124056900Y-111005853D01*
X124211772Y-110941703D01*
X124376184Y-110909000D01*
X124543816Y-110909000D01*
X124708228Y-110941703D01*
G37*
G36*
X165377395Y-109575546D02*
G01*
X165550466Y-109647234D01*
X165550467Y-109647235D01*
X165706227Y-109751310D01*
X165838690Y-109883773D01*
X165838691Y-109883775D01*
X165942766Y-110039534D01*
X166014454Y-110212605D01*
X166051000Y-110396333D01*
X166051000Y-110583667D01*
X166014454Y-110767395D01*
X165942766Y-110940466D01*
X165942765Y-110940467D01*
X165838690Y-111096227D01*
X165706227Y-111228690D01*
X165627818Y-111281081D01*
X165550466Y-111332766D01*
X165377395Y-111404454D01*
X165193667Y-111441000D01*
X165006333Y-111441000D01*
X164822605Y-111404454D01*
X164649534Y-111332766D01*
X164572182Y-111281081D01*
X164493773Y-111228690D01*
X164361310Y-111096227D01*
X164257235Y-110940467D01*
X164257234Y-110940466D01*
X164185546Y-110767395D01*
X164149000Y-110583667D01*
X164149000Y-110396333D01*
X164185546Y-110212605D01*
X164257234Y-110039534D01*
X164361309Y-109883775D01*
X164361310Y-109883773D01*
X164493773Y-109751310D01*
X164649533Y-109647235D01*
X164649534Y-109647234D01*
X164822605Y-109575546D01*
X165006333Y-109539000D01*
X165193667Y-109539000D01*
X165377395Y-109575546D01*
G37*
G36*
X97471000Y-110171000D02*
G01*
X95569000Y-110171000D01*
X95569000Y-108269000D01*
X97471000Y-108269000D01*
X97471000Y-110171000D01*
G37*
G36*
X158431000Y-110171000D02*
G01*
X156529000Y-110171000D01*
X156529000Y-108269000D01*
X158431000Y-108269000D01*
X158431000Y-110171000D01*
G37*
G36*
X138111000Y-110171000D02*
G01*
X136209000Y-110171000D01*
X136209000Y-108269000D01*
X138111000Y-108269000D01*
X138111000Y-110171000D01*
G37*
G36*
X117791000Y-110171000D02*
G01*
X115889000Y-110171000D01*
X115889000Y-108269000D01*
X117791000Y-108269000D01*
X117791000Y-110171000D01*
G37*
G36*
X166051000Y-108901000D02*
G01*
X164149000Y-108901000D01*
X164149000Y-106999000D01*
X166051000Y-106999000D01*
X166051000Y-108901000D01*
G37*
G36*
X130241000Y-107253251D02*
G01*
X130243402Y-107277637D01*
X130250515Y-107301086D01*
X130262066Y-107322697D01*
X130277611Y-107341639D01*
X130296553Y-107357184D01*
X130318164Y-107368735D01*
X130341613Y-107375848D01*
X130365999Y-107378250D01*
X130390385Y-107375848D01*
X130413834Y-107368735D01*
X130435444Y-107357184D01*
X130477951Y-107328782D01*
X130605527Y-107275938D01*
X130740956Y-107249000D01*
X130879044Y-107249000D01*
X131014473Y-107275938D01*
X131142049Y-107328782D01*
X131256859Y-107405495D01*
X131354505Y-107503141D01*
X131431218Y-107617951D01*
X131484062Y-107745527D01*
X131511000Y-107880956D01*
X131511000Y-108019044D01*
X131484062Y-108154473D01*
X131431218Y-108282049D01*
X131354505Y-108396859D01*
X131256859Y-108494505D01*
X131142049Y-108571218D01*
X131014473Y-108624062D01*
X130879044Y-108651000D01*
X130740956Y-108651000D01*
X130605527Y-108624062D01*
X130477951Y-108571218D01*
X130363141Y-108494505D01*
X130265495Y-108396859D01*
X130188782Y-108282049D01*
X130135938Y-108154473D01*
X130109000Y-108019044D01*
X130109000Y-107880956D01*
X130135938Y-107745527D01*
X130188782Y-107617951D01*
X130217184Y-107575444D01*
X130228735Y-107553833D01*
X130235848Y-107530384D01*
X130238250Y-107505998D01*
X130235848Y-107481612D01*
X130228735Y-107458163D01*
X130217183Y-107436553D01*
X130201638Y-107417611D01*
X130182696Y-107402066D01*
X130161085Y-107390515D01*
X130137636Y-107383402D01*
X130113251Y-107381000D01*
X128839000Y-107381000D01*
X128839000Y-105979000D01*
X130241000Y-105979000D01*
X130241000Y-107253251D01*
G37*
G36*
X137437395Y-105765546D02*
G01*
X137610466Y-105837234D01*
X137646034Y-105861000D01*
X137766227Y-105941310D01*
X137898690Y-106073773D01*
X137898691Y-106073775D01*
X138002766Y-106229534D01*
X138074454Y-106402605D01*
X138111000Y-106586333D01*
X138111000Y-106773667D01*
X138074454Y-106957395D01*
X138002766Y-107130466D01*
X138002765Y-107130467D01*
X137898690Y-107286227D01*
X137766227Y-107418690D01*
X137739493Y-107436553D01*
X137610466Y-107522766D01*
X137437395Y-107594454D01*
X137253667Y-107631000D01*
X137066333Y-107631000D01*
X136882605Y-107594454D01*
X136709534Y-107522766D01*
X136580507Y-107436553D01*
X136553773Y-107418690D01*
X136421310Y-107286227D01*
X136317235Y-107130467D01*
X136317234Y-107130466D01*
X136245546Y-106957395D01*
X136209000Y-106773667D01*
X136209000Y-106586333D01*
X136245546Y-106402605D01*
X136317234Y-106229534D01*
X136421309Y-106073775D01*
X136421310Y-106073773D01*
X136553773Y-105941310D01*
X136673966Y-105861000D01*
X136709534Y-105837234D01*
X136882605Y-105765546D01*
X137066333Y-105729000D01*
X137253667Y-105729000D01*
X137437395Y-105765546D01*
G37*
G36*
X96797395Y-105765546D02*
G01*
X96970466Y-105837234D01*
X97006034Y-105861000D01*
X97126227Y-105941310D01*
X97258690Y-106073773D01*
X97258691Y-106073775D01*
X97362766Y-106229534D01*
X97434454Y-106402605D01*
X97471000Y-106586333D01*
X97471000Y-106773667D01*
X97434454Y-106957395D01*
X97362766Y-107130466D01*
X97362765Y-107130467D01*
X97258690Y-107286227D01*
X97126227Y-107418690D01*
X97099493Y-107436553D01*
X96970466Y-107522766D01*
X96797395Y-107594454D01*
X96613667Y-107631000D01*
X96426333Y-107631000D01*
X96242605Y-107594454D01*
X96069534Y-107522766D01*
X95940507Y-107436553D01*
X95913773Y-107418690D01*
X95781310Y-107286227D01*
X95677235Y-107130467D01*
X95677234Y-107130466D01*
X95605546Y-106957395D01*
X95569000Y-106773667D01*
X95569000Y-106586333D01*
X95605546Y-106402605D01*
X95677234Y-106229534D01*
X95781309Y-106073775D01*
X95781310Y-106073773D01*
X95913773Y-105941310D01*
X96033966Y-105861000D01*
X96069534Y-105837234D01*
X96242605Y-105765546D01*
X96426333Y-105729000D01*
X96613667Y-105729000D01*
X96797395Y-105765546D01*
G37*
G36*
X117117395Y-105765546D02*
G01*
X117290466Y-105837234D01*
X117326034Y-105861000D01*
X117446227Y-105941310D01*
X117578690Y-106073773D01*
X117578691Y-106073775D01*
X117682766Y-106229534D01*
X117754454Y-106402605D01*
X117791000Y-106586333D01*
X117791000Y-106773667D01*
X117754454Y-106957395D01*
X117682766Y-107130466D01*
X117682765Y-107130467D01*
X117578690Y-107286227D01*
X117446227Y-107418690D01*
X117419493Y-107436553D01*
X117290466Y-107522766D01*
X117117395Y-107594454D01*
X116933667Y-107631000D01*
X116746333Y-107631000D01*
X116562605Y-107594454D01*
X116389534Y-107522766D01*
X116260507Y-107436553D01*
X116233773Y-107418690D01*
X116101310Y-107286227D01*
X115997235Y-107130467D01*
X115997234Y-107130466D01*
X115925546Y-106957395D01*
X115889000Y-106773667D01*
X115889000Y-106586333D01*
X115925546Y-106402605D01*
X115997234Y-106229534D01*
X116101309Y-106073775D01*
X116101310Y-106073773D01*
X116233773Y-105941310D01*
X116353966Y-105861000D01*
X116389534Y-105837234D01*
X116562605Y-105765546D01*
X116746333Y-105729000D01*
X116933667Y-105729000D01*
X117117395Y-105765546D01*
G37*
G36*
X157757395Y-105765546D02*
G01*
X157930466Y-105837234D01*
X157966034Y-105861000D01*
X158086227Y-105941310D01*
X158218690Y-106073773D01*
X158218691Y-106073775D01*
X158322766Y-106229534D01*
X158394454Y-106402605D01*
X158431000Y-106586333D01*
X158431000Y-106773667D01*
X158394454Y-106957395D01*
X158322766Y-107130466D01*
X158322765Y-107130467D01*
X158218690Y-107286227D01*
X158086227Y-107418690D01*
X158059493Y-107436553D01*
X157930466Y-107522766D01*
X157757395Y-107594454D01*
X157573667Y-107631000D01*
X157386333Y-107631000D01*
X157202605Y-107594454D01*
X157029534Y-107522766D01*
X156900507Y-107436553D01*
X156873773Y-107418690D01*
X156741310Y-107286227D01*
X156637235Y-107130467D01*
X156637234Y-107130466D01*
X156565546Y-106957395D01*
X156529000Y-106773667D01*
X156529000Y-106586333D01*
X156565546Y-106402605D01*
X156637234Y-106229534D01*
X156741309Y-106073775D01*
X156741310Y-106073773D01*
X156873773Y-105941310D01*
X156993966Y-105861000D01*
X157029534Y-105837234D01*
X157202605Y-105765546D01*
X157386333Y-105729000D01*
X157573667Y-105729000D01*
X157757395Y-105765546D01*
G37*
G36*
X132284473Y-106005938D02*
G01*
X132412049Y-106058782D01*
X132526859Y-106135495D01*
X132624505Y-106233141D01*
X132701218Y-106347951D01*
X132754062Y-106475527D01*
X132781000Y-106610956D01*
X132781000Y-106749044D01*
X132754062Y-106884473D01*
X132701218Y-107012049D01*
X132624505Y-107126859D01*
X132526859Y-107224505D01*
X132412049Y-107301218D01*
X132284473Y-107354062D01*
X132149044Y-107381000D01*
X132010956Y-107381000D01*
X131875527Y-107354062D01*
X131747951Y-107301218D01*
X131633141Y-107224505D01*
X131535495Y-107126859D01*
X131458782Y-107012049D01*
X131405938Y-106884473D01*
X131379000Y-106749044D01*
X131379000Y-106610956D01*
X131405938Y-106475527D01*
X131458782Y-106347951D01*
X131535495Y-106233141D01*
X131633141Y-106135495D01*
X131747951Y-106058782D01*
X131875527Y-106005938D01*
X132010956Y-105979000D01*
X132149044Y-105979000D01*
X132284473Y-106005938D01*
G37*
G36*
X123961000Y-106811000D02*
G01*
X122959000Y-106811000D01*
X122959000Y-105909000D01*
X123961000Y-105909000D01*
X123961000Y-106811000D01*
G37*
G36*
X166647395Y-104495546D02*
G01*
X166820466Y-104567234D01*
X166897818Y-104618919D01*
X166976227Y-104671310D01*
X167108690Y-104803773D01*
X167108691Y-104803775D01*
X167212766Y-104959534D01*
X167284454Y-105132605D01*
X167321000Y-105316333D01*
X167321000Y-105503667D01*
X167284454Y-105687395D01*
X167212766Y-105860466D01*
X167161081Y-105937818D01*
X167108690Y-106016227D01*
X166976227Y-106148690D01*
X166897818Y-106201081D01*
X166820466Y-106252766D01*
X166647395Y-106324454D01*
X166463667Y-106361000D01*
X166276333Y-106361000D01*
X166092605Y-106324454D01*
X165919534Y-106252766D01*
X165842182Y-106201081D01*
X165763773Y-106148690D01*
X165631310Y-106016227D01*
X165578919Y-105937818D01*
X165527234Y-105860466D01*
X165455546Y-105687395D01*
X165419000Y-105503667D01*
X165419000Y-105316333D01*
X165455546Y-105132605D01*
X165527234Y-104959534D01*
X165631309Y-104803775D01*
X165631310Y-104803773D01*
X165763773Y-104671310D01*
X165842182Y-104618919D01*
X165919534Y-104567234D01*
X166092605Y-104495546D01*
X166276333Y-104459000D01*
X166463667Y-104459000D01*
X166647395Y-104495546D01*
G37*
G36*
X125961000Y-105861000D02*
G01*
X124959000Y-105861000D01*
X124959000Y-104959000D01*
X125961000Y-104959000D01*
X125961000Y-105861000D01*
G37*
G36*
X108227395Y-103225546D02*
G01*
X108400466Y-103297234D01*
X108429837Y-103316859D01*
X108556227Y-103401310D01*
X108688690Y-103533773D01*
X108731284Y-103597520D01*
X108792766Y-103689534D01*
X108864454Y-103862605D01*
X108901000Y-104046333D01*
X108901000Y-104233667D01*
X108864454Y-104417395D01*
X108792766Y-104590466D01*
X108792765Y-104590467D01*
X108688690Y-104746227D01*
X108556227Y-104878690D01*
X108533092Y-104894148D01*
X108400466Y-104982766D01*
X108227395Y-105054454D01*
X108043667Y-105091000D01*
X107856333Y-105091000D01*
X107672605Y-105054454D01*
X107499534Y-104982766D01*
X107366908Y-104894148D01*
X107343773Y-104878690D01*
X107211310Y-104746227D01*
X107107235Y-104590467D01*
X107107234Y-104590466D01*
X107035546Y-104417395D01*
X106999000Y-104233667D01*
X106999000Y-104046333D01*
X107035546Y-103862605D01*
X107107234Y-103689534D01*
X107168716Y-103597520D01*
X107211310Y-103533773D01*
X107343773Y-103401310D01*
X107470163Y-103316859D01*
X107499534Y-103297234D01*
X107672605Y-103225546D01*
X107856333Y-103189000D01*
X108043667Y-103189000D01*
X108227395Y-103225546D01*
G37*
G36*
X152081000Y-105091000D02*
G01*
X150179000Y-105091000D01*
X150179000Y-103189000D01*
X152081000Y-103189000D01*
X152081000Y-105091000D01*
G37*
G36*
X111441000Y-105091000D02*
G01*
X109539000Y-105091000D01*
X109539000Y-103189000D01*
X111441000Y-103189000D01*
X111441000Y-105091000D01*
G37*
G36*
X148867395Y-103225546D02*
G01*
X149040466Y-103297234D01*
X149069837Y-103316859D01*
X149196227Y-103401310D01*
X149328690Y-103533773D01*
X149371284Y-103597520D01*
X149432766Y-103689534D01*
X149504454Y-103862605D01*
X149541000Y-104046333D01*
X149541000Y-104233667D01*
X149504454Y-104417395D01*
X149432766Y-104590466D01*
X149432765Y-104590467D01*
X149328690Y-104746227D01*
X149196227Y-104878690D01*
X149173092Y-104894148D01*
X149040466Y-104982766D01*
X148867395Y-105054454D01*
X148683667Y-105091000D01*
X148496333Y-105091000D01*
X148312605Y-105054454D01*
X148139534Y-104982766D01*
X148006908Y-104894148D01*
X147983773Y-104878690D01*
X147851310Y-104746227D01*
X147747235Y-104590467D01*
X147747234Y-104590466D01*
X147675546Y-104417395D01*
X147639000Y-104233667D01*
X147639000Y-104046333D01*
X147675546Y-103862605D01*
X147747234Y-103689534D01*
X147808716Y-103597520D01*
X147851310Y-103533773D01*
X147983773Y-103401310D01*
X148110163Y-103316859D01*
X148139534Y-103297234D01*
X148312605Y-103225546D01*
X148496333Y-103189000D01*
X148683667Y-103189000D01*
X148867395Y-103225546D01*
G37*
G36*
X157728228Y-103321703D02*
G01*
X157883100Y-103385853D01*
X158022481Y-103478985D01*
X158141015Y-103597519D01*
X158234147Y-103736900D01*
X158298297Y-103891772D01*
X158331000Y-104056184D01*
X158331000Y-104223816D01*
X158298297Y-104388228D01*
X158234147Y-104543100D01*
X158141015Y-104682481D01*
X158022481Y-104801015D01*
X157883100Y-104894147D01*
X157728228Y-104958297D01*
X157563816Y-104991000D01*
X157396184Y-104991000D01*
X157231772Y-104958297D01*
X157076900Y-104894147D01*
X156937519Y-104801015D01*
X156818985Y-104682481D01*
X156725853Y-104543100D01*
X156661703Y-104388228D01*
X156629000Y-104223816D01*
X156629000Y-104056184D01*
X156661703Y-103891772D01*
X156725853Y-103736900D01*
X156818985Y-103597519D01*
X156937519Y-103478985D01*
X157076900Y-103385853D01*
X157231772Y-103321703D01*
X157396184Y-103289000D01*
X157563816Y-103289000D01*
X157728228Y-103321703D01*
G37*
G36*
X78988228Y-103321703D02*
G01*
X79143100Y-103385853D01*
X79282481Y-103478985D01*
X79401015Y-103597519D01*
X79494147Y-103736900D01*
X79558297Y-103891772D01*
X79591000Y-104056184D01*
X79591000Y-104223816D01*
X79558297Y-104388228D01*
X79494147Y-104543100D01*
X79401015Y-104682481D01*
X79282481Y-104801015D01*
X79143100Y-104894147D01*
X78988228Y-104958297D01*
X78823816Y-104991000D01*
X78656184Y-104991000D01*
X78491772Y-104958297D01*
X78336900Y-104894147D01*
X78197519Y-104801015D01*
X78078985Y-104682481D01*
X77985853Y-104543100D01*
X77921703Y-104388228D01*
X77889000Y-104223816D01*
X77889000Y-104056184D01*
X77921703Y-103891772D01*
X77985853Y-103736900D01*
X78078985Y-103597519D01*
X78197519Y-103478985D01*
X78336900Y-103385853D01*
X78491772Y-103321703D01*
X78656184Y-103289000D01*
X78823816Y-103289000D01*
X78988228Y-103321703D01*
G37*
G36*
X123961000Y-104911000D02*
G01*
X122959000Y-104911000D01*
X122959000Y-104009000D01*
X123961000Y-104009000D01*
X123961000Y-104911000D01*
G37*
G36*
X85294473Y-102195938D02*
G01*
X85422049Y-102248782D01*
X85536859Y-102325495D01*
X85634505Y-102423141D01*
X85711218Y-102537951D01*
X85764062Y-102665527D01*
X85791000Y-102800956D01*
X85791000Y-102939044D01*
X85764062Y-103074473D01*
X85711218Y-103202049D01*
X85634505Y-103316859D01*
X85536859Y-103414505D01*
X85422049Y-103491218D01*
X85294473Y-103544062D01*
X85159044Y-103571000D01*
X85020956Y-103571000D01*
X84885527Y-103544062D01*
X84757951Y-103491218D01*
X84715444Y-103462816D01*
X84693833Y-103451265D01*
X84670384Y-103444152D01*
X84645998Y-103441750D01*
X84621612Y-103444152D01*
X84598163Y-103451265D01*
X84576553Y-103462817D01*
X84557611Y-103478362D01*
X84542066Y-103497304D01*
X84530515Y-103518915D01*
X84523402Y-103542364D01*
X84521000Y-103566749D01*
X84521000Y-104841000D01*
X83119000Y-104841000D01*
X83119000Y-103439000D01*
X84393251Y-103439000D01*
X84417637Y-103436598D01*
X84441086Y-103429485D01*
X84462697Y-103417934D01*
X84481639Y-103402389D01*
X84497184Y-103383447D01*
X84508735Y-103361836D01*
X84515848Y-103338387D01*
X84518250Y-103314001D01*
X84515848Y-103289615D01*
X84508735Y-103266166D01*
X84497184Y-103244556D01*
X84468782Y-103202049D01*
X84415938Y-103074473D01*
X84389000Y-102939044D01*
X84389000Y-102800956D01*
X84415938Y-102665527D01*
X84468782Y-102537951D01*
X84545495Y-102423141D01*
X84643141Y-102325495D01*
X84757951Y-102248782D01*
X84885527Y-102195938D01*
X85020956Y-102169000D01*
X85159044Y-102169000D01*
X85294473Y-102195938D01*
G37*
G36*
X167321000Y-103821000D02*
G01*
X165419000Y-103821000D01*
X165419000Y-101919000D01*
X167321000Y-101919000D01*
X167321000Y-103821000D01*
G37*
G36*
X101281000Y-102551000D02*
G01*
X99379000Y-102551000D01*
X99379000Y-100649000D01*
X101281000Y-100649000D01*
X101281000Y-102551000D01*
G37*
G36*
X143787395Y-100685546D02*
G01*
X143960466Y-100757234D01*
X144037818Y-100808919D01*
X144116227Y-100861310D01*
X144248690Y-100993773D01*
X144248691Y-100993775D01*
X144352766Y-101149534D01*
X144424454Y-101322605D01*
X144461000Y-101506333D01*
X144461000Y-101693667D01*
X144424454Y-101877395D01*
X144352766Y-102050466D01*
X144352765Y-102050467D01*
X144248690Y-102206227D01*
X144116227Y-102338690D01*
X144037818Y-102391081D01*
X143960466Y-102442766D01*
X143787395Y-102514454D01*
X143603667Y-102551000D01*
X143416333Y-102551000D01*
X143232605Y-102514454D01*
X143059534Y-102442766D01*
X142982182Y-102391081D01*
X142903773Y-102338690D01*
X142771310Y-102206227D01*
X142667235Y-102050467D01*
X142667234Y-102050466D01*
X142595546Y-101877395D01*
X142559000Y-101693667D01*
X142559000Y-101506333D01*
X142595546Y-101322605D01*
X142667234Y-101149534D01*
X142771309Y-100993775D01*
X142771310Y-100993773D01*
X142903773Y-100861310D01*
X142982182Y-100808919D01*
X143059534Y-100757234D01*
X143232605Y-100685546D01*
X143416333Y-100649000D01*
X143603667Y-100649000D01*
X143787395Y-100685546D01*
G37*
G36*
X141921000Y-102551000D02*
G01*
X140019000Y-102551000D01*
X140019000Y-100649000D01*
X141921000Y-100649000D01*
X141921000Y-102551000D01*
G37*
G36*
X103147395Y-100685546D02*
G01*
X103320466Y-100757234D01*
X103397818Y-100808919D01*
X103476227Y-100861310D01*
X103608690Y-100993773D01*
X103608691Y-100993775D01*
X103712766Y-101149534D01*
X103784454Y-101322605D01*
X103821000Y-101506333D01*
X103821000Y-101693667D01*
X103784454Y-101877395D01*
X103712766Y-102050466D01*
X103712765Y-102050467D01*
X103608690Y-102206227D01*
X103476227Y-102338690D01*
X103397818Y-102391081D01*
X103320466Y-102442766D01*
X103147395Y-102514454D01*
X102963667Y-102551000D01*
X102776333Y-102551000D01*
X102592605Y-102514454D01*
X102419534Y-102442766D01*
X102342182Y-102391081D01*
X102263773Y-102338690D01*
X102131310Y-102206227D01*
X102027235Y-102050467D01*
X102027234Y-102050466D01*
X101955546Y-101877395D01*
X101919000Y-101693667D01*
X101919000Y-101506333D01*
X101955546Y-101322605D01*
X102027234Y-101149534D01*
X102131309Y-100993775D01*
X102131310Y-100993773D01*
X102263773Y-100861310D01*
X102342182Y-100808919D01*
X102419534Y-100757234D01*
X102592605Y-100685546D01*
X102776333Y-100649000D01*
X102963667Y-100649000D01*
X103147395Y-100685546D01*
G37*
G36*
X84024473Y-100925938D02*
G01*
X84152049Y-100978782D01*
X84266859Y-101055495D01*
X84364505Y-101153141D01*
X84441218Y-101267951D01*
X84494062Y-101395527D01*
X84521000Y-101530956D01*
X84521000Y-101669044D01*
X84494062Y-101804473D01*
X84441218Y-101932049D01*
X84364505Y-102046859D01*
X84266859Y-102144505D01*
X84152049Y-102221218D01*
X84024473Y-102274062D01*
X83889044Y-102301000D01*
X83750956Y-102301000D01*
X83615527Y-102274062D01*
X83487951Y-102221218D01*
X83373141Y-102144505D01*
X83275495Y-102046859D01*
X83198782Y-101932049D01*
X83145938Y-101804473D01*
X83119000Y-101669044D01*
X83119000Y-101530956D01*
X83145938Y-101395527D01*
X83198782Y-101267951D01*
X83275495Y-101153141D01*
X83373141Y-101055495D01*
X83487951Y-100978782D01*
X83615527Y-100925938D01*
X83750956Y-100899000D01*
X83889044Y-100899000D01*
X84024473Y-100925938D01*
G37*
G36*
X92391000Y-101281000D02*
G01*
X90489000Y-101281000D01*
X90489000Y-99379000D01*
X92391000Y-99379000D01*
X92391000Y-101281000D01*
G37*
G36*
X94257395Y-99415546D02*
G01*
X94430466Y-99487234D01*
X94430467Y-99487235D01*
X94586227Y-99591310D01*
X94718690Y-99723773D01*
X94718691Y-99723775D01*
X94822766Y-99879534D01*
X94894454Y-100052605D01*
X94931000Y-100236333D01*
X94931000Y-100423667D01*
X94894454Y-100607395D01*
X94822766Y-100780466D01*
X94822765Y-100780467D01*
X94718690Y-100936227D01*
X94586227Y-101068690D01*
X94507818Y-101121081D01*
X94430466Y-101172766D01*
X94257395Y-101244454D01*
X94073667Y-101281000D01*
X93886333Y-101281000D01*
X93702605Y-101244454D01*
X93529534Y-101172766D01*
X93452182Y-101121081D01*
X93373773Y-101068690D01*
X93241310Y-100936227D01*
X93137235Y-100780467D01*
X93137234Y-100780466D01*
X93065546Y-100607395D01*
X93029000Y-100423667D01*
X93029000Y-100236333D01*
X93065546Y-100052605D01*
X93137234Y-99879534D01*
X93241309Y-99723775D01*
X93241310Y-99723773D01*
X93373773Y-99591310D01*
X93529533Y-99487235D01*
X93529534Y-99487234D01*
X93702605Y-99415546D01*
X93886333Y-99379000D01*
X94073667Y-99379000D01*
X94257395Y-99415546D01*
G37*
G36*
X133031000Y-101281000D02*
G01*
X131129000Y-101281000D01*
X131129000Y-99379000D01*
X133031000Y-99379000D01*
X133031000Y-101281000D01*
G37*
G36*
X134897395Y-99415546D02*
G01*
X135070466Y-99487234D01*
X135070467Y-99487235D01*
X135226227Y-99591310D01*
X135358690Y-99723773D01*
X135358691Y-99723775D01*
X135462766Y-99879534D01*
X135534454Y-100052605D01*
X135571000Y-100236333D01*
X135571000Y-100423667D01*
X135534454Y-100607395D01*
X135462766Y-100780466D01*
X135462765Y-100780467D01*
X135358690Y-100936227D01*
X135226227Y-101068690D01*
X135147818Y-101121081D01*
X135070466Y-101172766D01*
X134897395Y-101244454D01*
X134713667Y-101281000D01*
X134526333Y-101281000D01*
X134342605Y-101244454D01*
X134169534Y-101172766D01*
X134092182Y-101121081D01*
X134013773Y-101068690D01*
X133881310Y-100936227D01*
X133777235Y-100780467D01*
X133777234Y-100780466D01*
X133705546Y-100607395D01*
X133669000Y-100423667D01*
X133669000Y-100236333D01*
X133705546Y-100052605D01*
X133777234Y-99879534D01*
X133881309Y-99723775D01*
X133881310Y-99723773D01*
X134013773Y-99591310D01*
X134169533Y-99487235D01*
X134169534Y-99487234D01*
X134342605Y-99415546D01*
X134526333Y-99379000D01*
X134713667Y-99379000D01*
X134897395Y-99415546D01*
G37*
G36*
X158981000Y-100461000D02*
G01*
X157979000Y-100461000D01*
X157979000Y-99559000D01*
X158981000Y-99559000D01*
X158981000Y-100461000D01*
G37*
G36*
X124708228Y-98241703D02*
G01*
X124863100Y-98305853D01*
X125002481Y-98398985D01*
X125121015Y-98517519D01*
X125214147Y-98656900D01*
X125278297Y-98811772D01*
X125311000Y-98976184D01*
X125311000Y-99143816D01*
X125278297Y-99308228D01*
X125214147Y-99463100D01*
X125121015Y-99602481D01*
X125002481Y-99721015D01*
X124863100Y-99814147D01*
X124708228Y-99878297D01*
X124543816Y-99911000D01*
X124376184Y-99911000D01*
X124211772Y-99878297D01*
X124056900Y-99814147D01*
X123917519Y-99721015D01*
X123798985Y-99602481D01*
X123705853Y-99463100D01*
X123641703Y-99308228D01*
X123609000Y-99143816D01*
X123609000Y-98976184D01*
X123641703Y-98811772D01*
X123705853Y-98656900D01*
X123798985Y-98517519D01*
X123917519Y-98398985D01*
X124056900Y-98305853D01*
X124211772Y-98241703D01*
X124376184Y-98209000D01*
X124543816Y-98209000D01*
X124708228Y-98241703D01*
G37*
G36*
X152604473Y-98385938D02*
G01*
X152732049Y-98438782D01*
X152846859Y-98515495D01*
X152944505Y-98613141D01*
X153021218Y-98727951D01*
X153074062Y-98855527D01*
X153101000Y-98990956D01*
X153101000Y-99129044D01*
X153074062Y-99264473D01*
X153021218Y-99392049D01*
X152944505Y-99506859D01*
X152846859Y-99604505D01*
X152732049Y-99681218D01*
X152604473Y-99734062D01*
X152469044Y-99761000D01*
X152330956Y-99761000D01*
X152195527Y-99734062D01*
X152067951Y-99681218D01*
X151953141Y-99604505D01*
X151855495Y-99506859D01*
X151778782Y-99392049D01*
X151725938Y-99264473D01*
X151699000Y-99129044D01*
X151699000Y-98990956D01*
X151725938Y-98855527D01*
X151778782Y-98727951D01*
X151855495Y-98613141D01*
X151953141Y-98515495D01*
X152067951Y-98438782D01*
X152195527Y-98385938D01*
X152330956Y-98359000D01*
X152469044Y-98359000D01*
X152604473Y-98385938D01*
G37*
G36*
X156981000Y-99511000D02*
G01*
X155979000Y-99511000D01*
X155979000Y-98609000D01*
X156981000Y-98609000D01*
X156981000Y-99511000D01*
G37*
G36*
X158981000Y-98561000D02*
G01*
X157979000Y-98561000D01*
X157979000Y-97659000D01*
X158981000Y-97659000D01*
X158981000Y-98561000D01*
G37*
G36*
X153101000Y-97221000D02*
G01*
X151826749Y-97221000D01*
X151802363Y-97223402D01*
X151778914Y-97230515D01*
X151757303Y-97242066D01*
X151738361Y-97257611D01*
X151722816Y-97276553D01*
X151711265Y-97298164D01*
X151704152Y-97321613D01*
X151701750Y-97345999D01*
X151704152Y-97370385D01*
X151711265Y-97393834D01*
X151722816Y-97415444D01*
X151751218Y-97457951D01*
X151804062Y-97585527D01*
X151831000Y-97720956D01*
X151831000Y-97859044D01*
X151804062Y-97994473D01*
X151751218Y-98122049D01*
X151674505Y-98236859D01*
X151576859Y-98334505D01*
X151462049Y-98411218D01*
X151334473Y-98464062D01*
X151199044Y-98491000D01*
X151060956Y-98491000D01*
X150925527Y-98464062D01*
X150797951Y-98411218D01*
X150683141Y-98334505D01*
X150585495Y-98236859D01*
X150508782Y-98122049D01*
X150455938Y-97994473D01*
X150429000Y-97859044D01*
X150429000Y-97720956D01*
X150455938Y-97585527D01*
X150508782Y-97457951D01*
X150585495Y-97343141D01*
X150683141Y-97245495D01*
X150797951Y-97168782D01*
X150925527Y-97115938D01*
X151060956Y-97089000D01*
X151199044Y-97089000D01*
X151334473Y-97115938D01*
X151462049Y-97168782D01*
X151504556Y-97197184D01*
X151526167Y-97208735D01*
X151549616Y-97215848D01*
X151574002Y-97218250D01*
X151598388Y-97215848D01*
X151621837Y-97208735D01*
X151643447Y-97197183D01*
X151662389Y-97181638D01*
X151677934Y-97162696D01*
X151689485Y-97141085D01*
X151696598Y-97117636D01*
X151699000Y-97093251D01*
X151699000Y-95819000D01*
X153101000Y-95819000D01*
X153101000Y-97221000D01*
G37*
G36*
X80141000Y-98021000D02*
G01*
X79239000Y-98021000D01*
X79239000Y-97019000D01*
X80141000Y-97019000D01*
X80141000Y-98021000D01*
G37*
G36*
X78241000Y-98021000D02*
G01*
X77339000Y-98021000D01*
X77339000Y-97019000D01*
X78241000Y-97019000D01*
X78241000Y-98021000D01*
G37*
G36*
X147597395Y-95605546D02*
G01*
X147770466Y-95677234D01*
X147847818Y-95728919D01*
X147926227Y-95781310D01*
X148058690Y-95913773D01*
X148058691Y-95913775D01*
X148162766Y-96069534D01*
X148234454Y-96242605D01*
X148271000Y-96426333D01*
X148271000Y-96613667D01*
X148234454Y-96797395D01*
X148162766Y-96970466D01*
X148111081Y-97047818D01*
X148058690Y-97126227D01*
X147926227Y-97258690D01*
X147899493Y-97276553D01*
X147770466Y-97362766D01*
X147597395Y-97434454D01*
X147413667Y-97471000D01*
X147226333Y-97471000D01*
X147042605Y-97434454D01*
X146869534Y-97362766D01*
X146740507Y-97276553D01*
X146713773Y-97258690D01*
X146581310Y-97126227D01*
X146528919Y-97047818D01*
X146477234Y-96970466D01*
X146405546Y-96797395D01*
X146369000Y-96613667D01*
X146369000Y-96426333D01*
X146405546Y-96242605D01*
X146477234Y-96069534D01*
X146581309Y-95913775D01*
X146581310Y-95913773D01*
X146713773Y-95781310D01*
X146792182Y-95728919D01*
X146869534Y-95677234D01*
X147042605Y-95605546D01*
X147226333Y-95569000D01*
X147413667Y-95569000D01*
X147597395Y-95605546D01*
G37*
G36*
X127277395Y-95605546D02*
G01*
X127450466Y-95677234D01*
X127527818Y-95728919D01*
X127606227Y-95781310D01*
X127738690Y-95913773D01*
X127738691Y-95913775D01*
X127842766Y-96069534D01*
X127914454Y-96242605D01*
X127951000Y-96426333D01*
X127951000Y-96613667D01*
X127914454Y-96797395D01*
X127842766Y-96970466D01*
X127791081Y-97047818D01*
X127738690Y-97126227D01*
X127606227Y-97258690D01*
X127579493Y-97276553D01*
X127450466Y-97362766D01*
X127277395Y-97434454D01*
X127093667Y-97471000D01*
X126906333Y-97471000D01*
X126722605Y-97434454D01*
X126549534Y-97362766D01*
X126420507Y-97276553D01*
X126393773Y-97258690D01*
X126261310Y-97126227D01*
X126208919Y-97047818D01*
X126157234Y-96970466D01*
X126085546Y-96797395D01*
X126049000Y-96613667D01*
X126049000Y-96426333D01*
X126085546Y-96242605D01*
X126157234Y-96069534D01*
X126261309Y-95913775D01*
X126261310Y-95913773D01*
X126393773Y-95781310D01*
X126472182Y-95728919D01*
X126549534Y-95677234D01*
X126722605Y-95605546D01*
X126906333Y-95569000D01*
X127093667Y-95569000D01*
X127277395Y-95605546D01*
G37*
G36*
X106957395Y-95605546D02*
G01*
X107130466Y-95677234D01*
X107207818Y-95728919D01*
X107286227Y-95781310D01*
X107418690Y-95913773D01*
X107418691Y-95913775D01*
X107522766Y-96069534D01*
X107594454Y-96242605D01*
X107631000Y-96426333D01*
X107631000Y-96613667D01*
X107594454Y-96797395D01*
X107522766Y-96970466D01*
X107471081Y-97047818D01*
X107418690Y-97126227D01*
X107286227Y-97258690D01*
X107259493Y-97276553D01*
X107130466Y-97362766D01*
X106957395Y-97434454D01*
X106773667Y-97471000D01*
X106586333Y-97471000D01*
X106402605Y-97434454D01*
X106229534Y-97362766D01*
X106100507Y-97276553D01*
X106073773Y-97258690D01*
X105941310Y-97126227D01*
X105888919Y-97047818D01*
X105837234Y-96970466D01*
X105765546Y-96797395D01*
X105729000Y-96613667D01*
X105729000Y-96426333D01*
X105765546Y-96242605D01*
X105837234Y-96069534D01*
X105941309Y-95913775D01*
X105941310Y-95913773D01*
X106073773Y-95781310D01*
X106152182Y-95728919D01*
X106229534Y-95677234D01*
X106402605Y-95605546D01*
X106586333Y-95569000D01*
X106773667Y-95569000D01*
X106957395Y-95605546D01*
G37*
G36*
X86637395Y-95605546D02*
G01*
X86810466Y-95677234D01*
X86887818Y-95728919D01*
X86966227Y-95781310D01*
X87098690Y-95913773D01*
X87098691Y-95913775D01*
X87202766Y-96069534D01*
X87274454Y-96242605D01*
X87311000Y-96426333D01*
X87311000Y-96613667D01*
X87274454Y-96797395D01*
X87202766Y-96970466D01*
X87151081Y-97047818D01*
X87098690Y-97126227D01*
X86966227Y-97258690D01*
X86939493Y-97276553D01*
X86810466Y-97362766D01*
X86637395Y-97434454D01*
X86453667Y-97471000D01*
X86266333Y-97471000D01*
X86082605Y-97434454D01*
X85909534Y-97362766D01*
X85780507Y-97276553D01*
X85753773Y-97258690D01*
X85621310Y-97126227D01*
X85568919Y-97047818D01*
X85517234Y-96970466D01*
X85445546Y-96797395D01*
X85409000Y-96613667D01*
X85409000Y-96426333D01*
X85445546Y-96242605D01*
X85517234Y-96069534D01*
X85621309Y-95913775D01*
X85621310Y-95913773D01*
X85753773Y-95781310D01*
X85832182Y-95728919D01*
X85909534Y-95677234D01*
X86082605Y-95605546D01*
X86266333Y-95569000D01*
X86453667Y-95569000D01*
X86637395Y-95605546D01*
G37*
G36*
X162837395Y-94335546D02*
G01*
X163010466Y-94407234D01*
X163010467Y-94407235D01*
X163166227Y-94511310D01*
X163298690Y-94643773D01*
X163298691Y-94643775D01*
X163402766Y-94799534D01*
X163474454Y-94972605D01*
X163511000Y-95156333D01*
X163511000Y-95343667D01*
X163474454Y-95527395D01*
X163402766Y-95700466D01*
X163402765Y-95700467D01*
X163298690Y-95856227D01*
X163166227Y-95988690D01*
X163117871Y-96021000D01*
X163010466Y-96092766D01*
X162837395Y-96164454D01*
X162653667Y-96201000D01*
X162466333Y-96201000D01*
X162282605Y-96164454D01*
X162109534Y-96092766D01*
X162002129Y-96021000D01*
X161953773Y-95988690D01*
X161821310Y-95856227D01*
X161717235Y-95700467D01*
X161717234Y-95700466D01*
X161645546Y-95527395D01*
X161609000Y-95343667D01*
X161609000Y-95156333D01*
X161645546Y-94972605D01*
X161717234Y-94799534D01*
X161821309Y-94643775D01*
X161821310Y-94643773D01*
X161953773Y-94511310D01*
X162109533Y-94407235D01*
X162109534Y-94407234D01*
X162282605Y-94335546D01*
X162466333Y-94299000D01*
X162653667Y-94299000D01*
X162837395Y-94335546D01*
G37*
G36*
X79191000Y-96021000D02*
G01*
X78289000Y-96021000D01*
X78289000Y-95019000D01*
X79191000Y-95019000D01*
X79191000Y-96021000D01*
G37*
G36*
X87311000Y-94931000D02*
G01*
X85409000Y-94931000D01*
X85409000Y-93029000D01*
X87311000Y-93029000D01*
X87311000Y-94931000D01*
G37*
G36*
X148271000Y-94931000D02*
G01*
X146369000Y-94931000D01*
X146369000Y-93029000D01*
X148271000Y-93029000D01*
X148271000Y-94931000D01*
G37*
G36*
X107631000Y-94931000D02*
G01*
X105729000Y-94931000D01*
X105729000Y-93029000D01*
X107631000Y-93029000D01*
X107631000Y-94931000D01*
G37*
G36*
X127951000Y-94931000D02*
G01*
X126049000Y-94931000D01*
X126049000Y-93029000D01*
X127951000Y-93029000D01*
X127951000Y-94931000D01*
G37*
G36*
X163511000Y-93661000D02*
G01*
X161609000Y-93661000D01*
X161609000Y-91759000D01*
X163511000Y-91759000D01*
X163511000Y-93661000D01*
G37*
G36*
X112037395Y-90779546D02*
G01*
X112210466Y-90851234D01*
X112210467Y-90851235D01*
X112366227Y-90955310D01*
X112498690Y-91087773D01*
X112498691Y-91087775D01*
X112602766Y-91243534D01*
X112674454Y-91416605D01*
X112711000Y-91600333D01*
X112711000Y-91787667D01*
X112674454Y-91971395D01*
X112602766Y-92144466D01*
X112569570Y-92194147D01*
X112498690Y-92300227D01*
X112366227Y-92432690D01*
X112287818Y-92485081D01*
X112210466Y-92536766D01*
X112037395Y-92608454D01*
X111853667Y-92645000D01*
X111666333Y-92645000D01*
X111482605Y-92608454D01*
X111309534Y-92536766D01*
X111232182Y-92485081D01*
X111153773Y-92432690D01*
X111021310Y-92300227D01*
X110950430Y-92194147D01*
X110917234Y-92144466D01*
X110845546Y-91971395D01*
X110809000Y-91787667D01*
X110809000Y-91600333D01*
X110845546Y-91416605D01*
X110917234Y-91243534D01*
X111021309Y-91087775D01*
X111021310Y-91087773D01*
X111153773Y-90955310D01*
X111309533Y-90851235D01*
X111309534Y-90851234D01*
X111482605Y-90779546D01*
X111666333Y-90743000D01*
X111853667Y-90743000D01*
X112037395Y-90779546D01*
G37*
G36*
X152677395Y-90525546D02*
G01*
X152850466Y-90597234D01*
X152887086Y-90621703D01*
X153006227Y-90701310D01*
X153138690Y-90833773D01*
X153181284Y-90897520D01*
X153242766Y-90989534D01*
X153314454Y-91162605D01*
X153351000Y-91346333D01*
X153351000Y-91533667D01*
X153314454Y-91717395D01*
X153242766Y-91890466D01*
X153242765Y-91890467D01*
X153138690Y-92046227D01*
X153006227Y-92178690D01*
X152983092Y-92194148D01*
X152850466Y-92282766D01*
X152677395Y-92354454D01*
X152493667Y-92391000D01*
X152306333Y-92391000D01*
X152122605Y-92354454D01*
X151949534Y-92282766D01*
X151816908Y-92194148D01*
X151793773Y-92178690D01*
X151661310Y-92046227D01*
X151557235Y-91890467D01*
X151557234Y-91890466D01*
X151485546Y-91717395D01*
X151449000Y-91533667D01*
X151449000Y-91346333D01*
X151485546Y-91162605D01*
X151557234Y-90989534D01*
X151618716Y-90897520D01*
X151661310Y-90833773D01*
X151793773Y-90701310D01*
X151912914Y-90621703D01*
X151949534Y-90597234D01*
X152122605Y-90525546D01*
X152306333Y-90489000D01*
X152493667Y-90489000D01*
X152677395Y-90525546D01*
G37*
G36*
X78988228Y-90621703D02*
G01*
X79143100Y-90685853D01*
X79282481Y-90778985D01*
X79401015Y-90897519D01*
X79494147Y-91036900D01*
X79558297Y-91191772D01*
X79591000Y-91356184D01*
X79591000Y-91523816D01*
X79558297Y-91688228D01*
X79494147Y-91843100D01*
X79401015Y-91982481D01*
X79282481Y-92101015D01*
X79143100Y-92194147D01*
X78988228Y-92258297D01*
X78823816Y-92291000D01*
X78656184Y-92291000D01*
X78491772Y-92258297D01*
X78336900Y-92194147D01*
X78197519Y-92101015D01*
X78078985Y-91982481D01*
X77985853Y-91843100D01*
X77921703Y-91688228D01*
X77889000Y-91523816D01*
X77889000Y-91356184D01*
X77921703Y-91191772D01*
X77985853Y-91036900D01*
X78078985Y-90897519D01*
X78197519Y-90778985D01*
X78336900Y-90685853D01*
X78491772Y-90621703D01*
X78656184Y-90589000D01*
X78823816Y-90589000D01*
X78988228Y-90621703D01*
G37*
G36*
X157728228Y-90621703D02*
G01*
X157883100Y-90685853D01*
X158022481Y-90778985D01*
X158141015Y-90897519D01*
X158234147Y-91036900D01*
X158298297Y-91191772D01*
X158331000Y-91356184D01*
X158331000Y-91523816D01*
X158298297Y-91688228D01*
X158234147Y-91843100D01*
X158141015Y-91982481D01*
X158022481Y-92101015D01*
X157883100Y-92194147D01*
X157728228Y-92258297D01*
X157563816Y-92291000D01*
X157396184Y-92291000D01*
X157231772Y-92258297D01*
X157076900Y-92194147D01*
X156937519Y-92101015D01*
X156818985Y-91982481D01*
X156725853Y-91843100D01*
X156661703Y-91688228D01*
X156629000Y-91523816D01*
X156629000Y-91356184D01*
X156661703Y-91191772D01*
X156725853Y-91036900D01*
X156818985Y-90897519D01*
X156937519Y-90778985D01*
X157076900Y-90685853D01*
X157231772Y-90621703D01*
X157396184Y-90589000D01*
X157563816Y-90589000D01*
X157728228Y-90621703D01*
G37*
G36*
X165377395Y-89255546D02*
G01*
X165550466Y-89327234D01*
X165627818Y-89378919D01*
X165706227Y-89431310D01*
X165838690Y-89563773D01*
X165838691Y-89563775D01*
X165942766Y-89719534D01*
X166014454Y-89892605D01*
X166051000Y-90076333D01*
X166051000Y-90263667D01*
X166014454Y-90447395D01*
X165942766Y-90620466D01*
X165942765Y-90620467D01*
X165838690Y-90776227D01*
X165706227Y-90908690D01*
X165636456Y-90955309D01*
X165550466Y-91012766D01*
X165377395Y-91084454D01*
X165193667Y-91121000D01*
X165006333Y-91121000D01*
X164822605Y-91084454D01*
X164649534Y-91012766D01*
X164563544Y-90955309D01*
X164493773Y-90908690D01*
X164361310Y-90776227D01*
X164257235Y-90620467D01*
X164257234Y-90620466D01*
X164185546Y-90447395D01*
X164149000Y-90263667D01*
X164149000Y-90076333D01*
X164185546Y-89892605D01*
X164257234Y-89719534D01*
X164361309Y-89563775D01*
X164361310Y-89563773D01*
X164493773Y-89431310D01*
X164572182Y-89378919D01*
X164649534Y-89327234D01*
X164822605Y-89255546D01*
X165006333Y-89219000D01*
X165193667Y-89219000D01*
X165377395Y-89255546D01*
G37*
G36*
X112711000Y-90105000D02*
G01*
X110809000Y-90105000D01*
X110809000Y-88203000D01*
X112711000Y-88203000D01*
X112711000Y-90105000D01*
G37*
G36*
X153351000Y-89851000D02*
G01*
X151449000Y-89851000D01*
X151449000Y-87949000D01*
X153351000Y-87949000D01*
X153351000Y-89851000D01*
G37*
G36*
X124737395Y-87985546D02*
G01*
X124910466Y-88057234D01*
X124910467Y-88057235D01*
X125066227Y-88161310D01*
X125198690Y-88293773D01*
X125198691Y-88293775D01*
X125302766Y-88449534D01*
X125374454Y-88622605D01*
X125411000Y-88806333D01*
X125411000Y-88993667D01*
X125374454Y-89177395D01*
X125302766Y-89350466D01*
X125302765Y-89350467D01*
X125198690Y-89506227D01*
X125066227Y-89638690D01*
X124987818Y-89691081D01*
X124910466Y-89742766D01*
X124737395Y-89814454D01*
X124553667Y-89851000D01*
X124366333Y-89851000D01*
X124182605Y-89814454D01*
X124009534Y-89742766D01*
X123932182Y-89691081D01*
X123853773Y-89638690D01*
X123721310Y-89506227D01*
X123617235Y-89350467D01*
X123617234Y-89350466D01*
X123545546Y-89177395D01*
X123509000Y-88993667D01*
X123509000Y-88806333D01*
X123545546Y-88622605D01*
X123617234Y-88449534D01*
X123721309Y-88293775D01*
X123721310Y-88293773D01*
X123853773Y-88161310D01*
X124009533Y-88057235D01*
X124009534Y-88057234D01*
X124182605Y-87985546D01*
X124366333Y-87949000D01*
X124553667Y-87949000D01*
X124737395Y-87985546D01*
G37*
G36*
X84097395Y-87985546D02*
G01*
X84270466Y-88057234D01*
X84270467Y-88057235D01*
X84426227Y-88161310D01*
X84558690Y-88293773D01*
X84558691Y-88293775D01*
X84662766Y-88449534D01*
X84734454Y-88622605D01*
X84771000Y-88806333D01*
X84771000Y-88993667D01*
X84734454Y-89177395D01*
X84662766Y-89350466D01*
X84662765Y-89350467D01*
X84558690Y-89506227D01*
X84426227Y-89638690D01*
X84347818Y-89691081D01*
X84270466Y-89742766D01*
X84097395Y-89814454D01*
X83913667Y-89851000D01*
X83726333Y-89851000D01*
X83542605Y-89814454D01*
X83369534Y-89742766D01*
X83292182Y-89691081D01*
X83213773Y-89638690D01*
X83081310Y-89506227D01*
X82977235Y-89350467D01*
X82977234Y-89350466D01*
X82905546Y-89177395D01*
X82869000Y-88993667D01*
X82869000Y-88806333D01*
X82905546Y-88622605D01*
X82977234Y-88449534D01*
X83081309Y-88293775D01*
X83081310Y-88293773D01*
X83213773Y-88161310D01*
X83369533Y-88057235D01*
X83369534Y-88057234D01*
X83542605Y-87985546D01*
X83726333Y-87949000D01*
X83913667Y-87949000D01*
X84097395Y-87985546D01*
G37*
G36*
X166051000Y-88581000D02*
G01*
X164149000Y-88581000D01*
X164149000Y-86679000D01*
X166051000Y-86679000D01*
X166051000Y-88581000D01*
G37*
G36*
X137861000Y-86933251D02*
G01*
X137863402Y-86957637D01*
X137870515Y-86981086D01*
X137882066Y-87002697D01*
X137897611Y-87021639D01*
X137916553Y-87037184D01*
X137938164Y-87048735D01*
X137961613Y-87055848D01*
X137985999Y-87058250D01*
X138010385Y-87055848D01*
X138033834Y-87048735D01*
X138055444Y-87037184D01*
X138097951Y-87008782D01*
X138225527Y-86955938D01*
X138360956Y-86929000D01*
X138499044Y-86929000D01*
X138634473Y-86955938D01*
X138762049Y-87008782D01*
X138876859Y-87085495D01*
X138974505Y-87183141D01*
X139051218Y-87297951D01*
X139104062Y-87425527D01*
X139131000Y-87560956D01*
X139131000Y-87699044D01*
X139104062Y-87834473D01*
X139051218Y-87962049D01*
X138974505Y-88076859D01*
X138876859Y-88174505D01*
X138762049Y-88251218D01*
X138634473Y-88304062D01*
X138499044Y-88331000D01*
X138360956Y-88331000D01*
X138225527Y-88304062D01*
X138097951Y-88251218D01*
X137983141Y-88174505D01*
X137885495Y-88076859D01*
X137808782Y-87962049D01*
X137755938Y-87834473D01*
X137729000Y-87699044D01*
X137729000Y-87560956D01*
X137755938Y-87425527D01*
X137808782Y-87297951D01*
X137837184Y-87255444D01*
X137848735Y-87233833D01*
X137855848Y-87210384D01*
X137858250Y-87185998D01*
X137855848Y-87161612D01*
X137848735Y-87138163D01*
X137837183Y-87116553D01*
X137821638Y-87097611D01*
X137802696Y-87082066D01*
X137781085Y-87070515D01*
X137757636Y-87063402D01*
X137733251Y-87061000D01*
X136459000Y-87061000D01*
X136459000Y-85659000D01*
X137861000Y-85659000D01*
X137861000Y-86933251D01*
G37*
G36*
X97221000Y-86933251D02*
G01*
X97223402Y-86957637D01*
X97230515Y-86981086D01*
X97242066Y-87002697D01*
X97257611Y-87021639D01*
X97276553Y-87037184D01*
X97298164Y-87048735D01*
X97321613Y-87055848D01*
X97345999Y-87058250D01*
X97370385Y-87055848D01*
X97393834Y-87048735D01*
X97415444Y-87037184D01*
X97457951Y-87008782D01*
X97585527Y-86955938D01*
X97720956Y-86929000D01*
X97859044Y-86929000D01*
X97994473Y-86955938D01*
X98122049Y-87008782D01*
X98236859Y-87085495D01*
X98334505Y-87183141D01*
X98411218Y-87297951D01*
X98464062Y-87425527D01*
X98491000Y-87560956D01*
X98491000Y-87699044D01*
X98464062Y-87834473D01*
X98411218Y-87962049D01*
X98334505Y-88076859D01*
X98236859Y-88174505D01*
X98122049Y-88251218D01*
X97994473Y-88304062D01*
X97859044Y-88331000D01*
X97720956Y-88331000D01*
X97585527Y-88304062D01*
X97457951Y-88251218D01*
X97343141Y-88174505D01*
X97245495Y-88076859D01*
X97168782Y-87962049D01*
X97115938Y-87834473D01*
X97089000Y-87699044D01*
X97089000Y-87560956D01*
X97115938Y-87425527D01*
X97168782Y-87297951D01*
X97197184Y-87255444D01*
X97208735Y-87233833D01*
X97215848Y-87210384D01*
X97218250Y-87185998D01*
X97215848Y-87161612D01*
X97208735Y-87138163D01*
X97197183Y-87116553D01*
X97181638Y-87097611D01*
X97162696Y-87082066D01*
X97141085Y-87070515D01*
X97117636Y-87063402D01*
X97093251Y-87061000D01*
X95819000Y-87061000D01*
X95819000Y-85659000D01*
X97221000Y-85659000D01*
X97221000Y-86933251D01*
G37*
G36*
X125411000Y-87311000D02*
G01*
X123509000Y-87311000D01*
X123509000Y-85409000D01*
X125411000Y-85409000D01*
X125411000Y-87311000D01*
G37*
G36*
X84771000Y-87311000D02*
G01*
X82869000Y-87311000D01*
X82869000Y-85409000D01*
X84771000Y-85409000D01*
X84771000Y-87311000D01*
G37*
G36*
X139904473Y-85685938D02*
G01*
X140032049Y-85738782D01*
X140146859Y-85815495D01*
X140244505Y-85913141D01*
X140321218Y-86027951D01*
X140374062Y-86155527D01*
X140401000Y-86290956D01*
X140401000Y-86429044D01*
X140374062Y-86564473D01*
X140321218Y-86692049D01*
X140244505Y-86806859D01*
X140146859Y-86904505D01*
X140032049Y-86981218D01*
X139904473Y-87034062D01*
X139769044Y-87061000D01*
X139630956Y-87061000D01*
X139495527Y-87034062D01*
X139367951Y-86981218D01*
X139253141Y-86904505D01*
X139155495Y-86806859D01*
X139078782Y-86692049D01*
X139025938Y-86564473D01*
X138999000Y-86429044D01*
X138999000Y-86290956D01*
X139025938Y-86155527D01*
X139078782Y-86027951D01*
X139155495Y-85913141D01*
X139253141Y-85815495D01*
X139367951Y-85738782D01*
X139495527Y-85685938D01*
X139630956Y-85659000D01*
X139769044Y-85659000D01*
X139904473Y-85685938D01*
G37*
G36*
X99264473Y-85685938D02*
G01*
X99392049Y-85738782D01*
X99506859Y-85815495D01*
X99604505Y-85913141D01*
X99681218Y-86027951D01*
X99734062Y-86155527D01*
X99761000Y-86290956D01*
X99761000Y-86429044D01*
X99734062Y-86564473D01*
X99681218Y-86692049D01*
X99604505Y-86806859D01*
X99506859Y-86904505D01*
X99392049Y-86981218D01*
X99264473Y-87034062D01*
X99129044Y-87061000D01*
X98990956Y-87061000D01*
X98855527Y-87034062D01*
X98727951Y-86981218D01*
X98613141Y-86904505D01*
X98515495Y-86806859D01*
X98438782Y-86692049D01*
X98385938Y-86564473D01*
X98359000Y-86429044D01*
X98359000Y-86290956D01*
X98385938Y-86155527D01*
X98438782Y-86027951D01*
X98515495Y-85913141D01*
X98613141Y-85815495D01*
X98727951Y-85738782D01*
X98855527Y-85685938D01*
X98990956Y-85659000D01*
X99129044Y-85659000D01*
X99264473Y-85685938D01*
G37*
G36*
X155217395Y-84175546D02*
G01*
X155390466Y-84247234D01*
X155390467Y-84247235D01*
X155546227Y-84351310D01*
X155678690Y-84483773D01*
X155678691Y-84483775D01*
X155782766Y-84639534D01*
X155854454Y-84812605D01*
X155891000Y-84996333D01*
X155891000Y-85183667D01*
X155854454Y-85367395D01*
X155782766Y-85540466D01*
X155782765Y-85540467D01*
X155678690Y-85696227D01*
X155546227Y-85828690D01*
X155467818Y-85881081D01*
X155390466Y-85932766D01*
X155217395Y-86004454D01*
X155033667Y-86041000D01*
X154846333Y-86041000D01*
X154662605Y-86004454D01*
X154489534Y-85932766D01*
X154412182Y-85881081D01*
X154333773Y-85828690D01*
X154201310Y-85696227D01*
X154097235Y-85540467D01*
X154097234Y-85540466D01*
X154025546Y-85367395D01*
X153989000Y-85183667D01*
X153989000Y-84996333D01*
X154025546Y-84812605D01*
X154097234Y-84639534D01*
X154201309Y-84483775D01*
X154201310Y-84483773D01*
X154333773Y-84351310D01*
X154489533Y-84247235D01*
X154489534Y-84247234D01*
X154662605Y-84175546D01*
X154846333Y-84139000D01*
X155033667Y-84139000D01*
X155217395Y-84175546D01*
G37*
G36*
X114577395Y-84175546D02*
G01*
X114750466Y-84247234D01*
X114750467Y-84247235D01*
X114906227Y-84351310D01*
X115038690Y-84483773D01*
X115038691Y-84483775D01*
X115142766Y-84639534D01*
X115214454Y-84812605D01*
X115251000Y-84996333D01*
X115251000Y-85183667D01*
X115214454Y-85367395D01*
X115142766Y-85540466D01*
X115142765Y-85540467D01*
X115038690Y-85696227D01*
X114906227Y-85828690D01*
X114827818Y-85881081D01*
X114750466Y-85932766D01*
X114577395Y-86004454D01*
X114393667Y-86041000D01*
X114206333Y-86041000D01*
X114022605Y-86004454D01*
X113849534Y-85932766D01*
X113772182Y-85881081D01*
X113693773Y-85828690D01*
X113561310Y-85696227D01*
X113457235Y-85540467D01*
X113457234Y-85540466D01*
X113385546Y-85367395D01*
X113349000Y-85183667D01*
X113349000Y-84996333D01*
X113385546Y-84812605D01*
X113457234Y-84639534D01*
X113561309Y-84483775D01*
X113561310Y-84483773D01*
X113693773Y-84351310D01*
X113849533Y-84247235D01*
X113849534Y-84247234D01*
X114022605Y-84175546D01*
X114206333Y-84139000D01*
X114393667Y-84139000D01*
X114577395Y-84175546D01*
G37*
G36*
X155891000Y-83501000D02*
G01*
X153989000Y-83501000D01*
X153989000Y-81599000D01*
X155891000Y-81599000D01*
X155891000Y-83501000D01*
G37*
G36*
X115251000Y-83501000D02*
G01*
X113349000Y-83501000D01*
X113349000Y-81599000D01*
X115251000Y-81599000D01*
X115251000Y-83501000D01*
G37*
G36*
X139201000Y-82681000D02*
G01*
X138199000Y-82681000D01*
X138199000Y-81779000D01*
X139201000Y-81779000D01*
X139201000Y-82681000D01*
G37*
G36*
X98291000Y-82681000D02*
G01*
X97289000Y-82681000D01*
X97289000Y-81779000D01*
X98291000Y-81779000D01*
X98291000Y-82681000D01*
G37*
G36*
X84097395Y-80365546D02*
G01*
X84270466Y-80437234D01*
X84307086Y-80461703D01*
X84426227Y-80541310D01*
X84558690Y-80673773D01*
X84601284Y-80737520D01*
X84662766Y-80829534D01*
X84734454Y-81002605D01*
X84771000Y-81186333D01*
X84771000Y-81373667D01*
X84734454Y-81557395D01*
X84662766Y-81730466D01*
X84611081Y-81807818D01*
X84558690Y-81886227D01*
X84426227Y-82018690D01*
X84403092Y-82034148D01*
X84270466Y-82122766D01*
X84097395Y-82194454D01*
X83913667Y-82231000D01*
X83726333Y-82231000D01*
X83542605Y-82194454D01*
X83369534Y-82122766D01*
X83236908Y-82034148D01*
X83213773Y-82018690D01*
X83081310Y-81886227D01*
X83028919Y-81807818D01*
X82977234Y-81730466D01*
X82905546Y-81557395D01*
X82869000Y-81373667D01*
X82869000Y-81186333D01*
X82905546Y-81002605D01*
X82977234Y-80829534D01*
X83038716Y-80737520D01*
X83081310Y-80673773D01*
X83213773Y-80541310D01*
X83332914Y-80461703D01*
X83369534Y-80437234D01*
X83542605Y-80365546D01*
X83726333Y-80329000D01*
X83913667Y-80329000D01*
X84097395Y-80365546D01*
G37*
G36*
X124737395Y-80365546D02*
G01*
X124910466Y-80437234D01*
X124947086Y-80461703D01*
X125066227Y-80541310D01*
X125198690Y-80673773D01*
X125241284Y-80737520D01*
X125302766Y-80829534D01*
X125374454Y-81002605D01*
X125411000Y-81186333D01*
X125411000Y-81373667D01*
X125374454Y-81557395D01*
X125302766Y-81730466D01*
X125251081Y-81807818D01*
X125198690Y-81886227D01*
X125066227Y-82018690D01*
X125043092Y-82034148D01*
X124910466Y-82122766D01*
X124737395Y-82194454D01*
X124553667Y-82231000D01*
X124366333Y-82231000D01*
X124182605Y-82194454D01*
X124009534Y-82122766D01*
X123876908Y-82034148D01*
X123853773Y-82018690D01*
X123721310Y-81886227D01*
X123668919Y-81807818D01*
X123617234Y-81730466D01*
X123545546Y-81557395D01*
X123509000Y-81373667D01*
X123509000Y-81186333D01*
X123545546Y-81002605D01*
X123617234Y-80829534D01*
X123678716Y-80737520D01*
X123721310Y-80673773D01*
X123853773Y-80541310D01*
X123972914Y-80461703D01*
X124009534Y-80437234D01*
X124182605Y-80365546D01*
X124366333Y-80329000D01*
X124553667Y-80329000D01*
X124737395Y-80365546D01*
G37*
G36*
X146298228Y-80461703D02*
G01*
X146453100Y-80525853D01*
X146592481Y-80618985D01*
X146711015Y-80737519D01*
X146804147Y-80876900D01*
X146868297Y-81031772D01*
X146901000Y-81196184D01*
X146901000Y-81363816D01*
X146868297Y-81528228D01*
X146804147Y-81683100D01*
X146711015Y-81822481D01*
X146592481Y-81941015D01*
X146453100Y-82034147D01*
X146298228Y-82098297D01*
X146133816Y-82131000D01*
X145966184Y-82131000D01*
X145801772Y-82098297D01*
X145646900Y-82034147D01*
X145507519Y-81941015D01*
X145388985Y-81822481D01*
X145295853Y-81683100D01*
X145231703Y-81528228D01*
X145199000Y-81363816D01*
X145199000Y-81196184D01*
X145231703Y-81031772D01*
X145295853Y-80876900D01*
X145388985Y-80737519D01*
X145507519Y-80618985D01*
X145646900Y-80525853D01*
X145801772Y-80461703D01*
X145966184Y-80429000D01*
X146133816Y-80429000D01*
X146298228Y-80461703D01*
G37*
G36*
X133598228Y-80461703D02*
G01*
X133753100Y-80525853D01*
X133892481Y-80618985D01*
X134011015Y-80737519D01*
X134104147Y-80876900D01*
X134168297Y-81031772D01*
X134201000Y-81196184D01*
X134201000Y-81363816D01*
X134168297Y-81528228D01*
X134104147Y-81683100D01*
X134011015Y-81822481D01*
X133892481Y-81941015D01*
X133753100Y-82034147D01*
X133598228Y-82098297D01*
X133433816Y-82131000D01*
X133266184Y-82131000D01*
X133101772Y-82098297D01*
X132946900Y-82034147D01*
X132807519Y-81941015D01*
X132688985Y-81822481D01*
X132595853Y-81683100D01*
X132531703Y-81528228D01*
X132499000Y-81363816D01*
X132499000Y-81196184D01*
X132531703Y-81031772D01*
X132595853Y-80876900D01*
X132688985Y-80737519D01*
X132807519Y-80618985D01*
X132946900Y-80525853D01*
X133101772Y-80461703D01*
X133266184Y-80429000D01*
X133433816Y-80429000D01*
X133598228Y-80461703D01*
G37*
G36*
X91688228Y-80461703D02*
G01*
X91843100Y-80525853D01*
X91982481Y-80618985D01*
X92101015Y-80737519D01*
X92194147Y-80876900D01*
X92258297Y-81031772D01*
X92291000Y-81196184D01*
X92291000Y-81363816D01*
X92258297Y-81528228D01*
X92194147Y-81683100D01*
X92101015Y-81822481D01*
X91982481Y-81941015D01*
X91843100Y-82034147D01*
X91688228Y-82098297D01*
X91523816Y-82131000D01*
X91356184Y-82131000D01*
X91191772Y-82098297D01*
X91036900Y-82034147D01*
X90897519Y-81941015D01*
X90778985Y-81822481D01*
X90685853Y-81683100D01*
X90621703Y-81528228D01*
X90589000Y-81363816D01*
X90589000Y-81196184D01*
X90621703Y-81031772D01*
X90685853Y-80876900D01*
X90778985Y-80737519D01*
X90897519Y-80618985D01*
X91036900Y-80525853D01*
X91191772Y-80461703D01*
X91356184Y-80429000D01*
X91523816Y-80429000D01*
X91688228Y-80461703D01*
G37*
G36*
X104388228Y-80461703D02*
G01*
X104543100Y-80525853D01*
X104682481Y-80618985D01*
X104801015Y-80737519D01*
X104894147Y-80876900D01*
X104958297Y-81031772D01*
X104991000Y-81196184D01*
X104991000Y-81363816D01*
X104958297Y-81528228D01*
X104894147Y-81683100D01*
X104801015Y-81822481D01*
X104682481Y-81941015D01*
X104543100Y-82034147D01*
X104388228Y-82098297D01*
X104223816Y-82131000D01*
X104056184Y-82131000D01*
X103891772Y-82098297D01*
X103736900Y-82034147D01*
X103597519Y-81941015D01*
X103478985Y-81822481D01*
X103385853Y-81683100D01*
X103321703Y-81528228D01*
X103289000Y-81363816D01*
X103289000Y-81196184D01*
X103321703Y-81031772D01*
X103385853Y-80876900D01*
X103478985Y-80737519D01*
X103597519Y-80618985D01*
X103736900Y-80525853D01*
X103891772Y-80461703D01*
X104056184Y-80429000D01*
X104223816Y-80429000D01*
X104388228Y-80461703D01*
G37*
G36*
X100291000Y-81731000D02*
G01*
X99289000Y-81731000D01*
X99289000Y-80829000D01*
X100291000Y-80829000D01*
X100291000Y-81731000D01*
G37*
G36*
X141201000Y-81731000D02*
G01*
X140199000Y-81731000D01*
X140199000Y-80829000D01*
X141201000Y-80829000D01*
X141201000Y-81731000D01*
G37*
G36*
X117117395Y-79095546D02*
G01*
X117290466Y-79167234D01*
X117290467Y-79167235D01*
X117446227Y-79271310D01*
X117578690Y-79403773D01*
X117578691Y-79403775D01*
X117682766Y-79559534D01*
X117754454Y-79732605D01*
X117791000Y-79916333D01*
X117791000Y-80103667D01*
X117754454Y-80287395D01*
X117682766Y-80460466D01*
X117682765Y-80460467D01*
X117578690Y-80616227D01*
X117446227Y-80748690D01*
X117397871Y-80781000D01*
X117290466Y-80852766D01*
X117117395Y-80924454D01*
X116933667Y-80961000D01*
X116746333Y-80961000D01*
X116562605Y-80924454D01*
X116389534Y-80852766D01*
X116282129Y-80781000D01*
X116233773Y-80748690D01*
X116101310Y-80616227D01*
X115997235Y-80460467D01*
X115997234Y-80460466D01*
X115925546Y-80287395D01*
X115889000Y-80103667D01*
X115889000Y-79916333D01*
X115925546Y-79732605D01*
X115997234Y-79559534D01*
X116101309Y-79403775D01*
X116101310Y-79403773D01*
X116233773Y-79271310D01*
X116389533Y-79167235D01*
X116389534Y-79167234D01*
X116562605Y-79095546D01*
X116746333Y-79059000D01*
X116933667Y-79059000D01*
X117117395Y-79095546D01*
G37*
G36*
X157757395Y-79095546D02*
G01*
X157930466Y-79167234D01*
X157930467Y-79167235D01*
X158086227Y-79271310D01*
X158218690Y-79403773D01*
X158218691Y-79403775D01*
X158322766Y-79559534D01*
X158394454Y-79732605D01*
X158431000Y-79916333D01*
X158431000Y-80103667D01*
X158394454Y-80287395D01*
X158322766Y-80460466D01*
X158322765Y-80460467D01*
X158218690Y-80616227D01*
X158086227Y-80748690D01*
X158037871Y-80781000D01*
X157930466Y-80852766D01*
X157757395Y-80924454D01*
X157573667Y-80961000D01*
X157386333Y-80961000D01*
X157202605Y-80924454D01*
X157029534Y-80852766D01*
X156922129Y-80781000D01*
X156873773Y-80748690D01*
X156741310Y-80616227D01*
X156637235Y-80460467D01*
X156637234Y-80460466D01*
X156565546Y-80287395D01*
X156529000Y-80103667D01*
X156529000Y-79916333D01*
X156565546Y-79732605D01*
X156637234Y-79559534D01*
X156741309Y-79403775D01*
X156741310Y-79403773D01*
X156873773Y-79271310D01*
X157029533Y-79167235D01*
X157029534Y-79167234D01*
X157202605Y-79095546D01*
X157386333Y-79059000D01*
X157573667Y-79059000D01*
X157757395Y-79095546D01*
G37*
G36*
X139201000Y-80781000D02*
G01*
X138199000Y-80781000D01*
X138199000Y-79879000D01*
X139201000Y-79879000D01*
X139201000Y-80781000D01*
G37*
G36*
X98291000Y-80781000D02*
G01*
X97289000Y-80781000D01*
X97289000Y-79879000D01*
X98291000Y-79879000D01*
X98291000Y-80781000D01*
G37*
G36*
X125411000Y-79691000D02*
G01*
X123509000Y-79691000D01*
X123509000Y-77789000D01*
X125411000Y-77789000D01*
X125411000Y-79691000D01*
G37*
G36*
X84771000Y-79691000D02*
G01*
X82869000Y-79691000D01*
X82869000Y-77789000D01*
X84771000Y-77789000D01*
X84771000Y-79691000D01*
G37*
G36*
X162673512Y-77843927D02*
G01*
X162822812Y-77873624D01*
X162986784Y-77941544D01*
X163134354Y-78040147D01*
X163259853Y-78165646D01*
X163358456Y-78313216D01*
X163426376Y-78477188D01*
X163461000Y-78651259D01*
X163461000Y-78828741D01*
X163426376Y-79002812D01*
X163358456Y-79166784D01*
X163259853Y-79314354D01*
X163134354Y-79439853D01*
X162986784Y-79538456D01*
X162822812Y-79606376D01*
X162673512Y-79636073D01*
X162648742Y-79641000D01*
X162471258Y-79641000D01*
X162446488Y-79636073D01*
X162297188Y-79606376D01*
X162133216Y-79538456D01*
X161985646Y-79439853D01*
X161860147Y-79314354D01*
X161761544Y-79166784D01*
X161693624Y-79002812D01*
X161659000Y-78828741D01*
X161659000Y-78651259D01*
X161693624Y-78477188D01*
X161761544Y-78313216D01*
X161860147Y-78165646D01*
X161985646Y-78040147D01*
X162133216Y-77941544D01*
X162297188Y-77873624D01*
X162446488Y-77843927D01*
X162471258Y-77839000D01*
X162648742Y-77839000D01*
X162673512Y-77843927D01*
G37*
G36*
X76313512Y-77843927D02*
G01*
X76462812Y-77873624D01*
X76626784Y-77941544D01*
X76774354Y-78040147D01*
X76899853Y-78165646D01*
X76998456Y-78313216D01*
X77066376Y-78477188D01*
X77101000Y-78651259D01*
X77101000Y-78828741D01*
X77066376Y-79002812D01*
X76998456Y-79166784D01*
X76899853Y-79314354D01*
X76774354Y-79439853D01*
X76626784Y-79538456D01*
X76462812Y-79606376D01*
X76313512Y-79636073D01*
X76288742Y-79641000D01*
X76111258Y-79641000D01*
X76086488Y-79636073D01*
X75937188Y-79606376D01*
X75773216Y-79538456D01*
X75625646Y-79439853D01*
X75500147Y-79314354D01*
X75401544Y-79166784D01*
X75333624Y-79002812D01*
X75299000Y-78828741D01*
X75299000Y-78651259D01*
X75333624Y-78477188D01*
X75401544Y-78313216D01*
X75500147Y-78165646D01*
X75625646Y-78040147D01*
X75773216Y-77941544D01*
X75937188Y-77873624D01*
X76086488Y-77843927D01*
X76111258Y-77839000D01*
X76288742Y-77839000D01*
X76313512Y-77843927D01*
G37*
G36*
X158431000Y-78421000D02*
G01*
X156529000Y-78421000D01*
X156529000Y-76519000D01*
X158431000Y-76519000D01*
X158431000Y-78421000D01*
G37*
G36*
X117791000Y-78421000D02*
G01*
X115889000Y-78421000D01*
X115889000Y-76519000D01*
X117791000Y-76519000D01*
X117791000Y-78421000D01*
G37*
G36*
X162673512Y-75303927D02*
G01*
X162822812Y-75333624D01*
X162986784Y-75401544D01*
X163134354Y-75500147D01*
X163259853Y-75625646D01*
X163358456Y-75773216D01*
X163426376Y-75937188D01*
X163461000Y-76111259D01*
X163461000Y-76288741D01*
X163426376Y-76462812D01*
X163358456Y-76626784D01*
X163259853Y-76774354D01*
X163134354Y-76899853D01*
X162986784Y-76998456D01*
X162822812Y-77066376D01*
X162673512Y-77096073D01*
X162648742Y-77101000D01*
X162471258Y-77101000D01*
X162446488Y-77096073D01*
X162297188Y-77066376D01*
X162133216Y-76998456D01*
X161985646Y-76899853D01*
X161860147Y-76774354D01*
X161761544Y-76626784D01*
X161693624Y-76462812D01*
X161659000Y-76288741D01*
X161659000Y-76111259D01*
X161693624Y-75937188D01*
X161761544Y-75773216D01*
X161860147Y-75625646D01*
X161985646Y-75500147D01*
X162133216Y-75401544D01*
X162297188Y-75333624D01*
X162446488Y-75303927D01*
X162471258Y-75299000D01*
X162648742Y-75299000D01*
X162673512Y-75303927D01*
G37*
G36*
X76313512Y-75303927D02*
G01*
X76462812Y-75333624D01*
X76626784Y-75401544D01*
X76774354Y-75500147D01*
X76899853Y-75625646D01*
X76998456Y-75773216D01*
X77066376Y-75937188D01*
X77101000Y-76111259D01*
X77101000Y-76288741D01*
X77066376Y-76462812D01*
X76998456Y-76626784D01*
X76899853Y-76774354D01*
X76774354Y-76899853D01*
X76626784Y-76998456D01*
X76462812Y-77066376D01*
X76313512Y-77096073D01*
X76288742Y-77101000D01*
X76111258Y-77101000D01*
X76086488Y-77096073D01*
X75937188Y-77066376D01*
X75773216Y-76998456D01*
X75625646Y-76899853D01*
X75500147Y-76774354D01*
X75401544Y-76626784D01*
X75333624Y-76462812D01*
X75299000Y-76288741D01*
X75299000Y-76111259D01*
X75333624Y-75937188D01*
X75401544Y-75773216D01*
X75500147Y-75625646D01*
X75625646Y-75500147D01*
X75773216Y-75401544D01*
X75937188Y-75333624D01*
X76086488Y-75303927D01*
X76111258Y-75299000D01*
X76288742Y-75299000D01*
X76313512Y-75303927D01*
G37*
G36*
X128547395Y-72745546D02*
G01*
X128720466Y-72817234D01*
X128720467Y-72817235D01*
X128876227Y-72921310D01*
X129008690Y-73053773D01*
X129008691Y-73053775D01*
X129112766Y-73209534D01*
X129184454Y-73382605D01*
X129221000Y-73566333D01*
X129221000Y-73753667D01*
X129184454Y-73937395D01*
X129112766Y-74110466D01*
X129112765Y-74110467D01*
X129008690Y-74266227D01*
X128876227Y-74398690D01*
X128797818Y-74451081D01*
X128720466Y-74502766D01*
X128547395Y-74574454D01*
X128363667Y-74611000D01*
X128176333Y-74611000D01*
X127992605Y-74574454D01*
X127819534Y-74502766D01*
X127742182Y-74451081D01*
X127663773Y-74398690D01*
X127531310Y-74266227D01*
X127427235Y-74110467D01*
X127427234Y-74110466D01*
X127355546Y-73937395D01*
X127319000Y-73753667D01*
X127319000Y-73566333D01*
X127355546Y-73382605D01*
X127427234Y-73209534D01*
X127531309Y-73053775D01*
X127531310Y-73053773D01*
X127663773Y-72921310D01*
X127819533Y-72817235D01*
X127819534Y-72817234D01*
X127992605Y-72745546D01*
X128176333Y-72709000D01*
X128363667Y-72709000D01*
X128547395Y-72745546D01*
G37*
G36*
X113981000Y-74611000D02*
G01*
X112079000Y-74611000D01*
X112079000Y-72709000D01*
X113981000Y-72709000D01*
X113981000Y-74611000D01*
G37*
G36*
X151407395Y-72745546D02*
G01*
X151580466Y-72817234D01*
X151580467Y-72817235D01*
X151736227Y-72921310D01*
X151868690Y-73053773D01*
X151868691Y-73053775D01*
X151972766Y-73209534D01*
X152044454Y-73382605D01*
X152081000Y-73566333D01*
X152081000Y-73753667D01*
X152044454Y-73937395D01*
X151972766Y-74110466D01*
X151972765Y-74110467D01*
X151868690Y-74266227D01*
X151736227Y-74398690D01*
X151657818Y-74451081D01*
X151580466Y-74502766D01*
X151407395Y-74574454D01*
X151223667Y-74611000D01*
X151036333Y-74611000D01*
X150852605Y-74574454D01*
X150679534Y-74502766D01*
X150602182Y-74451081D01*
X150523773Y-74398690D01*
X150391310Y-74266227D01*
X150287235Y-74110467D01*
X150287234Y-74110466D01*
X150215546Y-73937395D01*
X150179000Y-73753667D01*
X150179000Y-73566333D01*
X150215546Y-73382605D01*
X150287234Y-73209534D01*
X150391309Y-73053775D01*
X150391310Y-73053773D01*
X150523773Y-72921310D01*
X150679533Y-72817235D01*
X150679534Y-72817234D01*
X150852605Y-72745546D01*
X151036333Y-72709000D01*
X151223667Y-72709000D01*
X151407395Y-72745546D01*
G37*
G36*
X110767395Y-72745546D02*
G01*
X110940466Y-72817234D01*
X110940467Y-72817235D01*
X111096227Y-72921310D01*
X111228690Y-73053773D01*
X111228691Y-73053775D01*
X111332766Y-73209534D01*
X111404454Y-73382605D01*
X111441000Y-73566333D01*
X111441000Y-73753667D01*
X111404454Y-73937395D01*
X111332766Y-74110466D01*
X111332765Y-74110467D01*
X111228690Y-74266227D01*
X111096227Y-74398690D01*
X111017818Y-74451081D01*
X110940466Y-74502766D01*
X110767395Y-74574454D01*
X110583667Y-74611000D01*
X110396333Y-74611000D01*
X110212605Y-74574454D01*
X110039534Y-74502766D01*
X109962182Y-74451081D01*
X109883773Y-74398690D01*
X109751310Y-74266227D01*
X109647235Y-74110467D01*
X109647234Y-74110466D01*
X109575546Y-73937395D01*
X109539000Y-73753667D01*
X109539000Y-73566333D01*
X109575546Y-73382605D01*
X109647234Y-73209534D01*
X109751309Y-73053775D01*
X109751310Y-73053773D01*
X109883773Y-72921310D01*
X110039533Y-72817235D01*
X110039534Y-72817234D01*
X110212605Y-72745546D01*
X110396333Y-72709000D01*
X110583667Y-72709000D01*
X110767395Y-72745546D01*
G37*
G36*
X87907395Y-72745546D02*
G01*
X88080466Y-72817234D01*
X88080467Y-72817235D01*
X88236227Y-72921310D01*
X88368690Y-73053773D01*
X88368691Y-73053775D01*
X88472766Y-73209534D01*
X88544454Y-73382605D01*
X88581000Y-73566333D01*
X88581000Y-73753667D01*
X88544454Y-73937395D01*
X88472766Y-74110466D01*
X88472765Y-74110467D01*
X88368690Y-74266227D01*
X88236227Y-74398690D01*
X88157818Y-74451081D01*
X88080466Y-74502766D01*
X87907395Y-74574454D01*
X87723667Y-74611000D01*
X87536333Y-74611000D01*
X87352605Y-74574454D01*
X87179534Y-74502766D01*
X87102182Y-74451081D01*
X87023773Y-74398690D01*
X86891310Y-74266227D01*
X86787235Y-74110467D01*
X86787234Y-74110466D01*
X86715546Y-73937395D01*
X86679000Y-73753667D01*
X86679000Y-73566333D01*
X86715546Y-73382605D01*
X86787234Y-73209534D01*
X86891309Y-73053775D01*
X86891310Y-73053773D01*
X87023773Y-72921310D01*
X87179533Y-72817235D01*
X87179534Y-72817234D01*
X87352605Y-72745546D01*
X87536333Y-72709000D01*
X87723667Y-72709000D01*
X87907395Y-72745546D01*
G37*
G36*
X91121000Y-74611000D02*
G01*
X89219000Y-74611000D01*
X89219000Y-72709000D01*
X91121000Y-72709000D01*
X91121000Y-74611000D01*
G37*
G36*
X131761000Y-74611000D02*
G01*
X129859000Y-74611000D01*
X129859000Y-72709000D01*
X131761000Y-72709000D01*
X131761000Y-74611000D01*
G37*
G36*
X154621000Y-74611000D02*
G01*
X152719000Y-74611000D01*
X152719000Y-72709000D01*
X154621000Y-72709000D01*
X154621000Y-74611000D01*
G37*
G36*
X76313512Y-72763927D02*
G01*
X76462812Y-72793624D01*
X76626784Y-72861544D01*
X76774354Y-72960147D01*
X76899853Y-73085646D01*
X76998456Y-73233216D01*
X77066376Y-73397188D01*
X77101000Y-73571259D01*
X77101000Y-73748741D01*
X77066376Y-73922812D01*
X76998456Y-74086784D01*
X76899853Y-74234354D01*
X76774354Y-74359853D01*
X76626784Y-74458456D01*
X76462812Y-74526376D01*
X76313512Y-74556073D01*
X76288742Y-74561000D01*
X76111258Y-74561000D01*
X76086488Y-74556073D01*
X75937188Y-74526376D01*
X75773216Y-74458456D01*
X75625646Y-74359853D01*
X75500147Y-74234354D01*
X75401544Y-74086784D01*
X75333624Y-73922812D01*
X75299000Y-73748741D01*
X75299000Y-73571259D01*
X75333624Y-73397188D01*
X75401544Y-73233216D01*
X75500147Y-73085646D01*
X75625646Y-72960147D01*
X75773216Y-72861544D01*
X75937188Y-72793624D01*
X76086488Y-72763927D01*
X76111258Y-72759000D01*
X76288742Y-72759000D01*
X76313512Y-72763927D01*
G37*
G36*
X162673512Y-72763927D02*
G01*
X162822812Y-72793624D01*
X162986784Y-72861544D01*
X163134354Y-72960147D01*
X163259853Y-73085646D01*
X163358456Y-73233216D01*
X163426376Y-73397188D01*
X163461000Y-73571259D01*
X163461000Y-73748741D01*
X163426376Y-73922812D01*
X163358456Y-74086784D01*
X163259853Y-74234354D01*
X163134354Y-74359853D01*
X162986784Y-74458456D01*
X162822812Y-74526376D01*
X162673512Y-74556073D01*
X162648742Y-74561000D01*
X162471258Y-74561000D01*
X162446488Y-74556073D01*
X162297188Y-74526376D01*
X162133216Y-74458456D01*
X161985646Y-74359853D01*
X161860147Y-74234354D01*
X161761544Y-74086784D01*
X161693624Y-73922812D01*
X161659000Y-73748741D01*
X161659000Y-73571259D01*
X161693624Y-73397188D01*
X161761544Y-73233216D01*
X161860147Y-73085646D01*
X161985646Y-72960147D01*
X162133216Y-72861544D01*
X162297188Y-72793624D01*
X162446488Y-72763927D01*
X162471258Y-72759000D01*
X162648742Y-72759000D01*
X162673512Y-72763927D01*
G37*
G36*
X76313512Y-70223927D02*
G01*
X76462812Y-70253624D01*
X76626784Y-70321544D01*
X76774354Y-70420147D01*
X76899853Y-70545646D01*
X76998456Y-70693216D01*
X77066376Y-70857188D01*
X77101000Y-71031259D01*
X77101000Y-71208741D01*
X77066376Y-71382812D01*
X76998456Y-71546784D01*
X76899853Y-71694354D01*
X76774354Y-71819853D01*
X76626784Y-71918456D01*
X76462812Y-71986376D01*
X76313512Y-72016073D01*
X76288742Y-72021000D01*
X76111258Y-72021000D01*
X76086488Y-72016073D01*
X75937188Y-71986376D01*
X75773216Y-71918456D01*
X75625646Y-71819853D01*
X75500147Y-71694354D01*
X75401544Y-71546784D01*
X75333624Y-71382812D01*
X75299000Y-71208741D01*
X75299000Y-71031259D01*
X75333624Y-70857188D01*
X75401544Y-70693216D01*
X75500147Y-70545646D01*
X75625646Y-70420147D01*
X75773216Y-70321544D01*
X75937188Y-70253624D01*
X76086488Y-70223927D01*
X76111258Y-70219000D01*
X76288742Y-70219000D01*
X76313512Y-70223927D01*
G37*
G36*
X162673512Y-70223927D02*
G01*
X162822812Y-70253624D01*
X162986784Y-70321544D01*
X163134354Y-70420147D01*
X163259853Y-70545646D01*
X163358456Y-70693216D01*
X163426376Y-70857188D01*
X163461000Y-71031259D01*
X163461000Y-71208741D01*
X163426376Y-71382812D01*
X163358456Y-71546784D01*
X163259853Y-71694354D01*
X163134354Y-71819853D01*
X162986784Y-71918456D01*
X162822812Y-71986376D01*
X162673512Y-72016073D01*
X162648742Y-72021000D01*
X162471258Y-72021000D01*
X162446488Y-72016073D01*
X162297188Y-71986376D01*
X162133216Y-71918456D01*
X161985646Y-71819853D01*
X161860147Y-71694354D01*
X161761544Y-71546784D01*
X161693624Y-71382812D01*
X161659000Y-71208741D01*
X161659000Y-71031259D01*
X161693624Y-70857188D01*
X161761544Y-70693216D01*
X161860147Y-70545646D01*
X161985646Y-70420147D01*
X162133216Y-70321544D01*
X162297188Y-70253624D01*
X162446488Y-70223927D01*
X162471258Y-70219000D01*
X162648742Y-70219000D01*
X162673512Y-70223927D01*
G37*
G36*
X106361000Y-70801000D02*
G01*
X104459000Y-70801000D01*
X104459000Y-68899000D01*
X106361000Y-68899000D01*
X106361000Y-70801000D01*
G37*
G36*
X103147395Y-68935546D02*
G01*
X103320466Y-69007234D01*
X103320467Y-69007235D01*
X103476227Y-69111310D01*
X103608690Y-69243773D01*
X103608691Y-69243775D01*
X103712766Y-69399534D01*
X103784454Y-69572605D01*
X103821000Y-69756333D01*
X103821000Y-69943667D01*
X103784454Y-70127395D01*
X103712766Y-70300466D01*
X103712765Y-70300467D01*
X103608690Y-70456227D01*
X103476227Y-70588690D01*
X103397818Y-70641081D01*
X103320466Y-70692766D01*
X103147395Y-70764454D01*
X102963667Y-70801000D01*
X102776333Y-70801000D01*
X102592605Y-70764454D01*
X102419534Y-70692766D01*
X102342182Y-70641081D01*
X102263773Y-70588690D01*
X102131310Y-70456227D01*
X102027235Y-70300467D01*
X102027234Y-70300466D01*
X101955546Y-70127395D01*
X101919000Y-69943667D01*
X101919000Y-69756333D01*
X101955546Y-69572605D01*
X102027234Y-69399534D01*
X102131309Y-69243775D01*
X102131310Y-69243773D01*
X102263773Y-69111310D01*
X102419533Y-69007235D01*
X102419534Y-69007234D01*
X102592605Y-68935546D01*
X102776333Y-68899000D01*
X102963667Y-68899000D01*
X103147395Y-68935546D01*
G37*
G36*
X95527395Y-68935546D02*
G01*
X95700466Y-69007234D01*
X95700467Y-69007235D01*
X95856227Y-69111310D01*
X95988690Y-69243773D01*
X95988691Y-69243775D01*
X96092766Y-69399534D01*
X96164454Y-69572605D01*
X96201000Y-69756333D01*
X96201000Y-69943667D01*
X96164454Y-70127395D01*
X96092766Y-70300466D01*
X96092765Y-70300467D01*
X95988690Y-70456227D01*
X95856227Y-70588690D01*
X95777818Y-70641081D01*
X95700466Y-70692766D01*
X95527395Y-70764454D01*
X95343667Y-70801000D01*
X95156333Y-70801000D01*
X94972605Y-70764454D01*
X94799534Y-70692766D01*
X94722182Y-70641081D01*
X94643773Y-70588690D01*
X94511310Y-70456227D01*
X94407235Y-70300467D01*
X94407234Y-70300466D01*
X94335546Y-70127395D01*
X94299000Y-69943667D01*
X94299000Y-69756333D01*
X94335546Y-69572605D01*
X94407234Y-69399534D01*
X94511309Y-69243775D01*
X94511310Y-69243773D01*
X94643773Y-69111310D01*
X94799533Y-69007235D01*
X94799534Y-69007234D01*
X94972605Y-68935546D01*
X95156333Y-68899000D01*
X95343667Y-68899000D01*
X95527395Y-68935546D01*
G37*
G36*
X142517395Y-68935546D02*
G01*
X142690466Y-69007234D01*
X142690467Y-69007235D01*
X142846227Y-69111310D01*
X142978690Y-69243773D01*
X142978691Y-69243775D01*
X143082766Y-69399534D01*
X143154454Y-69572605D01*
X143191000Y-69756333D01*
X143191000Y-69943667D01*
X143154454Y-70127395D01*
X143082766Y-70300466D01*
X143082765Y-70300467D01*
X142978690Y-70456227D01*
X142846227Y-70588690D01*
X142767818Y-70641081D01*
X142690466Y-70692766D01*
X142517395Y-70764454D01*
X142333667Y-70801000D01*
X142146333Y-70801000D01*
X141962605Y-70764454D01*
X141789534Y-70692766D01*
X141712182Y-70641081D01*
X141633773Y-70588690D01*
X141501310Y-70456227D01*
X141397235Y-70300467D01*
X141397234Y-70300466D01*
X141325546Y-70127395D01*
X141289000Y-69943667D01*
X141289000Y-69756333D01*
X141325546Y-69572605D01*
X141397234Y-69399534D01*
X141501309Y-69243775D01*
X141501310Y-69243773D01*
X141633773Y-69111310D01*
X141789533Y-69007235D01*
X141789534Y-69007234D01*
X141962605Y-68935546D01*
X142146333Y-68899000D01*
X142333667Y-68899000D01*
X142517395Y-68935546D01*
G37*
G36*
X138111000Y-70801000D02*
G01*
X136209000Y-70801000D01*
X136209000Y-68899000D01*
X138111000Y-68899000D01*
X138111000Y-70801000D01*
G37*
G36*
X134897395Y-68935546D02*
G01*
X135070466Y-69007234D01*
X135070467Y-69007235D01*
X135226227Y-69111310D01*
X135358690Y-69243773D01*
X135358691Y-69243775D01*
X135462766Y-69399534D01*
X135534454Y-69572605D01*
X135571000Y-69756333D01*
X135571000Y-69943667D01*
X135534454Y-70127395D01*
X135462766Y-70300466D01*
X135462765Y-70300467D01*
X135358690Y-70456227D01*
X135226227Y-70588690D01*
X135147818Y-70641081D01*
X135070466Y-70692766D01*
X134897395Y-70764454D01*
X134713667Y-70801000D01*
X134526333Y-70801000D01*
X134342605Y-70764454D01*
X134169534Y-70692766D01*
X134092182Y-70641081D01*
X134013773Y-70588690D01*
X133881310Y-70456227D01*
X133777235Y-70300467D01*
X133777234Y-70300466D01*
X133705546Y-70127395D01*
X133669000Y-69943667D01*
X133669000Y-69756333D01*
X133705546Y-69572605D01*
X133777234Y-69399534D01*
X133881309Y-69243775D01*
X133881310Y-69243773D01*
X134013773Y-69111310D01*
X134169533Y-69007235D01*
X134169534Y-69007234D01*
X134342605Y-68935546D01*
X134526333Y-68899000D01*
X134713667Y-68899000D01*
X134897395Y-68935546D01*
G37*
G36*
X145731000Y-70801000D02*
G01*
X143829000Y-70801000D01*
X143829000Y-68899000D01*
X145731000Y-68899000D01*
X145731000Y-70801000D01*
G37*
G36*
X98741000Y-70801000D02*
G01*
X96839000Y-70801000D01*
X96839000Y-68899000D01*
X98741000Y-68899000D01*
X98741000Y-70801000D01*
G37*
G36*
X76313512Y-67683927D02*
G01*
X76462812Y-67713624D01*
X76626784Y-67781544D01*
X76774354Y-67880147D01*
X76899853Y-68005646D01*
X76998456Y-68153216D01*
X77066376Y-68317188D01*
X77101000Y-68491259D01*
X77101000Y-68668741D01*
X77066376Y-68842812D01*
X76998456Y-69006784D01*
X76899853Y-69154354D01*
X76774354Y-69279853D01*
X76626784Y-69378456D01*
X76462812Y-69446376D01*
X76313512Y-69476073D01*
X76288742Y-69481000D01*
X76111258Y-69481000D01*
X76086488Y-69476073D01*
X75937188Y-69446376D01*
X75773216Y-69378456D01*
X75625646Y-69279853D01*
X75500147Y-69154354D01*
X75401544Y-69006784D01*
X75333624Y-68842812D01*
X75299000Y-68668741D01*
X75299000Y-68491259D01*
X75333624Y-68317188D01*
X75401544Y-68153216D01*
X75500147Y-68005646D01*
X75625646Y-67880147D01*
X75773216Y-67781544D01*
X75937188Y-67713624D01*
X76086488Y-67683927D01*
X76111258Y-67679000D01*
X76288742Y-67679000D01*
X76313512Y-67683927D01*
G37*
G36*
X162673512Y-67683927D02*
G01*
X162822812Y-67713624D01*
X162986784Y-67781544D01*
X163134354Y-67880147D01*
X163259853Y-68005646D01*
X163358456Y-68153216D01*
X163426376Y-68317188D01*
X163461000Y-68491259D01*
X163461000Y-68668741D01*
X163426376Y-68842812D01*
X163358456Y-69006784D01*
X163259853Y-69154354D01*
X163134354Y-69279853D01*
X162986784Y-69378456D01*
X162822812Y-69446376D01*
X162673512Y-69476073D01*
X162648742Y-69481000D01*
X162471258Y-69481000D01*
X162446488Y-69476073D01*
X162297188Y-69446376D01*
X162133216Y-69378456D01*
X161985646Y-69279853D01*
X161860147Y-69154354D01*
X161761544Y-69006784D01*
X161693624Y-68842812D01*
X161659000Y-68668741D01*
X161659000Y-68491259D01*
X161693624Y-68317188D01*
X161761544Y-68153216D01*
X161860147Y-68005646D01*
X161985646Y-67880147D01*
X162133216Y-67781544D01*
X162297188Y-67713624D01*
X162446488Y-67683927D01*
X162471258Y-67679000D01*
X162648742Y-67679000D01*
X162673512Y-67683927D01*
G37*
G36*
X122223765Y-65038620D02*
G01*
X122413288Y-65117123D01*
X122583854Y-65231092D01*
X122728908Y-65376146D01*
X122842877Y-65546712D01*
X122921380Y-65736235D01*
X122961400Y-65937431D01*
X122961400Y-66142569D01*
X122921380Y-66343765D01*
X122842877Y-66533288D01*
X122728908Y-66703854D01*
X122583854Y-66848908D01*
X122413288Y-66962877D01*
X122413287Y-66962878D01*
X122413286Y-66962878D01*
X122223765Y-67041380D01*
X122022570Y-67081400D01*
X121817430Y-67081400D01*
X121616235Y-67041380D01*
X121426714Y-66962878D01*
X121426713Y-66962878D01*
X121426712Y-66962877D01*
X121256146Y-66848908D01*
X121111092Y-66703854D01*
X120997123Y-66533288D01*
X120918620Y-66343765D01*
X120878600Y-66142569D01*
X120878600Y-65937431D01*
X120918620Y-65736235D01*
X120997123Y-65546712D01*
X121111092Y-65376146D01*
X121256146Y-65231092D01*
X121426712Y-65117123D01*
X121616235Y-65038620D01*
X121817430Y-64998600D01*
X122022570Y-64998600D01*
X122223765Y-65038620D01*
G37*
G36*
X124763765Y-65038620D02*
G01*
X124953288Y-65117123D01*
X125123854Y-65231092D01*
X125268908Y-65376146D01*
X125382877Y-65546712D01*
X125461380Y-65736235D01*
X125501400Y-65937431D01*
X125501400Y-66142569D01*
X125461380Y-66343765D01*
X125382877Y-66533288D01*
X125268908Y-66703854D01*
X125123854Y-66848908D01*
X124953288Y-66962877D01*
X124953287Y-66962878D01*
X124953286Y-66962878D01*
X124763765Y-67041380D01*
X124562570Y-67081400D01*
X124357430Y-67081400D01*
X124156235Y-67041380D01*
X123966714Y-66962878D01*
X123966713Y-66962878D01*
X123966712Y-66962877D01*
X123796146Y-66848908D01*
X123651092Y-66703854D01*
X123537123Y-66533288D01*
X123458620Y-66343765D01*
X123418600Y-66142569D01*
X123418600Y-65937431D01*
X123458620Y-65736235D01*
X123537123Y-65546712D01*
X123651092Y-65376146D01*
X123796146Y-65231092D01*
X123966712Y-65117123D01*
X124156235Y-65038620D01*
X124357430Y-64998600D01*
X124562570Y-64998600D01*
X124763765Y-65038620D01*
G37*
G36*
X163461000Y-66941000D02*
G01*
X161659000Y-66941000D01*
X161659000Y-65139000D01*
X163461000Y-65139000D01*
X163461000Y-66941000D01*
G37*
G36*
X77101000Y-66941000D02*
G01*
X75299000Y-66941000D01*
X75299000Y-65139000D01*
X77101000Y-65139000D01*
X77101000Y-66941000D01*
G37*
G36*
X124763765Y-62498620D02*
G01*
X124953288Y-62577123D01*
X125123854Y-62691092D01*
X125268908Y-62836146D01*
X125382877Y-63006712D01*
X125461380Y-63196235D01*
X125501400Y-63397431D01*
X125501400Y-63602569D01*
X125461380Y-63803765D01*
X125382877Y-63993288D01*
X125268908Y-64163854D01*
X125123854Y-64308908D01*
X124953288Y-64422877D01*
X124953287Y-64422878D01*
X124953286Y-64422878D01*
X124763765Y-64501380D01*
X124562570Y-64541400D01*
X124357430Y-64541400D01*
X124156235Y-64501380D01*
X123966714Y-64422878D01*
X123966713Y-64422878D01*
X123966712Y-64422877D01*
X123796146Y-64308908D01*
X123651092Y-64163854D01*
X123537123Y-63993288D01*
X123458620Y-63803765D01*
X123418600Y-63602569D01*
X123418600Y-63397431D01*
X123458620Y-63196235D01*
X123537123Y-63006712D01*
X123651092Y-62836146D01*
X123796146Y-62691092D01*
X123966712Y-62577123D01*
X124156235Y-62498620D01*
X124357430Y-62458600D01*
X124562570Y-62458600D01*
X124763765Y-62498620D01*
G37*
G36*
X122223765Y-62498620D02*
G01*
X122413288Y-62577123D01*
X122583854Y-62691092D01*
X122728908Y-62836146D01*
X122842877Y-63006712D01*
X122921380Y-63196235D01*
X122961400Y-63397431D01*
X122961400Y-63602569D01*
X122921380Y-63803765D01*
X122842877Y-63993288D01*
X122728908Y-64163854D01*
X122583854Y-64308908D01*
X122413288Y-64422877D01*
X122413287Y-64422878D01*
X122413286Y-64422878D01*
X122223765Y-64501380D01*
X122022570Y-64541400D01*
X121817430Y-64541400D01*
X121616235Y-64501380D01*
X121426714Y-64422878D01*
X121426713Y-64422878D01*
X121426712Y-64422877D01*
X121256146Y-64308908D01*
X121111092Y-64163854D01*
X120997123Y-63993288D01*
X120918620Y-63803765D01*
X120878600Y-63602569D01*
X120878600Y-63397431D01*
X120918620Y-63196235D01*
X120997123Y-63006712D01*
X121111092Y-62836146D01*
X121256146Y-62691092D01*
X121426712Y-62577123D01*
X121616235Y-62498620D01*
X121817430Y-62458600D01*
X122022570Y-62458600D01*
X122223765Y-62498620D01*
G37*
G36*
X132328228Y-62681703D02*
G01*
X132483100Y-62745853D01*
X132622481Y-62838985D01*
X132741015Y-62957519D01*
X132834147Y-63096900D01*
X132898297Y-63251772D01*
X132931000Y-63416184D01*
X132931000Y-63583816D01*
X132898297Y-63748228D01*
X132834147Y-63903100D01*
X132741015Y-64042481D01*
X132622481Y-64161015D01*
X132483100Y-64254147D01*
X132328228Y-64318297D01*
X132163816Y-64351000D01*
X131996184Y-64351000D01*
X131831772Y-64318297D01*
X131676900Y-64254147D01*
X131537519Y-64161015D01*
X131418985Y-64042481D01*
X131325853Y-63903100D01*
X131261703Y-63748228D01*
X131229000Y-63583816D01*
X131229000Y-63416184D01*
X131261703Y-63251772D01*
X131325853Y-63096900D01*
X131418985Y-62957519D01*
X131537519Y-62838985D01*
X131676900Y-62745853D01*
X131831772Y-62681703D01*
X131996184Y-62649000D01*
X132163816Y-62649000D01*
X132328228Y-62681703D01*
G37*
G36*
X145028228Y-62681703D02*
G01*
X145183100Y-62745853D01*
X145322481Y-62838985D01*
X145441015Y-62957519D01*
X145534147Y-63096900D01*
X145598297Y-63251772D01*
X145631000Y-63416184D01*
X145631000Y-63583816D01*
X145598297Y-63748228D01*
X145534147Y-63903100D01*
X145441015Y-64042481D01*
X145322481Y-64161015D01*
X145183100Y-64254147D01*
X145028228Y-64318297D01*
X144863816Y-64351000D01*
X144696184Y-64351000D01*
X144531772Y-64318297D01*
X144376900Y-64254147D01*
X144237519Y-64161015D01*
X144118985Y-64042481D01*
X144025853Y-63903100D01*
X143961703Y-63748228D01*
X143929000Y-63583816D01*
X143929000Y-63416184D01*
X143961703Y-63251772D01*
X144025853Y-63096900D01*
X144118985Y-62957519D01*
X144237519Y-62838985D01*
X144376900Y-62745853D01*
X144531772Y-62681703D01*
X144696184Y-62649000D01*
X144863816Y-62649000D01*
X145028228Y-62681703D01*
G37*
G36*
X114548228Y-62681703D02*
G01*
X114703100Y-62745853D01*
X114842481Y-62838985D01*
X114961015Y-62957519D01*
X115054147Y-63096900D01*
X115118297Y-63251772D01*
X115151000Y-63416184D01*
X115151000Y-63583816D01*
X115118297Y-63748228D01*
X115054147Y-63903100D01*
X114961015Y-64042481D01*
X114842481Y-64161015D01*
X114703100Y-64254147D01*
X114548228Y-64318297D01*
X114383816Y-64351000D01*
X114216184Y-64351000D01*
X114051772Y-64318297D01*
X113896900Y-64254147D01*
X113757519Y-64161015D01*
X113638985Y-64042481D01*
X113545853Y-63903100D01*
X113481703Y-63748228D01*
X113449000Y-63583816D01*
X113449000Y-63416184D01*
X113481703Y-63251772D01*
X113545853Y-63096900D01*
X113638985Y-62957519D01*
X113757519Y-62838985D01*
X113896900Y-62745853D01*
X114051772Y-62681703D01*
X114216184Y-62649000D01*
X114383816Y-62649000D01*
X114548228Y-62681703D01*
G37*
G36*
X101848228Y-62681703D02*
G01*
X102003100Y-62745853D01*
X102142481Y-62838985D01*
X102261015Y-62957519D01*
X102354147Y-63096900D01*
X102418297Y-63251772D01*
X102451000Y-63416184D01*
X102451000Y-63583816D01*
X102418297Y-63748228D01*
X102354147Y-63903100D01*
X102261015Y-64042481D01*
X102142481Y-64161015D01*
X102003100Y-64254147D01*
X101848228Y-64318297D01*
X101683816Y-64351000D01*
X101516184Y-64351000D01*
X101351772Y-64318297D01*
X101196900Y-64254147D01*
X101057519Y-64161015D01*
X100938985Y-64042481D01*
X100845853Y-63903100D01*
X100781703Y-63748228D01*
X100749000Y-63583816D01*
X100749000Y-63416184D01*
X100781703Y-63251772D01*
X100845853Y-63096900D01*
X100938985Y-62957519D01*
X101057519Y-62838985D01*
X101196900Y-62745853D01*
X101351772Y-62681703D01*
X101516184Y-62649000D01*
X101683816Y-62649000D01*
X101848228Y-62681703D01*
G37*
G36*
X94184473Y-62825938D02*
G01*
X94312049Y-62878782D01*
X94426859Y-62955495D01*
X94524505Y-63053141D01*
X94601218Y-63167951D01*
X94654062Y-63295527D01*
X94681000Y-63430956D01*
X94681000Y-63569044D01*
X94654062Y-63704473D01*
X94601218Y-63832049D01*
X94524505Y-63946859D01*
X94426859Y-64044505D01*
X94312049Y-64121218D01*
X94184473Y-64174062D01*
X94049044Y-64201000D01*
X93910956Y-64201000D01*
X93775527Y-64174062D01*
X93647951Y-64121218D01*
X93533141Y-64044505D01*
X93435495Y-63946859D01*
X93358782Y-63832049D01*
X93305938Y-63704473D01*
X93279000Y-63569044D01*
X93279000Y-63430956D01*
X93305938Y-63295527D01*
X93358782Y-63167951D01*
X93435495Y-63053141D01*
X93533141Y-62955495D01*
X93647951Y-62878782D01*
X93775527Y-62825938D01*
X93910956Y-62799000D01*
X94049044Y-62799000D01*
X94184473Y-62825938D01*
G37*
G36*
X153874473Y-62825938D02*
G01*
X154002049Y-62878782D01*
X154116859Y-62955495D01*
X154214505Y-63053141D01*
X154291218Y-63167951D01*
X154344062Y-63295527D01*
X154371000Y-63430956D01*
X154371000Y-63569044D01*
X154344062Y-63704473D01*
X154291218Y-63832049D01*
X154214505Y-63946859D01*
X154116859Y-64044505D01*
X154002049Y-64121218D01*
X153874473Y-64174062D01*
X153739044Y-64201000D01*
X153600956Y-64201000D01*
X153465527Y-64174062D01*
X153337951Y-64121218D01*
X153223141Y-64044505D01*
X153125495Y-63946859D01*
X153048782Y-63832049D01*
X152995938Y-63704473D01*
X152969000Y-63569044D01*
X152969000Y-63430956D01*
X152995938Y-63295527D01*
X153048782Y-63167951D01*
X153125495Y-63053141D01*
X153223141Y-62955495D01*
X153337951Y-62878782D01*
X153465527Y-62825938D01*
X153600956Y-62799000D01*
X153739044Y-62799000D01*
X153874473Y-62825938D01*
G37*
G36*
X94681000Y-61661000D02*
G01*
X93406749Y-61661000D01*
X93382363Y-61663402D01*
X93358914Y-61670515D01*
X93337303Y-61682066D01*
X93318361Y-61697611D01*
X93302816Y-61716553D01*
X93291265Y-61738164D01*
X93284152Y-61761613D01*
X93281750Y-61785999D01*
X93284152Y-61810385D01*
X93291265Y-61833834D01*
X93302816Y-61855444D01*
X93331218Y-61897951D01*
X93384062Y-62025527D01*
X93411000Y-62160956D01*
X93411000Y-62299044D01*
X93384062Y-62434473D01*
X93331218Y-62562049D01*
X93254505Y-62676859D01*
X93156859Y-62774505D01*
X93042049Y-62851218D01*
X92914473Y-62904062D01*
X92779044Y-62931000D01*
X92640956Y-62931000D01*
X92505527Y-62904062D01*
X92377951Y-62851218D01*
X92263141Y-62774505D01*
X92165495Y-62676859D01*
X92088782Y-62562049D01*
X92035938Y-62434473D01*
X92009000Y-62299044D01*
X92009000Y-62160956D01*
X92035938Y-62025527D01*
X92088782Y-61897951D01*
X92165495Y-61783141D01*
X92263141Y-61685495D01*
X92377951Y-61608782D01*
X92505527Y-61555938D01*
X92640956Y-61529000D01*
X92779044Y-61529000D01*
X92914473Y-61555938D01*
X93042049Y-61608782D01*
X93084556Y-61637184D01*
X93106167Y-61648735D01*
X93129616Y-61655848D01*
X93154002Y-61658250D01*
X93178388Y-61655848D01*
X93201837Y-61648735D01*
X93223447Y-61637183D01*
X93242389Y-61621638D01*
X93257934Y-61602696D01*
X93269485Y-61581085D01*
X93276598Y-61557636D01*
X93279000Y-61533251D01*
X93279000Y-60259000D01*
X94681000Y-60259000D01*
X94681000Y-61661000D01*
G37*
G36*
X154371000Y-61661000D02*
G01*
X153096749Y-61661000D01*
X153072363Y-61663402D01*
X153048914Y-61670515D01*
X153027303Y-61682066D01*
X153008361Y-61697611D01*
X152992816Y-61716553D01*
X152981265Y-61738164D01*
X152974152Y-61761613D01*
X152971750Y-61785999D01*
X152974152Y-61810385D01*
X152981265Y-61833834D01*
X152992816Y-61855444D01*
X153021218Y-61897951D01*
X153074062Y-62025527D01*
X153101000Y-62160956D01*
X153101000Y-62299044D01*
X153074062Y-62434473D01*
X153021218Y-62562049D01*
X152944505Y-62676859D01*
X152846859Y-62774505D01*
X152732049Y-62851218D01*
X152604473Y-62904062D01*
X152469044Y-62931000D01*
X152330956Y-62931000D01*
X152195527Y-62904062D01*
X152067951Y-62851218D01*
X151953141Y-62774505D01*
X151855495Y-62676859D01*
X151778782Y-62562049D01*
X151725938Y-62434473D01*
X151699000Y-62299044D01*
X151699000Y-62160956D01*
X151725938Y-62025527D01*
X151778782Y-61897951D01*
X151855495Y-61783141D01*
X151953141Y-61685495D01*
X152067951Y-61608782D01*
X152195527Y-61555938D01*
X152330956Y-61529000D01*
X152469044Y-61529000D01*
X152604473Y-61555938D01*
X152732049Y-61608782D01*
X152774556Y-61637184D01*
X152796167Y-61648735D01*
X152819616Y-61655848D01*
X152844002Y-61658250D01*
X152868388Y-61655848D01*
X152891837Y-61648735D01*
X152913447Y-61637183D01*
X152932389Y-61621638D01*
X152947934Y-61602696D01*
X152959485Y-61581085D01*
X152966598Y-61557636D01*
X152969000Y-61533251D01*
X152969000Y-60259000D01*
X154371000Y-60259000D01*
X154371000Y-61661000D01*
G37*
G36*
X124763765Y-59958620D02*
G01*
X124902356Y-60016026D01*
X124953288Y-60037123D01*
X125123854Y-60151092D01*
X125268908Y-60296146D01*
X125382877Y-60466712D01*
X125461380Y-60656235D01*
X125501400Y-60857431D01*
X125501400Y-61062569D01*
X125461380Y-61263765D01*
X125382877Y-61453288D01*
X125268908Y-61623854D01*
X125123854Y-61768908D01*
X124953288Y-61882877D01*
X124953287Y-61882878D01*
X124953286Y-61882878D01*
X124763765Y-61961380D01*
X124562570Y-62001400D01*
X124357430Y-62001400D01*
X124156235Y-61961380D01*
X123966714Y-61882878D01*
X123966713Y-61882878D01*
X123966712Y-61882877D01*
X123796146Y-61768908D01*
X123651092Y-61623854D01*
X123537123Y-61453288D01*
X123458620Y-61263765D01*
X123418600Y-61062569D01*
X123418600Y-60857431D01*
X123458620Y-60656235D01*
X123537123Y-60466712D01*
X123651092Y-60296146D01*
X123796146Y-60151092D01*
X123966712Y-60037123D01*
X124017645Y-60016026D01*
X124156235Y-59958620D01*
X124357430Y-59918600D01*
X124562570Y-59918600D01*
X124763765Y-59958620D01*
G37*
G36*
X122223765Y-59958620D02*
G01*
X122362356Y-60016026D01*
X122413288Y-60037123D01*
X122583854Y-60151092D01*
X122728908Y-60296146D01*
X122842877Y-60466712D01*
X122921380Y-60656235D01*
X122961400Y-60857431D01*
X122961400Y-61062569D01*
X122921380Y-61263765D01*
X122842877Y-61453288D01*
X122728908Y-61623854D01*
X122583854Y-61768908D01*
X122413288Y-61882877D01*
X122413287Y-61882878D01*
X122413286Y-61882878D01*
X122223765Y-61961380D01*
X122022570Y-62001400D01*
X121817430Y-62001400D01*
X121616235Y-61961380D01*
X121426714Y-61882878D01*
X121426713Y-61882878D01*
X121426712Y-61882877D01*
X121256146Y-61768908D01*
X121111092Y-61623854D01*
X120997123Y-61453288D01*
X120918620Y-61263765D01*
X120878600Y-61062569D01*
X120878600Y-60857431D01*
X120918620Y-60656235D01*
X120997123Y-60466712D01*
X121111092Y-60296146D01*
X121256146Y-60151092D01*
X121426712Y-60037123D01*
X121477645Y-60016026D01*
X121616235Y-59958620D01*
X121817430Y-59918600D01*
X122022570Y-59918600D01*
X122223765Y-59958620D01*
G37*
G36*
X168165331Y-56688211D02*
G01*
X168493092Y-56823974D01*
X168788070Y-57021072D01*
X169038928Y-57271930D01*
X169236026Y-57566908D01*
X169371789Y-57894669D01*
X169441000Y-58242616D01*
X169441000Y-58597384D01*
X169371789Y-58945331D01*
X169236026Y-59273092D01*
X169038928Y-59568070D01*
X168788070Y-59818928D01*
X168493092Y-60016026D01*
X168165331Y-60151789D01*
X167817384Y-60221000D01*
X167462616Y-60221000D01*
X167114669Y-60151789D01*
X166786908Y-60016026D01*
X166491930Y-59818928D01*
X166241072Y-59568070D01*
X166043974Y-59273092D01*
X165908211Y-58945331D01*
X165839000Y-58597384D01*
X165839000Y-58242616D01*
X165908211Y-57894669D01*
X166043974Y-57566908D01*
X166241072Y-57271930D01*
X166491930Y-57021072D01*
X166786908Y-56823974D01*
X167114669Y-56688211D01*
X167462616Y-56619000D01*
X167817384Y-56619000D01*
X168165331Y-56688211D01*
G37*
G36*
X79265331Y-56688211D02*
G01*
X79593092Y-56823974D01*
X79888070Y-57021072D01*
X80138928Y-57271930D01*
X80336026Y-57566908D01*
X80471789Y-57894669D01*
X80541000Y-58242616D01*
X80541000Y-58597384D01*
X80471789Y-58945331D01*
X80336026Y-59273092D01*
X80138928Y-59568070D01*
X79888070Y-59818928D01*
X79593092Y-60016026D01*
X79265331Y-60151789D01*
X78917384Y-60221000D01*
X78562616Y-60221000D01*
X78214669Y-60151789D01*
X77886908Y-60016026D01*
X77591930Y-59818928D01*
X77341072Y-59568070D01*
X77143974Y-59273092D01*
X77008211Y-58945331D01*
X76939000Y-58597384D01*
X76939000Y-58242616D01*
X77008211Y-57894669D01*
X77143974Y-57566908D01*
X77341072Y-57271930D01*
X77591930Y-57021072D01*
X77886908Y-56823974D01*
X78214669Y-56688211D01*
X78562616Y-56619000D01*
X78917384Y-56619000D01*
X79265331Y-56688211D01*
G37*
G36*
X145028228Y-57601703D02*
G01*
X145183100Y-57665853D01*
X145322481Y-57758985D01*
X145441015Y-57877519D01*
X145534147Y-58016900D01*
X145598297Y-58171772D01*
X145631000Y-58336184D01*
X145631000Y-58503816D01*
X145598297Y-58668228D01*
X145534147Y-58823100D01*
X145441015Y-58962481D01*
X145322481Y-59081015D01*
X145183100Y-59174147D01*
X145028228Y-59238297D01*
X144863816Y-59271000D01*
X144696184Y-59271000D01*
X144531772Y-59238297D01*
X144376900Y-59174147D01*
X144237519Y-59081015D01*
X144118985Y-58962481D01*
X144025853Y-58823100D01*
X143961703Y-58668228D01*
X143929000Y-58503816D01*
X143929000Y-58336184D01*
X143961703Y-58171772D01*
X144025853Y-58016900D01*
X144118985Y-57877519D01*
X144237519Y-57758985D01*
X144376900Y-57665853D01*
X144531772Y-57601703D01*
X144696184Y-57569000D01*
X144863816Y-57569000D01*
X145028228Y-57601703D01*
G37*
G36*
X132328228Y-57601703D02*
G01*
X132483100Y-57665853D01*
X132622481Y-57758985D01*
X132741015Y-57877519D01*
X132834147Y-58016900D01*
X132898297Y-58171772D01*
X132931000Y-58336184D01*
X132931000Y-58503816D01*
X132898297Y-58668228D01*
X132834147Y-58823100D01*
X132741015Y-58962481D01*
X132622481Y-59081015D01*
X132483100Y-59174147D01*
X132328228Y-59238297D01*
X132163816Y-59271000D01*
X131996184Y-59271000D01*
X131831772Y-59238297D01*
X131676900Y-59174147D01*
X131537519Y-59081015D01*
X131418985Y-58962481D01*
X131325853Y-58823100D01*
X131261703Y-58668228D01*
X131229000Y-58503816D01*
X131229000Y-58336184D01*
X131261703Y-58171772D01*
X131325853Y-58016900D01*
X131418985Y-57877519D01*
X131537519Y-57758985D01*
X131676900Y-57665853D01*
X131831772Y-57601703D01*
X131996184Y-57569000D01*
X132163816Y-57569000D01*
X132328228Y-57601703D01*
G37*
G36*
X114548228Y-57601703D02*
G01*
X114703100Y-57665853D01*
X114842481Y-57758985D01*
X114961015Y-57877519D01*
X115054147Y-58016900D01*
X115118297Y-58171772D01*
X115151000Y-58336184D01*
X115151000Y-58503816D01*
X115118297Y-58668228D01*
X115054147Y-58823100D01*
X114961015Y-58962481D01*
X114842481Y-59081015D01*
X114703100Y-59174147D01*
X114548228Y-59238297D01*
X114383816Y-59271000D01*
X114216184Y-59271000D01*
X114051772Y-59238297D01*
X113896900Y-59174147D01*
X113757519Y-59081015D01*
X113638985Y-58962481D01*
X113545853Y-58823100D01*
X113481703Y-58668228D01*
X113449000Y-58503816D01*
X113449000Y-58336184D01*
X113481703Y-58171772D01*
X113545853Y-58016900D01*
X113638985Y-57877519D01*
X113757519Y-57758985D01*
X113896900Y-57665853D01*
X114051772Y-57601703D01*
X114216184Y-57569000D01*
X114383816Y-57569000D01*
X114548228Y-57601703D01*
G37*
G36*
X101848228Y-57601703D02*
G01*
X102003100Y-57665853D01*
X102142481Y-57758985D01*
X102261015Y-57877519D01*
X102354147Y-58016900D01*
X102418297Y-58171772D01*
X102451000Y-58336184D01*
X102451000Y-58503816D01*
X102418297Y-58668228D01*
X102354147Y-58823100D01*
X102261015Y-58962481D01*
X102142481Y-59081015D01*
X102003100Y-59174147D01*
X101848228Y-59238297D01*
X101683816Y-59271000D01*
X101516184Y-59271000D01*
X101351772Y-59238297D01*
X101196900Y-59174147D01*
X101057519Y-59081015D01*
X100938985Y-58962481D01*
X100845853Y-58823100D01*
X100781703Y-58668228D01*
X100749000Y-58503816D01*
X100749000Y-58336184D01*
X100781703Y-58171772D01*
X100845853Y-58016900D01*
X100938985Y-57877519D01*
X101057519Y-57758985D01*
X101196900Y-57665853D01*
X101351772Y-57601703D01*
X101516184Y-57569000D01*
X101683816Y-57569000D01*
X101848228Y-57601703D01*
G37*
M02*
